<svg width="1366" height="768" viewBox="0 0 1366 768" fill="none" xmlns="http://www.w3.org/2000/svg">
<path d="M1279.02 114L1279.38 114.526L1279.99 114.706L1279.61 115.212L1279.62 115.849L1279.02 115.635L1278.42 115.849L1278.44 115.212L1278.05 114.706L1278.66 114.526L1279.02 114Z" fill="white" fill-opacity="0.4"/>
<path d="M1189.94 418L1190.27 418.484L1190.84 418.65L1190.48 419.116L1190.49 419.702L1189.94 419.506L1189.39 419.702L1189.4 419.116L1189.05 418.65L1189.61 418.484L1189.94 418Z" fill="white" fill-opacity="0.3"/>
<path d="M53.984 374L54.6838 375.021L55.871 375.371L55.1162 376.352L55.1502 377.589L53.984 377.174L52.8179 377.589L52.8519 376.352L52.0971 375.371L53.2843 375.021L53.984 374Z" fill="white" fill-opacity="0.4"/>
<path d="M933.855 747L934.156 747.44L934.667 747.59L934.342 748.013L934.357 748.546L933.855 748.367L933.352 748.546L933.367 748.013L933.042 747.59L933.553 747.44L933.855 747Z" fill="white" fill-opacity="0.6"/>
<path d="M639.2 730L639.623 730.617L640.341 730.829L639.884 731.422L639.905 732.17L639.2 731.92L638.495 732.17L638.515 731.422L638.059 730.829L638.777 730.617L639.2 730Z" fill="white" fill-opacity="0.5"/>
<path d="M1301.32 165L1301.78 165.677L1302.57 165.909L1302.07 166.559L1302.09 167.38L1301.32 167.105L1300.54 167.38L1300.56 166.559L1300.06 165.909L1300.85 165.677L1301.32 165Z" fill="white" fill-opacity="0.3"/>
<path d="M1335.84 539L1336.14 539.434L1336.64 539.582L1336.32 539.999L1336.34 540.525L1335.84 540.349L1335.35 540.525L1335.36 539.999L1335.04 539.582L1335.55 539.434L1335.84 539Z" fill="white" fill-opacity="0.5"/>
<path d="M452.922 480L453.6 480.989L454.751 481.328L454.019 482.279L454.052 483.478L452.922 483.076L451.792 483.478L451.825 482.279L451.094 481.328L452.244 480.989L452.922 480Z" fill="white" fill-opacity="0.5"/>
<path d="M1279.64 157L1280.22 157.843L1281.2 158.132L1280.57 158.942L1280.6 159.964L1279.64 159.622L1278.68 159.964L1278.7 158.942L1278.08 158.132L1279.06 157.843L1279.64 157Z" fill="white" fill-opacity="0.4"/>
<path d="M1177.66 469L1178.25 469.857L1179.25 470.15L1178.61 470.973L1178.64 472.011L1177.66 471.663L1176.69 472.011L1176.71 470.973L1176.08 470.15L1177.08 469.857L1177.66 469Z" fill="white" fill-opacity="0.4"/>
<path d="M327.603 726L327.816 726.31L328.177 726.417L327.947 726.715L327.958 727.091L327.603 726.965L327.249 727.091L327.259 726.715L327.03 726.417L327.39 726.31L327.603 726Z" fill="white" fill-opacity="0.5"/>
<path d="M274.941 693L275.625 693.999L276.787 694.341L276.049 695.301L276.082 696.511L274.941 696.106L273.8 696.511L273.833 695.301L273.095 694.341L274.256 693.999L274.941 693Z" fill="white" fill-opacity="0.4"/>
<path d="M1008.02 512L1008.38 512.526L1009 512.707L1008.61 513.213L1008.62 513.85L1008.02 513.637L1007.42 513.85L1007.44 513.213L1007.05 512.707L1007.66 512.526L1008.02 512Z" fill="white" fill-opacity="0.6"/>
<path d="M1277.1 229L1277.49 229.567L1278.15 229.762L1277.73 230.307L1277.75 230.994L1277.1 230.764L1276.45 230.994L1276.47 230.307L1276.05 229.762L1276.71 229.567L1277.1 229Z" fill="white" fill-opacity="0.3"/>
<path d="M238.775 352L239.402 352.914L240.464 353.227L239.789 354.105L239.819 355.212L238.775 354.841L237.732 355.212L237.762 354.105L237.087 353.227L238.149 352.914L238.775 352Z" fill="white" fill-opacity="0.6"/>
<path d="M983.248 89L983.688 89.642L984.434 89.8621L983.96 90.4789L983.981 91.257L983.248 90.9962L982.514 91.257L982.536 90.4789L982.061 89.8621L982.808 89.642L983.248 89Z" fill="white" fill-opacity="0.3"/>
<path d="M781.951 697L782.639 698.004L783.807 698.348L783.065 699.313L783.098 700.53L781.951 700.122L780.804 700.53L780.838 699.313L780.096 698.348L781.263 698.004L781.951 697Z" fill="white" fill-opacity="0.3"/>
<path d="M320.575 667L320.778 667.296L321.122 667.397L320.903 667.681L320.913 668.04L320.575 667.92L320.237 668.04L320.247 667.681L320.028 667.397L320.372 667.296L320.575 667Z" fill="white" fill-opacity="0.3"/>
<path d="M906.882 254L907.546 254.968L908.672 255.3L907.956 256.231L907.988 257.404L906.882 257.011L905.776 257.404L905.808 256.231L905.092 255.3L906.218 254.968L906.882 254Z" fill="white" fill-opacity="0.6"/>
<path d="M151.739 402L151.999 402.38L152.441 402.511L152.16 402.876L152.173 403.337L151.739 403.182L151.305 403.337L151.317 402.876L151.036 402.511L151.478 402.38L151.739 402Z" fill="white" fill-opacity="0.6"/>
<path d="M28.2686 732L28.7159 732.653L29.475 732.877L28.9924 733.504L29.0142 734.295L28.2686 734.03L27.5229 734.295L27.5447 733.504L27.0621 732.877L27.8212 732.653L28.2686 732Z" fill="white" fill-opacity="0.5"/>
<path d="M226.338 385L226.809 385.688L227.61 385.924L227.101 386.586L227.124 387.42L226.338 387.14L225.551 387.42L225.574 386.586L225.065 385.924L225.866 385.688L226.338 385Z" fill="white" fill-opacity="0.4"/>
<path d="M1043.18 741L1043.59 741.605L1044.3 741.813L1043.85 742.395L1043.87 743.128L1043.18 742.882L1042.48 743.128L1042.51 742.395L1042.06 741.813L1042.76 741.605L1043.18 741Z" fill="white" fill-opacity="0.5"/>
<path d="M809.286 536L809.739 536.662L810.509 536.888L810.019 537.524L810.042 538.326L809.286 538.057L808.53 538.326L808.552 537.524L808.063 536.888L808.832 536.662L809.286 536Z" fill="white" fill-opacity="0.4"/>
<path d="M1143.65 189L1144.23 189.848L1145.22 190.139L1144.59 190.954L1144.62 191.982L1143.65 191.637L1142.68 191.982L1142.71 190.954L1142.08 190.139L1143.07 189.848L1143.65 189Z" fill="white" fill-opacity="0.3"/>
<path d="M686.34 125L686.813 125.69L687.614 125.926L687.105 126.588L687.128 127.424L686.34 127.144L685.552 127.424L685.575 126.588L685.066 125.926L685.867 125.69L686.34 125Z" fill="white" fill-opacity="0.4"/>
<path d="M938.6 107L938.812 107.309L939.171 107.415L938.943 107.712L938.953 108.086L938.6 107.961L938.247 108.086L938.258 107.712L938.029 107.415L938.389 107.309L938.6 107Z" fill="white" fill-opacity="0.5"/>
<path d="M832.914 668L833.59 668.985L834.735 669.323L834.007 670.269L834.04 671.463L832.914 671.063L831.789 671.463L831.822 670.269L831.094 669.323L832.239 668.985L832.914 668Z" fill="white" fill-opacity="0.5"/>
<path d="M478.502 316L478.679 316.258L478.98 316.347L478.789 316.595L478.797 316.908L478.502 316.803L478.207 316.908L478.216 316.595L478.025 316.347L478.325 316.258L478.502 316Z" fill="white" fill-opacity="0.4"/>
<path d="M253.616 43L254.185 43.8313L255.152 44.1163L254.537 44.9151L254.565 45.9225L253.616 45.5849L252.666 45.9225L252.694 44.9151L252.079 44.1163L253.046 43.8313L253.616 43Z" fill="white" fill-opacity="0.3"/>
<path d="M1086.57 345L1086.77 345.291L1087.11 345.391L1086.89 345.671L1086.9 346.025L1086.57 345.906L1086.23 346.025L1086.24 345.671L1086.03 345.391L1086.37 345.291L1086.57 345Z" fill="white" fill-opacity="0.3"/>
<path d="M289.594 243L290.157 243.82L291.111 244.102L290.504 244.89L290.531 245.884L289.594 245.551L288.657 245.884L288.685 244.89L288.078 244.102L289.032 243.82L289.594 243Z" fill="white" fill-opacity="0.5"/>
<path d="M1335.93 674L1336.61 674.994L1337.77 675.334L1337.03 676.289L1337.07 677.493L1335.93 677.09L1334.8 677.493L1334.83 676.289L1334.09 675.334L1335.25 674.994L1335.93 674Z" fill="white" fill-opacity="0.6"/>
<path d="M889.642 63L889.869 63.3305L890.253 63.4438L890.009 63.7614L890.02 64.1619L889.642 64.0276L889.265 64.1619L889.276 63.7614L889.031 63.4438L889.416 63.3305L889.642 63Z" fill="white" fill-opacity="0.5"/>
<path d="M1288.57 472L1289.12 472.805L1290.05 473.082L1289.46 473.855L1289.49 474.832L1288.57 474.504L1287.65 474.832L1287.67 473.855L1287.08 473.082L1288.01 472.805L1288.57 472Z" fill="white" fill-opacity="0.3"/>
<path d="M667.609 86L668.176 86.8277L669.138 87.1115L668.526 87.9067L668.554 88.9098L667.609 88.5736L666.663 88.9098L666.691 87.9067L666.079 87.1115L667.041 86.8277L667.609 86Z" fill="white" fill-opacity="0.6"/>
<path d="M811.934 750L812.616 750.995L813.773 751.336L813.037 752.292L813.071 753.498L811.934 753.094L810.797 753.498L810.83 752.292L810.095 751.336L811.252 750.995L811.934 750Z" fill="white" fill-opacity="0.5"/>
<path d="M245.074 539L245.453 539.553L246.096 539.742L245.687 540.273L245.705 540.943L245.074 540.719L244.443 540.943L244.461 540.273L244.053 539.742L244.695 539.553L245.074 539Z" fill="white" fill-opacity="0.6"/>
<path d="M233.904 8L234.223 8.46535L234.764 8.62487L234.42 9.07199L234.436 9.63592L233.904 9.44691L233.373 9.63592L233.388 9.07199L233.044 8.62487L233.585 8.46535L233.904 8Z" fill="white" fill-opacity="0.5"/>
<path d="M254.903 496L255.221 496.464L255.761 496.624L255.418 497.07L255.433 497.633L254.903 497.444L254.372 497.633L254.388 497.07L254.044 496.624L254.584 496.464L254.903 496Z" fill="white" fill-opacity="0.5"/>
<path d="M823.812 7L824.451 7.93256L825.536 8.25223L824.846 9.14826L824.877 10.2784L823.812 9.8996L822.747 10.2784L822.778 9.14826L822.089 8.25223L823.173 7.93256L823.812 7Z" fill="white" fill-opacity="0.5"/>
<path d="M750.288 485L750.742 485.663L751.513 485.89L751.023 486.527L751.045 487.33L750.288 487.061L749.531 487.33L749.553 486.527L749.063 485.89L749.834 485.663L750.288 485Z" fill="white" fill-opacity="0.6"/>
<path d="M1062.77 633L1063.39 633.91L1064.45 634.222L1063.78 635.097L1063.81 636.2L1062.77 635.83L1061.73 636.2L1061.76 635.097L1061.09 634.222L1062.15 633.91L1062.77 633Z" fill="white" fill-opacity="0.4"/>
<path d="M831.611 370L832.18 370.829L833.144 371.113L832.531 371.91L832.559 372.915L831.611 372.578L830.664 372.915L830.692 371.91L830.079 371.113L831.043 370.829L831.611 370Z" fill="white" fill-opacity="0.3"/>
<path d="M876.187 370L876.605 370.611L877.315 370.82L876.864 371.407L876.884 372.147L876.187 371.899L875.489 372.147L875.51 371.407L875.058 370.82L875.768 370.611L876.187 370Z" fill="white" fill-opacity="0.4"/>
<path d="M591.201 739L591.625 739.618L592.343 739.83L591.886 740.424L591.907 741.173L591.201 740.922L590.495 741.173L590.516 740.424L590.059 739.83L590.777 739.618L591.201 739Z" fill="white" fill-opacity="0.3"/>
<path d="M603.274 163L603.724 163.656L604.486 163.881L604.002 164.511L604.023 165.305L603.274 165.039L602.525 165.305L602.547 164.511L602.062 163.881L602.825 163.656L603.274 163Z" fill="white" fill-opacity="0.3"/>
<path d="M82.7728 276L83.0454 276.398L83.5078 276.534L83.2138 276.916L83.2271 277.398L82.7728 277.236L82.3186 277.398L82.3318 276.916L82.0378 276.534L82.5003 276.398L82.7728 276Z" fill="white" fill-opacity="0.5"/>
<path d="M514.337 426L514.809 426.688L515.609 426.924L515.1 427.585L515.123 428.419L514.337 428.14L513.551 428.419L513.574 427.585L513.065 426.924L513.866 426.688L514.337 426Z" fill="white" fill-opacity="0.5"/>
<path d="M642.856 462L643.511 462.955L644.621 463.283L643.915 464.2L643.947 465.358L642.856 464.97L641.765 465.358L641.797 464.2L641.091 463.283L642.202 462.955L642.856 462Z" fill="white" fill-opacity="0.5"/>
<path d="M924.71 280L924.96 280.365L925.385 280.491L925.115 280.842L925.127 281.284L924.71 281.136L924.293 281.284L924.305 280.842L924.035 280.491L924.46 280.365L924.71 280Z" fill="white" fill-opacity="0.6"/>
<path d="M626.262 18L626.707 18.6493L627.462 18.8719L626.982 19.4957L627.003 20.2825L626.262 20.0188L625.52 20.2825L625.542 19.4957L625.062 18.8719L625.817 18.6493L626.262 18Z" fill="white" fill-opacity="0.5"/>
<path d="M1200.76 329L1201.03 329.392L1201.49 329.526L1201.2 329.903L1201.21 330.378L1200.76 330.219L1200.31 330.378L1200.33 329.903L1200.04 329.526L1200.49 329.392L1200.76 329Z" fill="white" fill-opacity="0.3"/>
<path d="M1184.33 327L1184.8 327.686L1185.6 327.921L1185.09 328.579L1185.12 329.41L1184.33 329.132L1183.55 329.41L1183.57 328.579L1183.07 327.921L1183.86 327.686L1184.33 327Z" fill="white" fill-opacity="0.4"/>
<path d="M1221.9 15L1222.57 15.9773L1223.71 16.3123L1222.98 17.2514L1223.02 18.4357L1221.9 18.0388L1220.78 18.4357L1220.82 17.2514L1220.09 16.3123L1221.23 15.9773L1221.9 15Z" fill="white" fill-opacity="0.3"/>
<path d="M1159.66 147L1160.24 147.853L1161.23 148.145L1160.6 148.964L1160.63 149.998L1159.66 149.651L1158.68 149.998L1158.71 148.964L1158.08 148.145L1159.07 147.853L1159.66 147Z" fill="white" fill-opacity="0.6"/>
<path d="M586.521 526L586.705 526.268L587.016 526.36L586.818 526.618L586.827 526.942L586.521 526.834L586.215 526.942L586.224 526.618L586.025 526.36L586.337 526.268L586.521 526Z" fill="white" fill-opacity="0.5"/>
<path d="M1216.33 233L1216.8 233.683L1217.59 233.917L1217.09 234.574L1217.11 235.402L1216.33 235.124L1215.55 235.402L1215.57 234.574L1215.06 233.917L1215.86 233.683L1216.33 233Z" fill="white" fill-opacity="0.5"/>
<path d="M346.788 402L347.419 402.92L348.489 403.236L347.809 404.12L347.839 405.235L346.788 404.861L345.737 405.235L345.768 404.12L345.088 403.236L346.158 402.92L346.788 402Z" fill="white" fill-opacity="0.5"/>
<path d="M268.58 155L269.137 155.813L270.083 156.092L269.482 156.873L269.509 157.858L268.58 157.528L267.651 157.858L267.678 156.873L267.077 156.092L268.023 155.813L268.58 155Z" fill="white" fill-opacity="0.6"/>
<path d="M273.891 420L274.558 420.973L275.689 421.307L274.97 422.241L275.002 423.42L273.891 423.025L272.779 423.42L272.812 422.241L272.093 421.307L273.224 420.973L273.891 420Z" fill="white" fill-opacity="0.6"/>
<path d="M1253.95 194L1254.28 194.488L1254.85 194.656L1254.49 195.125L1254.51 195.717L1253.95 195.519L1253.39 195.717L1253.41 195.125L1253.05 194.656L1253.61 194.488L1253.95 194Z" fill="white" fill-opacity="0.4"/>
<path d="M445.304 87L445.763 87.6708L446.543 87.9008L446.048 88.5453L446.07 89.3583L445.304 89.0858L444.537 89.3583L444.56 88.5453L444.064 87.9008L444.844 87.6708L445.304 87Z" fill="white" fill-opacity="0.5"/>
<path d="M880.276 727L880.726 727.657L881.489 727.882L881.004 728.512L881.026 729.308L880.276 729.041L879.526 729.308L879.548 728.512L879.062 727.882L879.826 727.657L880.276 727Z" fill="white" fill-opacity="0.5"/>
<path d="M169.727 200L169.983 200.374L170.418 200.502L170.141 200.861L170.154 201.315L169.727 201.163L169.3 201.315L169.312 200.861L169.036 200.502L169.47 200.374L169.727 200Z" fill="white" fill-opacity="0.6"/>
<path d="M753.708 461L754.311 461.879L755.333 462.18L754.683 463.025L754.712 464.09L753.708 463.733L752.704 464.09L752.733 463.025L752.084 462.18L753.106 461.879L753.708 461Z" fill="white" fill-opacity="0.4"/>
<path d="M1171.34 72L1171.81 72.6905L1172.62 72.9271L1172.11 73.5905L1172.13 74.4273L1171.34 74.1468L1170.55 74.4273L1170.58 73.5905L1170.07 72.9271L1170.87 72.6905L1171.34 72Z" fill="white" fill-opacity="0.4"/>
<path d="M380.438 161L380.945 161.74L381.805 161.994L381.258 162.704L381.283 163.601L380.438 163.301L379.593 163.601L379.617 162.704L379.07 161.994L379.931 161.74L380.438 161Z" fill="white" fill-opacity="0.4"/>
<path d="M472.03 577L472.393 577.53L473.01 577.712L472.618 578.221L472.635 578.863L472.03 578.648L471.425 578.863L471.442 578.221L471.05 577.712L471.667 577.53L472.03 577Z" fill="white" fill-opacity="0.3"/>
<path d="M283.64 633L284.219 633.844L285.2 634.133L284.576 634.944L284.604 635.967L283.64 635.625L282.676 635.967L282.704 634.944L282.08 634.133L283.062 633.844L283.64 633Z" fill="white" fill-opacity="0.6"/>
<path d="M108.202 496L108.626 496.619L109.346 496.831L108.888 497.425L108.909 498.175L108.202 497.924L107.496 498.175L107.516 497.425L107.059 496.831L107.778 496.619L108.202 496Z" fill="white" fill-opacity="0.5"/>
<path d="M138.436 358L138.943 358.739L139.802 358.992L139.256 359.703L139.281 360.598L138.436 360.298L137.592 360.598L137.617 359.703L137.07 358.992L137.93 358.739L138.436 358Z" fill="white" fill-opacity="0.3"/>
<path d="M1352.74 416L1353.35 416.895L1354.39 417.202L1353.73 418.061L1353.76 419.146L1352.74 418.782L1351.72 419.146L1351.75 418.061L1351.09 417.202L1352.13 416.895L1352.74 416Z" fill="white" fill-opacity="0.3"/>
<path d="M868.466 238L868.983 238.755L869.861 239.013L869.303 239.738L869.328 240.653L868.466 240.346L867.604 240.653L867.63 239.738L867.072 239.013L867.949 238.755L868.466 238Z" fill="white" fill-opacity="0.3"/>
<path d="M1103.69 366L1103.93 366.355L1104.34 366.476L1104.08 366.817L1104.09 367.247L1103.69 367.103L1103.28 367.247L1103.3 366.817L1103.03 366.476L1103.45 366.355L1103.69 366Z" fill="white" fill-opacity="0.4"/>
<path d="M32.9605 388L33.2992 388.494L33.8739 388.664L33.5085 389.139L33.525 389.738L32.9605 389.537L32.3959 389.738L32.4124 389.139L32.047 388.664L32.6217 388.494L32.9605 388Z" fill="white" fill-opacity="0.4"/>
<path d="M225.994 508L226.345 508.512L226.94 508.687L226.562 509.179L226.579 509.799L225.994 509.591L225.41 509.799L225.427 509.179L225.049 508.687L225.644 508.512L225.994 508Z" fill="white" fill-opacity="0.5"/>
<path d="M653.123 695L653.519 695.578L654.191 695.776L653.764 696.331L653.783 697.031L653.123 696.797L652.463 697.031L652.482 696.331L652.055 695.776L652.727 695.578L653.123 695Z" fill="white" fill-opacity="0.3"/>
<path d="M1263.45 427L1263.96 427.744L1264.82 427.999L1264.27 428.714L1264.3 429.616L1263.45 429.314L1262.6 429.616L1262.62 428.714L1262.07 427.999L1262.94 427.744L1263.45 427Z" fill="white" fill-opacity="0.4"/>
<path d="M1041.89 495L1042.21 495.46L1042.74 495.618L1042.4 496.06L1042.42 496.618L1041.89 496.431L1041.37 496.618L1041.38 496.06L1041.04 495.618L1041.58 495.46L1041.89 495Z" fill="white" fill-opacity="0.4"/>
<path d="M408.946 119L409.28 119.487L409.847 119.654L409.487 120.122L409.503 120.712L408.946 120.514L408.39 120.712L408.406 120.122L408.046 119.654L408.613 119.487L408.946 119Z" fill="white" fill-opacity="0.5"/>
<path d="M1143.59 171L1143.79 171.302L1144.14 171.405L1143.92 171.695L1143.93 172.061L1143.59 171.938L1143.24 172.061L1143.25 171.695L1143.03 171.405L1143.38 171.302L1143.59 171Z" fill="white" fill-opacity="0.3"/>
<path d="M624.637 398L625.214 398.842L626.194 399.131L625.571 399.941L625.599 400.962L624.637 400.619L623.675 400.962L623.703 399.941L623.08 399.131L624.06 398.842L624.637 398Z" fill="white" fill-opacity="0.6"/>
<path d="M518.163 666L518.573 666.598L519.269 666.804L518.827 667.379L518.847 668.104L518.163 667.861L517.479 668.104L517.499 667.379L517.057 666.804L517.753 666.598L518.163 666Z" fill="white" fill-opacity="0.4"/>
<path d="M374.488 710L375.013 710.766L375.904 711.029L375.338 711.764L375.363 712.693L374.488 712.382L373.614 712.693L373.639 711.764L373.073 711.029L373.964 710.766L374.488 710Z" fill="white" fill-opacity="0.4"/>
<path d="M1189.92 155L1190.25 155.475L1190.8 155.638L1190.45 156.094L1190.46 156.669L1189.92 156.476L1189.38 156.669L1189.4 156.094L1189.05 155.638L1189.6 155.475L1189.92 155Z" fill="white" fill-opacity="0.6"/>
<path d="M1076.11 633L1076.5 633.569L1077.16 633.764L1076.74 634.31L1076.76 635L1076.11 634.769L1075.46 635L1075.47 634.31L1075.05 633.764L1075.72 633.569L1076.11 633Z" fill="white" fill-opacity="0.4"/>
<path d="M959.574 153L960.129 153.81L961.071 154.087L960.472 154.866L960.499 155.847L959.574 155.518L958.649 155.847L958.676 154.866L958.077 154.087L959.019 153.81L959.574 153Z" fill="white" fill-opacity="0.3"/>
<path d="M1077.22 415L1077.65 415.627L1078.38 415.841L1077.91 416.443L1077.93 417.203L1077.22 416.948L1076.5 417.203L1076.52 416.443L1076.06 415.841L1076.79 415.627L1077.22 415Z" fill="white" fill-opacity="0.5"/>
<path d="M385.961 765L386.3 765.494L386.874 765.664L386.509 766.139L386.525 766.738L385.961 766.537L385.396 766.738L385.413 766.139L385.047 765.664L385.622 765.494L385.961 765Z" fill="white" fill-opacity="0.5"/>
<path d="M1034.73 728L1034.99 728.375L1035.42 728.503L1035.14 728.864L1035.16 729.318L1034.73 729.166L1034.3 729.318L1034.31 728.864L1034.04 728.503L1034.47 728.375L1034.73 728Z" fill="white" fill-opacity="0.3"/>
<path d="M1296.16 327L1296.57 327.596L1297.26 327.801L1296.82 328.374L1296.84 329.097L1296.16 328.855L1295.48 329.097L1295.5 328.374L1295.06 327.801L1295.75 327.596L1296.16 327Z" fill="white" fill-opacity="0.5"/>
<path d="M90.601 218L91.1656 218.824L92.1236 219.106L91.5146 219.898L91.542 220.896L90.601 220.562L89.66 220.896L89.6874 219.898L89.0784 219.106L90.0364 218.824L90.601 218Z" fill="white" fill-opacity="0.3"/>
<path d="M1232.13 713L1232.52 713.579L1233.2 713.778L1232.77 714.335L1232.79 715.037L1232.13 714.802L1231.46 715.037L1231.48 714.335L1231.06 713.778L1231.73 713.579L1232.13 713Z" fill="white" fill-opacity="0.3"/>
<path d="M104.971 581L105.666 582.014L106.845 582.362L106.095 583.336L106.129 584.565L104.971 584.153L103.812 584.565L103.846 583.336L103.096 582.362L104.276 582.014L104.971 581Z" fill="white" fill-opacity="0.4"/>
<path d="M886.491 362L887.017 362.767L887.909 363.03L887.342 363.767L887.367 364.697L886.491 364.385L885.615 364.697L885.64 363.767L885.073 363.03L885.965 362.767L886.491 362Z" fill="white" fill-opacity="0.4"/>
<path d="M535.046 624L535.415 624.538L536.041 624.723L535.643 625.24L535.661 625.892L535.046 625.674L534.431 625.892L534.449 625.24L534.051 624.723L534.677 624.538L535.046 624Z" fill="white" fill-opacity="0.5"/>
<path d="M336.677 444L336.916 444.348L337.321 444.468L337.063 444.802L337.075 445.225L336.677 445.083L336.279 445.225L336.291 444.802L336.033 444.468L336.438 444.348L336.677 444Z" fill="white" fill-opacity="0.6"/>
<path d="M1181.81 338L1182.1 338.419L1182.59 338.562L1182.28 338.965L1182.29 339.472L1181.81 339.302L1181.34 339.472L1181.35 338.965L1181.04 338.562L1181.53 338.419L1181.81 338Z" fill="white" fill-opacity="0.3"/>
<path d="M1145.81 392L1146.45 392.932L1147.53 393.251L1146.84 394.147L1146.88 395.276L1145.81 394.898L1144.75 395.276L1144.78 394.147L1144.09 393.251L1145.17 392.932L1145.81 392Z" fill="white" fill-opacity="0.5"/>
<path d="M935.574 6L936.129 6.81002L937.071 7.08769L936.472 7.86597L936.499 8.8476L935.574 8.51859L934.649 8.8476L934.676 7.86597L934.077 7.08769L935.019 6.81002L935.574 6Z" fill="white" fill-opacity="0.3"/>
<path d="M764.956 392L765.646 393.006L766.816 393.351L766.072 394.319L766.106 395.538L764.956 395.129L763.806 395.538L763.84 394.319L763.096 393.351L764.266 393.006L764.956 392Z" fill="white" fill-opacity="0.4"/>
<path d="M204.631 82L205.206 82.8392L206.182 83.1269L205.562 83.9333L205.589 84.9503L204.631 84.6094L203.672 84.9503L203.7 83.9333L203.08 83.1269L204.056 82.8392L204.631 82Z" fill="white" fill-opacity="0.5"/>
<path d="M1273.24 625L1273.67 625.636L1274.41 625.854L1273.94 626.464L1273.96 627.235L1273.24 626.977L1272.51 627.235L1272.53 626.464L1272.06 625.854L1272.8 625.636L1273.24 625Z" fill="white" fill-opacity="0.4"/>
<path d="M424.843 657L425.492 657.948L426.595 658.273L425.894 659.184L425.926 660.333L424.843 659.948L423.76 660.333L423.791 659.184L423.09 658.273L424.193 657.948L424.843 657Z" fill="white" fill-opacity="0.5"/>
<path d="M384.61 583L384.826 583.314L385.191 583.422L384.959 583.723L384.969 584.104L384.61 583.976L384.252 584.104L384.262 583.723L384.03 583.422L384.395 583.314L384.61 583Z" fill="white" fill-opacity="0.6"/>
<path d="M267.575 35L268.131 35.8107L269.074 36.0886L268.474 36.8675L268.501 37.85L267.575 37.5207L266.649 37.85L266.676 36.8675L266.077 36.0886L267.02 35.8107L267.575 35Z" fill="white" fill-opacity="0.4"/>
<path d="M165.968 16L166.309 16.4979L166.888 16.6686L166.52 17.147L166.536 17.7504L165.968 17.5481L165.399 17.7504L165.415 17.147L165.047 16.6686L165.626 16.4979L165.968 16Z" fill="white" fill-opacity="0.3"/>
<path d="M68.3353 109L68.8062 109.687L69.6052 109.923L69.0973 110.583L69.1202 111.416L68.3353 111.136L67.5504 111.416L67.5733 110.583L67.0654 109.923L67.8644 109.687L68.3353 109Z" fill="white" fill-opacity="0.5"/>
<path d="M1250.84 518L1251.13 518.43L1251.63 518.578L1251.31 518.991L1251.33 519.513L1250.84 519.338L1250.34 519.513L1250.36 518.991L1250.04 518.578L1250.54 518.43L1250.84 518Z" fill="white" fill-opacity="0.4"/>
<path d="M701.401 390L701.895 390.721L702.733 390.968L702.2 391.66L702.224 392.534L701.401 392.241L700.577 392.534L700.601 391.66L700.069 390.968L700.907 390.721L701.401 390Z" fill="white" fill-opacity="0.5"/>
<path d="M658.42 212L658.921 212.731L659.771 212.981L659.231 213.684L659.255 214.569L658.42 214.273L657.586 214.569L657.61 213.684L657.07 212.981L657.919 212.731L658.42 212Z" fill="white" fill-opacity="0.6"/>
<path d="M110.604 193L111.169 193.825L112.129 194.108L111.519 194.901L111.547 195.901L110.604 195.566L109.661 195.901L109.689 194.901L109.078 194.108L110.038 193.825L110.604 193Z" fill="white" fill-opacity="0.4"/>
<path d="M459.209 431L459.635 431.622L460.358 431.835L459.898 432.433L459.919 433.186L459.209 432.934L458.498 433.186L458.519 432.433L458.059 431.835L458.782 431.622L459.209 431Z" fill="white" fill-opacity="0.6"/>
<path d="M909.67 400L910.259 400.859L911.258 401.154L910.622 401.979L910.651 403.02L909.67 402.672L908.688 403.02L908.717 401.979L908.082 401.154L909.081 400.859L909.67 400Z" fill="white" fill-opacity="0.4"/>
<path d="M1090.22 66L1090.65 66.627L1091.38 66.842L1090.91 67.4444L1090.93 68.2043L1090.22 67.9496L1089.5 68.2043L1089.52 67.4444L1089.06 66.842L1089.79 66.627L1090.22 66Z" fill="white" fill-opacity="0.6"/>
<path d="M403.973 727L404.316 727.5L404.898 727.672L404.528 728.153L404.544 728.759L403.973 728.556L403.401 728.759L403.418 728.153L403.048 727.672L403.63 727.5L403.973 727Z" fill="white" fill-opacity="0.3"/>
<path d="M730.331 131L730.8 131.685L731.596 131.919L731.09 132.577L731.113 133.407L730.331 133.129L729.549 133.407L729.571 132.577L729.065 131.919L729.861 131.685L730.331 131Z" fill="white" fill-opacity="0.5"/>
<path d="M638.015 107L638.373 107.522L638.98 107.701L638.594 108.203L638.611 108.836L638.015 108.623L637.418 108.836L637.436 108.203L637.05 107.701L637.657 107.522L638.015 107Z" fill="white" fill-opacity="0.5"/>
<path d="M829.645 586L830.225 586.847L831.21 587.137L830.584 587.95L830.612 588.976L829.645 588.632L828.678 588.976L828.706 587.95L828.081 587.137L829.065 586.847L829.645 586Z" fill="white" fill-opacity="0.3"/>
<path d="M844.087 381L844.47 381.559L845.121 381.751L844.707 382.288L844.726 382.966L844.087 382.739L843.448 382.966L843.467 382.288L843.053 381.751L843.704 381.559L844.087 381Z" fill="white" fill-opacity="0.4"/>
<path d="M1288.66 549L1288.89 549.337L1289.28 549.453L1289.03 549.777L1289.04 550.186L1288.66 550.049L1288.27 550.186L1288.28 549.777L1288.03 549.453L1288.42 549.337L1288.66 549Z" fill="white" fill-opacity="0.5"/>
<path d="M779.639 522L780.218 522.844L781.199 523.133L780.575 523.943L780.603 524.966L779.639 524.623L778.676 524.966L778.704 523.943L778.08 523.133L779.061 522.844L779.639 522Z" fill="white" fill-opacity="0.5"/>
<path d="M836.21 609L836.636 609.622L837.36 609.836L836.9 610.434L836.921 611.188L836.21 610.936L835.499 611.188L835.519 610.434L835.059 609.836L835.783 609.622L836.21 609Z" fill="white" fill-opacity="0.5"/>
<path d="M1258.84 669L1259.49 669.946L1260.59 670.27L1259.89 671.178L1259.92 672.324L1258.84 671.94L1257.76 672.324L1257.79 671.178L1257.09 670.27L1258.19 669.946L1258.84 669Z" fill="white" fill-opacity="0.6"/>
<path d="M697.598 251L697.809 251.308L698.166 251.413L697.939 251.709L697.949 252.081L697.598 251.956L697.246 252.081L697.257 251.709L697.029 251.413L697.387 251.308L697.598 251Z" fill="white" fill-opacity="0.6"/>
<path d="M1058.2 162L1058.63 162.62L1059.35 162.832L1058.89 163.428L1058.91 164.179L1058.2 163.927L1057.5 164.179L1057.52 163.428L1057.06 162.832L1057.78 162.62L1058.2 162Z" fill="white" fill-opacity="0.5"/>
<path d="M836.515 420L837.05 420.78L837.956 421.047L837.38 421.796L837.406 422.741L836.515 422.424L835.625 422.741L835.651 421.796L835.074 421.047L835.981 420.78L836.515 420Z" fill="white" fill-opacity="0.6"/>
<path d="M184.581 41L185.139 41.8137L186.085 42.0927L185.484 42.8745L185.511 43.8607L184.581 43.5302L183.652 43.8607L183.679 42.8745L183.077 42.0927L184.024 41.8137L184.581 41Z" fill="white" fill-opacity="0.5"/>
<path d="M552.047 103L552.416 103.539L553.042 103.723L552.644 104.241L552.662 104.894L552.047 104.675L551.431 104.894L551.449 104.241L551.051 103.723L551.678 103.539L552.047 103Z" fill="white" fill-opacity="0.5"/>
<path d="M1140.86 584L1141.52 584.958L1142.63 585.286L1141.92 586.206L1141.96 587.367L1140.86 586.978L1139.77 587.367L1139.8 586.206L1139.09 585.286L1140.2 584.958L1140.86 584Z" fill="white" fill-opacity="0.5"/>
<path d="M861.811 624L862.098 624.418L862.583 624.561L862.274 624.962L862.288 625.468L861.811 625.298L861.334 625.468L861.348 624.962L861.04 624.561L861.525 624.418L861.811 624Z" fill="white" fill-opacity="0.4"/>
<path d="M269.168 274L269.58 274.601L270.279 274.807L269.834 275.384L269.854 276.113L269.168 275.869L268.481 276.113L268.501 275.384L268.057 274.807L268.756 274.601L269.168 274Z" fill="white" fill-opacity="0.3"/>
<path d="M873.57 387L873.772 387.294L874.113 387.394L873.896 387.676L873.906 388.032L873.57 387.913L873.235 388.032L873.245 387.676L873.028 387.394L873.369 387.294L873.57 387Z" fill="white" fill-opacity="0.3"/>
<path d="M263.106 23L263.496 23.5691L264.158 23.7642L263.737 24.311L263.756 25.0007L263.106 24.7695L262.456 25.0007L262.475 24.311L262.054 23.7642L262.716 23.5691L263.106 23Z" fill="white" fill-opacity="0.4"/>
<path d="M593.916 743L594.24 743.472L594.788 743.633L594.439 744.086L594.455 744.658L593.916 744.466L593.378 744.658L593.393 744.086L593.045 743.633L593.593 743.472L593.916 743Z" fill="white" fill-opacity="0.4"/>
<path d="M1247.69 637L1247.94 637.357L1248.35 637.479L1248.09 637.822L1248.1 638.254L1247.69 638.109L1247.29 638.254L1247.3 637.822L1247.03 637.479L1247.45 637.357L1247.69 637Z" fill="white" fill-opacity="0.4"/>
<path d="M977.757 674L978.024 674.39L978.477 674.523L978.189 674.898L978.202 675.37L977.757 675.211L977.312 675.37L977.325 674.898L977.037 674.523L977.49 674.39L977.757 674Z" fill="white" fill-opacity="0.4"/>
<path d="M19.0058 56L19.3605 56.5176L19.9623 56.695L19.5797 57.1922L19.5969 57.8194L19.0058 57.6092L18.4146 57.8194L18.4318 57.1922L18.0492 56.695L18.6511 56.5176L19.0058 56Z" fill="white" fill-opacity="0.4"/>
<path d="M883.9 492L884.57 492.978L885.707 493.313L884.984 494.252L885.017 495.437L883.9 495.04L882.783 495.437L882.816 494.252L882.093 493.313L883.23 492.978L883.9 492Z" fill="white" fill-opacity="0.4"/>
<path d="M301.716 93L302.321 93.8829L303.348 94.1856L302.695 95.0339L302.724 96.1039L301.716 95.7453L300.707 96.1039L300.737 95.0339L300.084 94.1856L301.111 93.8829L301.716 93Z" fill="white" fill-opacity="0.4"/>
<path d="M659.308 357L659.769 357.673L660.551 357.904L660.054 358.55L660.076 359.366L659.308 359.092L658.539 359.366L658.561 358.55L658.064 357.904L658.847 357.673L659.308 357Z" fill="white" fill-opacity="0.5"/>
<path d="M228.93 411L229.259 411.479L229.815 411.643L229.461 412.103L229.477 412.683L228.93 412.489L228.384 412.683L228.399 412.103L228.046 411.643L228.602 411.479L228.93 411Z" fill="white" fill-opacity="0.5"/>
<path d="M1342.33 249L1342.8 249.685L1343.6 249.92L1343.09 250.578L1343.11 251.408L1342.33 251.13L1341.55 251.408L1341.57 250.578L1341.07 249.92L1341.86 249.685L1342.33 249Z" fill="white" fill-opacity="0.5"/>
<path d="M1272.8 687L1273.44 687.928L1274.52 688.246L1273.83 689.137L1273.86 690.262L1272.8 689.885L1271.74 690.262L1271.77 689.137L1271.09 688.246L1272.17 687.928L1272.8 687Z" fill="white" fill-opacity="0.5"/>
<path d="M1017.06 325L1017.43 325.544L1018.06 325.73L1017.66 326.253L1017.68 326.912L1017.06 326.691L1016.44 326.912L1016.45 326.253L1016.05 325.73L1016.68 325.544L1017.06 325Z" fill="white" fill-opacity="0.4"/>
<path d="M886.947 184L887.281 184.487L887.847 184.654L887.487 185.122L887.503 185.713L886.947 185.515L886.39 185.713L886.406 185.122L886.046 184.654L886.613 184.487L886.947 184Z" fill="white" fill-opacity="0.5"/>
<path d="M268.934 67L269.263 67.4804L269.821 67.645L269.466 68.1066L269.482 68.6887L268.934 68.4936L268.385 68.6887L268.401 68.1066L268.046 67.645L268.604 67.4804L268.934 67Z" fill="white" fill-opacity="0.5"/>
<path d="M831.644 338L832.224 338.846L833.207 339.136L832.582 339.949L832.61 340.974L831.644 340.63L830.678 340.974L830.706 339.949L830.08 339.136L831.064 338.846L831.644 338Z" fill="white" fill-opacity="0.4"/>
<path d="M752.679 47L752.918 47.3494L753.325 47.4692L753.066 47.8049L753.078 48.2284L752.679 48.0864L752.28 48.2284L752.292 47.8049L752.033 47.4692L752.44 47.3494L752.679 47Z" fill="white" fill-opacity="0.5"/>
<path d="M822.338 49L822.81 49.6888L823.611 49.9248L823.102 50.5866L823.125 51.4213L822.338 51.1415L821.552 51.4213L821.575 50.5866L821.066 49.9248L821.866 49.6888L822.338 49Z" fill="white" fill-opacity="0.4"/>
<path d="M459.323 641L459.789 641.681L460.581 641.914L460.078 642.568L460.1 643.393L459.323 643.117L458.545 643.393L458.568 642.568L458.065 641.914L458.856 641.681L459.323 641Z" fill="white" fill-opacity="0.5"/>
<path d="M769.284 37L769.737 37.661L770.506 37.8875L770.017 38.5226L770.039 39.3236L769.284 39.0551L768.529 39.3236L768.552 38.5226L768.063 37.8875L768.831 37.661L769.284 37Z" fill="white" fill-opacity="0.6"/>
<path d="M1200.41 506L1200.91 506.726L1201.75 506.975L1201.22 507.673L1201.24 508.552L1200.41 508.257L1199.58 508.552L1199.61 507.673L1199.07 506.975L1199.91 506.726L1200.41 506Z" fill="white" fill-opacity="0.6"/>
<path d="M467.797 550L468.431 550.925L469.506 551.242L468.823 552.13L468.853 553.251L467.797 552.875L466.741 553.251L466.772 552.13L466.088 551.242L467.163 550.925L467.797 550Z" fill="white" fill-opacity="0.4"/>
<path d="M1235.82 42L1236.47 42.939L1237.56 43.2609L1236.87 44.1631L1236.9 45.301L1235.82 44.9196L1234.75 45.301L1234.78 44.1631L1234.09 43.2609L1235.18 42.939L1235.82 42Z" fill="white" fill-opacity="0.5"/>
<path d="M83.8154 289L84.4557 289.934L85.542 290.254L84.8514 291.152L84.8825 292.284L83.8154 291.905L82.7483 292.284L82.7795 291.152L82.0889 290.254L83.1752 289.934L83.8154 289Z" fill="white" fill-opacity="0.4"/>
<path d="M777.496 514L778.023 514.77L778.918 515.033L778.349 515.773L778.375 516.706L777.496 516.393L776.616 516.706L776.642 515.773L776.073 515.033L776.968 514.77L777.496 514Z" fill="white" fill-opacity="0.4"/>
<path d="M11.7123 186L12.3162 186.881L13.3408 187.183L12.6894 188.03L12.7188 189.098L11.7123 188.74L10.7058 189.098L10.7352 188.03L10.0838 187.183L11.1084 186.881L11.7123 186Z" fill="white" fill-opacity="0.4"/>
<path d="M241.776 373L242.05 373.399L242.514 373.536L242.219 373.92L242.232 374.404L241.776 374.242L241.32 374.404L241.333 373.92L241.038 373.536L241.502 373.399L241.776 373Z" fill="white" fill-opacity="0.6"/>
</svg>
