<svg width="137" height="32" viewBox="0 0 137 32" fill="none" xmlns="http://www.w3.org/2000/svg">
<path fill-rule="evenodd" clip-rule="evenodd" d="M32 16C32 7.16344 24.8366 0 16 0C7.16344 0 0 7.16344 0 16C0 24.8366 7.16344 32 16 32C24.8366 32 32 24.8366 32 16ZM2.04088 11.2404C1.77317 12.0501 1.58024 12.877 1.47158 13.7408C1.39086 14.2785 1.34525 14.8029 1.32751 15.3279C1.29385 16.3242 1.36628 17.3165 1.52372 18.2997C1.66258 19.1668 1.86217 20.0218 2.16763 20.848C2.25336 21.0799 2.26485 21.0881 2.46415 20.9692C2.76456 20.79 3.0223 20.8171 3.2738 21.0655C3.50532 21.2941 3.78695 21.3171 4.09031 21.2191C4.22191 21.1766 4.32669 21.0976 4.43236 21.018C4.45562 21.0005 4.47897 20.9829 4.50261 20.9657C4.80959 20.7422 5.10225 20.8029 5.28491 21.1317C5.49096 21.5027 5.72197 21.856 5.997 22.1795C6.06545 22.26 6.13638 22.3384 6.20665 22.4161C6.26258 22.478 6.27035 22.577 6.19458 22.6118C6.16885 22.6236 6.14258 22.6316 6.11714 22.6394L6.10848 22.642C5.74354 22.754 5.42113 22.699 5.14245 22.4145C4.87934 22.146 4.81884 22.1493 4.51296 22.3662C4.50741 22.3702 4.50198 22.3743 4.49656 22.3784C4.49161 22.3822 4.48666 22.3859 4.48162 22.3895C4.05409 22.6963 3.65074 22.7066 3.21585 22.4226C3.2054 22.4158 3.19501 22.4086 3.18459 22.4013C3.15182 22.3785 3.11876 22.3555 3.08232 22.344C3.00693 22.3202 2.92131 22.3133 2.86335 22.3775C2.81544 22.4305 2.85011 22.484 2.88075 22.5312C2.88594 22.5392 2.89101 22.5471 2.89554 22.5547C2.98687 22.7079 3.08057 22.8597 3.17427 23.0115C3.21725 23.0811 3.26032 23.1509 3.30306 23.2206C3.42676 23.4225 3.57452 23.603 3.77201 23.737C4.13414 23.9829 4.48325 23.9631 4.80662 23.6815C5.1381 23.3928 5.28705 23.3891 5.6431 23.6603C6.0534 23.9729 6.43445 23.9599 6.82472 23.6177L6.84413 23.6006C6.90133 23.5499 6.9583 23.4995 7.03173 23.4742C7.15803 23.4308 7.29372 23.4972 7.29544 23.6169C7.3001 23.9404 7.29936 24.264 7.2986 24.5995C7.29816 24.7942 7.09719 24.9235 6.9146 24.9911C6.85109 25.0147 6.79093 25.0506 6.73254 25.0982C6.3015 25.449 5.98778 25.4488 5.54324 25.1106C5.30981 24.933 5.20977 24.9253 4.95926 25.0727C4.89298 25.1118 4.82843 25.1537 4.75849 25.1992C4.70301 25.2352 4.69113 25.312 4.73352 25.3629C4.75528 25.389 4.77673 25.4147 4.79795 25.4402C4.89509 25.5569 4.98746 25.6679 5.08221 25.7765C7.75304 28.8381 11.1151 30.527 15.1655 30.832C16.4376 30.9279 17.6993 30.7985 18.9454 30.5402C20.3828 30.2423 21.7323 29.7075 23.0097 28.9847C24.5851 28.0932 25.9371 26.9355 27.1119 25.5653C27.322 25.3202 27.3151 25.3144 27.0713 25.1109L27.0569 25.0988C26.9991 25.0505 26.9387 25.0051 26.8776 24.9593C26.7855 24.8901 26.6921 24.8199 26.6045 24.7374C26.545 24.6813 26.5595 24.5864 26.6293 24.5437C26.7207 24.4878 26.8067 24.4351 26.8889 24.3773C27.0904 24.2356 27.2862 24.2501 27.4911 24.37C27.823 24.5643 27.8251 24.5621 28.0614 24.2413C28.1959 24.0585 28.3287 23.8746 28.443 23.6796C28.4867 23.6051 28.4564 23.5097 28.3729 23.5319C28.3597 23.5353 28.3466 23.5388 28.3335 23.5407C28.0468 23.5832 27.7803 23.551 27.5393 23.3655C27.1984 23.1032 27.1769 23.1063 26.8403 23.3857C26.5938 23.5904 26.3207 23.6987 25.9955 23.6683C25.7232 23.6428 25.3485 23.3739 25.3387 23.1647C25.3288 22.9531 25.3326 22.7409 25.3365 22.5287C25.3376 22.4674 25.3387 22.4061 25.3395 22.3449C25.34 22.305 25.3476 22.2609 25.4022 22.2421C25.4133 22.2382 25.4254 22.2411 25.4349 22.248L25.4535 22.2612C25.4802 22.2801 25.5092 22.3007 25.5364 22.3234C25.9852 22.6976 26.3791 22.7028 26.8394 22.3395C27.1623 22.0848 27.2509 22.0791 27.6089 22.2902C28.0763 22.5658 28.3527 22.5418 28.7587 22.1885C28.8787 22.0841 29.0019 21.989 29.1748 22.0103C29.2671 22.0216 29.3207 21.9767 29.3558 21.8963C29.4067 21.7793 29.4585 21.6626 29.5103 21.5459C29.5429 21.4724 29.5755 21.3988 29.608 21.3252C29.6293 21.2767 29.6461 21.2296 29.6018 21.1813C29.4138 20.9761 28.9827 20.9566 28.7905 21.1542C28.4411 21.5133 27.8209 21.5492 27.4836 21.2206C27.2884 21.0305 27.1972 21.0445 26.9714 21.2114C26.9482 21.2285 26.9258 21.2468 26.9035 21.265C26.8702 21.292 26.837 21.3191 26.8013 21.3424C26.4662 21.562 26.2683 21.1522 26.4819 20.8132C26.4884 20.8029 26.4949 20.7925 26.5015 20.7822C26.5921 20.6382 26.6821 20.4954 26.7796 20.3579C26.9925 20.0577 27.2958 20.0294 27.5487 20.2042C28.056 20.5548 28.303 20.5395 28.7526 20.1258C28.8826 20.0063 29.0264 19.9529 29.199 20.0152C29.2467 20.0325 29.2938 20.0516 29.341 20.0707C29.4204 20.1029 29.5002 20.1353 29.5821 20.1586C29.6686 20.1831 29.7368 20.2073 29.7916 20.2266C29.8853 20.2598 29.9394 20.2789 29.9781 20.2623C30.0309 20.2395 30.055 20.1499 30.1119 19.9379L30.1301 19.8704C30.3971 18.8834 30.5373 17.8773 30.6186 16.8576C30.6975 15.867 30.6719 14.8817 30.5562 13.9001C30.4212 12.7549 30.1332 11.6419 29.7281 10.5619C29.1965 9.14461 28.4551 7.84408 27.5386 6.63976C26.6003 5.40684 25.5016 4.34343 24.2202 3.47357C23.0566 2.68372 21.808 2.06469 20.4684 1.62621C19.1441 1.19272 17.7855 0.967366 16.3975 0.904849C15.8515 0.880255 15.3071 0.9214 14.7625 0.967186C13.8738 1.0419 12.9944 1.17838 12.1399 1.42737C9.64784 2.15349 7.47786 3.42536 5.65923 5.29024C3.9946 6.99721 2.78876 8.97843 2.04088 11.2404ZM11.2083 21.0942C11.2017 21.164 11.127 21.2019 11.0691 21.1623C10.8423 21.0074 10.6878 20.8017 10.5392 20.5899C10.438 20.4196 10.3503 20.2718 10.246 20.0961L10.2376 20.0819C10.236 20.0791 10.2319 20.0795 10.2308 20.0825C10.1822 20.2117 10.1726 20.3297 10.1626 20.4515C10.1555 20.539 10.0546 20.5708 10.0018 20.5007C9.83797 20.2832 9.73621 20.0453 9.63544 19.8098C9.63166 19.801 9.62789 19.7922 9.62411 19.7833C9.58306 19.6875 9.47188 19.6605 9.44939 19.7624C9.43389 19.8326 9.35485 19.8344 9.31867 19.7723C9.1997 19.568 9.11486 19.3538 9.042 19.1169C9.01587 19.0319 9.09557 18.9538 9.18083 18.979C9.30523 19.0159 9.41549 19.0486 9.52593 19.0807C9.96189 19.2076 10.4042 19.1619 10.8434 19.1151C11.2993 19.0666 11.7209 19.1804 12.1333 19.3484C12.6885 19.5747 13.2479 19.7811 13.8502 19.8461C14.4684 19.9129 15.055 19.8102 15.6127 19.5379C15.6301 19.5293 15.6454 19.5164 15.6663 19.4987C15.6864 19.4817 15.6846 19.4497 15.6615 19.4371C15.5378 19.3701 15.4101 19.3425 15.2861 19.3157C15.2513 19.3081 15.2165 19.3006 15.1824 19.2924C14.9435 19.2345 14.7007 19.1965 14.4578 19.1586C14.1624 19.1124 13.8668 19.0662 13.5779 18.9841C13.0478 18.8334 12.5491 18.6215 12.1011 18.2952C11.7643 18.0499 11.5657 17.7435 11.5785 17.3082C11.588 16.984 11.7235 16.7575 12.0181 16.6367C12.1183 16.5957 12.2221 16.5632 12.3259 16.5308C12.4395 16.4953 12.553 16.4597 12.6618 16.413C13.1889 16.1863 13.3891 15.7099 13.1792 15.2192C13.1013 15.0371 12.9674 14.9032 12.7983 14.8141C12.1732 14.4846 11.5108 14.3609 10.8192 14.5375C10.4133 14.6412 10.0762 14.8577 9.95391 15.2986C9.8482 15.6797 9.97772 16.0142 10.31 16.2281C10.339 16.2468 10.3686 16.2647 10.3982 16.2826C10.4522 16.3153 10.5062 16.3481 10.5568 16.3854C11.0717 16.7653 11.1067 17.0875 11.0231 17.669C10.977 17.989 10.7159 18.1405 10.4462 18.2538C9.86545 18.4977 9.27984 18.4697 8.69907 18.2497C8.66835 18.2381 8.63645 18.2286 8.60436 18.219C8.57792 18.211 8.55135 18.2031 8.5252 18.1939C8.4213 18.1574 8.40686 18.0357 8.49965 17.9763C8.52542 17.9599 8.55092 17.9436 8.57357 17.924C8.66784 17.8423 8.71211 17.7517 8.63138 17.6353C8.55457 17.5245 8.45323 17.5108 8.34059 17.5688C8.03195 17.7277 7.80177 17.9741 7.59731 18.2474C7.36423 18.5589 7.21631 18.9116 7.10507 19.2813C7.10336 19.287 7.10189 19.2928 7.10042 19.2986C7.08563 19.3569 7.01842 19.335 7.00125 19.2774C6.93761 19.0638 6.97258 18.8466 7.02217 18.636C7.19535 17.9008 7.64134 17.4057 8.36243 17.1654C8.37284 17.162 8.38331 17.1586 8.39379 17.1552C8.43295 17.1427 8.47225 17.13 8.50874 17.1119C8.58861 17.0724 8.65627 17.0172 8.62941 16.9149C8.60211 16.8109 8.53778 16.7411 8.42007 16.7494C8.22901 16.7628 8.05333 16.8317 7.87991 16.9068C7.47099 17.0838 7.14455 17.3695 6.8465 17.6924C6.76825 17.7772 6.69022 17.8621 6.60282 17.9573L6.59948 17.9609C6.55598 18.0083 6.48045 17.9728 6.49382 17.9099C6.58288 17.4909 6.79042 17.184 7.07065 16.9411C7.31641 16.7281 7.26741 16.4475 6.95973 16.5528C6.85689 16.588 6.75825 16.5026 6.79347 16.3997C6.86429 16.193 6.98495 16.0175 7.10972 15.8361C7.1103 15.8352 7.10993 15.8341 7.10897 15.8337C7.02517 15.8009 6.9571 15.829 6.89186 15.8559C6.87707 15.862 6.86243 15.868 6.84779 15.8733C6.79492 15.8923 6.74951 15.841 6.76967 15.7885C6.80083 15.7075 6.88036 15.645 7.18759 15.4038C7.18759 15.4038 7.18759 15.4038 7.18759 15.4038C7.10437 15.1971 7.2156 15.0391 7.32429 14.8848L7.34071 14.8614C7.60453 14.4846 7.98006 14.2576 8.39921 14.0928C8.40829 14.0893 8.41792 14.0869 8.42769 14.0845C8.48749 14.0697 8.50267 13.9929 8.45462 13.9544C8.42391 13.9297 8.3843 13.9162 8.34466 13.9027C8.29188 13.8847 8.23904 13.8667 8.20701 13.8224C8.2009 13.8139 8.19952 13.8031 8.20106 13.7927C8.20272 13.7816 8.20425 13.7713 8.20751 13.7707C8.43255 13.7305 8.46307 13.5688 8.49413 13.4043C8.50181 13.3636 8.50952 13.3228 8.5202 13.2835C8.78422 12.3145 9.30199 11.501 10.0528 10.838C10.5375 10.41 11.0833 10.0909 11.7278 9.96504C11.9651 9.9187 12.2029 9.93983 12.4534 9.96211C12.4565 9.96239 12.4593 9.96042 12.4601 9.95744C12.4936 9.83247 12.4624 9.71468 12.4303 9.59355C12.3896 9.43965 12.5401 9.3434 12.6443 9.46372C12.7487 9.58414 12.8154 9.73579 12.8875 9.89948C12.8876 9.8997 12.8879 9.89979 12.8881 9.89967C13.7234 9.43238 14.5951 9.26806 15.5082 9.43564C15.6666 9.4647 15.6996 9.66288 15.5643 9.75014C15.4624 9.81585 15.3595 9.8822 15.2557 9.95272C15.1403 10.0312 15.0444 9.95128 15.1474 9.85717C15.2106 9.79943 15.1805 9.70937 15.0959 9.72269C14.8942 9.75445 14.6325 9.90669 14.3525 10.1535C14.1617 10.3218 14.0183 10.5266 13.8739 10.7329C13.8253 10.8022 13.7317 10.7661 13.7534 10.6843C13.7833 10.5718 13.8264 10.4648 13.8796 10.3617C13.9604 10.2053 13.8384 10.0271 13.6882 10.1189C13.5166 10.2239 13.3696 10.3641 13.2373 10.5282C13.146 10.6414 12.985 10.6365 12.9539 10.4945C12.9417 10.4388 12.9298 10.3848 12.9076 10.3346C12.9005 10.3186 12.8944 10.3011 12.8882 10.2833C12.8652 10.2174 12.8413 10.1487 12.7626 10.1458C12.6794 10.1427 12.6581 10.2123 12.6381 10.2778C12.6324 10.2964 12.6268 10.3147 12.6199 10.3309C12.5844 10.4145 12.5693 10.5038 12.5535 10.597C12.5274 10.7507 12.3501 10.7564 12.2574 10.6311C12.1127 10.4355 11.925 10.3036 11.6521 10.2777C11.5876 10.2716 11.5475 10.3407 11.5785 10.3976C11.6271 10.4869 11.6715 10.5685 11.7141 10.6506C11.75 10.7198 11.7857 10.79 11.8123 10.8631C11.9395 11.2125 11.9085 11.2643 11.5467 11.3032C11.2543 11.3347 11.3055 11.6658 11.484 11.8994C11.6031 12.0551 11.66 12.2522 11.6513 12.4923C11.6387 12.8402 11.5047 13.136 11.2516 13.372C11.1906 13.4289 11.0907 13.4008 11.1308 13.3276C11.1352 13.3196 11.1396 13.3117 11.1431 13.3037C11.2964 12.9552 11.1401 12.609 10.778 12.4963C10.3084 12.3501 9.80301 12.5644 9.53038 13.0257C9.43515 13.1869 9.36939 13.3603 9.3046 13.5313C9.29091 13.5674 9.27726 13.6034 9.26339 13.6391C9.23986 13.6997 9.24487 13.7813 9.30906 13.7709C9.36951 13.761 9.39404 13.8283 9.40587 13.8884C9.43644 14.0436 9.50602 14.1952 9.61561 14.3273C9.68038 14.4053 9.65453 14.4625 9.61185 14.5358C9.52273 14.6889 9.41962 14.8284 9.30164 14.9544C9.17362 15.0912 9.24451 15.254 9.37843 15.123C9.44303 15.0598 9.50681 14.9957 9.57059 14.9316C9.68593 14.8157 9.80126 14.6998 9.92141 14.5891C10.6215 13.9444 11.455 13.8809 12.3344 14.0584C13.216 14.2364 13.8835 14.7677 14.4879 15.3968C15.0225 15.9533 15.6705 16.277 16.4421 16.3519C16.6964 16.3766 16.9501 16.4074 17.2038 16.4382C17.3237 16.4528 17.4437 16.4674 17.5637 16.4813C17.5721 16.4822 17.5806 16.4839 17.5891 16.4856C17.6604 16.4997 17.69 16.408 17.6281 16.3699C17.6163 16.3627 17.6038 16.3563 17.5913 16.3498C17.5753 16.3416 17.5593 16.3333 17.5451 16.3235C16.9107 15.8851 16.2941 15.4258 15.8809 14.7557C15.5241 14.1773 15.4951 13.5737 15.829 12.9783C16.1565 12.3943 16.6858 12.1413 17.3427 12.1623C18.1734 12.1888 18.7291 12.6565 19.1383 13.3332C19.4089 13.7809 19.533 14.2809 19.5963 14.7931C19.6161 14.9532 19.6763 15.0037 19.8203 15.0194C19.9322 15.0317 20.0388 15.061 20.1431 15.105C20.2511 15.1506 20.2537 15.2828 20.1448 15.3262C20.0087 15.3805 20.046 15.5368 20.1868 15.5773C20.9388 15.7934 21.5448 16.1943 21.9707 16.8344C22.051 16.955 21.9438 17.0844 21.8103 17.028C21.6563 16.9629 21.5456 17.1248 21.6398 17.263C21.7463 17.4192 21.842 17.5776 21.9215 17.7417C22.0761 18.0613 21.7053 18.2442 21.4192 18.0339C21.3302 17.9685 21.2386 17.907 21.1442 17.8502C20.845 17.6703 20.5974 18.0314 20.7389 18.3506C20.7762 18.4346 20.8097 18.5207 20.8391 18.6093C20.9199 18.8523 20.6193 18.9761 20.4265 18.8077C20.2144 18.6225 20.0155 18.8704 20.1546 19.1152C20.4456 19.6275 20.635 20.1777 20.6088 20.8117C20.6068 20.86 20.5438 20.8705 20.5247 20.8261C20.4732 20.7068 20.4218 20.5876 20.3692 20.4688C20.0338 19.7121 19.6149 19.0131 18.9809 18.4629C18.8381 18.3389 18.6915 18.2186 18.5237 18.1309L18.5104 18.1238L18.4989 18.1177C18.3987 18.064 18.2849 18.0031 18.1951 18.1368C18.0994 18.2792 18.1904 18.3774 18.3012 18.4645C18.4101 18.5502 18.5167 18.6388 18.6233 18.7274L18.6787 18.7735C18.9471 18.9964 19.1547 19.2716 19.3469 19.559C19.4632 19.7329 19.442 19.8054 19.2388 19.836C19.0519 19.8641 19.0503 19.9503 19.0792 20.1034C19.1545 20.5026 19.1682 20.9043 19.0539 21.3009C19.0382 21.3555 19.0191 21.4091 18.9947 21.4775L18.9944 21.4782C18.9831 21.51 18.9366 21.5056 18.9319 21.4721C18.9166 21.3626 18.9032 21.2557 18.89 21.151C18.8499 20.8333 18.8123 20.5351 18.7347 20.2428C18.4415 19.1388 17.7676 18.3629 16.7349 17.8896C16.6098 17.8323 16.486 17.8167 16.4158 17.9599C16.3395 18.1155 16.4412 18.1976 16.5692 18.2636C17.2544 18.6168 17.7855 19.1286 18.1405 19.8152C18.1475 19.8286 18.155 19.8422 18.1627 19.8559C18.2218 19.9624 18.2851 20.0765 18.0999 20.1719C18.0311 20.2074 18.0543 20.282 18.0752 20.3491C18.0815 20.3693 18.0876 20.3889 18.0909 20.4066C18.1734 20.8489 18.152 21.2853 18.0385 21.7187C18.0323 21.7421 18.022 21.7644 18.0082 21.7943C17.9971 21.8182 17.9637 21.8197 17.9531 21.7956C17.9019 21.6788 17.8953 21.5627 17.889 21.4512C17.8863 21.4039 17.8837 21.3574 17.8777 21.3121C17.7848 20.606 17.5975 19.9384 17.1695 19.3543C16.9717 19.0843 16.7468 18.843 16.47 18.6529C16.3618 18.5786 16.2456 18.5257 16.1417 18.6519C16.0383 18.7774 16.1286 18.8742 16.2159 18.9536C16.5559 19.2626 16.85 19.6073 17.0677 20.0137L17.0826 20.0414C17.1783 20.2184 17.0686 20.412 16.8713 20.4515C16.7663 20.4725 16.6611 20.4873 16.5559 20.4967C16.3864 20.5119 16.3521 20.5662 16.3792 20.7291C16.4321 21.0479 16.3947 21.3507 16.2637 21.6564C16.2171 21.765 16.0737 21.7355 16.062 21.618C16.055 21.5482 16.0481 21.4793 16.0402 21.4113C15.9936 21.0075 15.5355 20.8014 15.1378 20.7174C15.1186 20.7133 15.0993 20.7093 15.08 20.7053C14.9501 20.6784 14.8605 20.8001 14.924 20.9166C15.0613 21.1681 14.8654 21.425 14.5886 21.3508C14.3901 21.2976 14.2029 21.2071 14.0141 21.1158C13.8596 21.0411 13.6992 21.1523 13.7484 21.3167C13.7569 21.3451 13.7659 21.3733 13.7748 21.4016C13.8512 21.6441 13.6374 21.8309 13.4022 21.7344C13.0371 21.5845 12.7211 21.3449 12.3939 21.0965C12.3364 21.0529 12.2554 21.0899 12.2605 21.1619C12.2711 21.3115 12.311 21.4505 12.3512 21.5906C12.3894 21.7234 12.2571 21.8213 12.144 21.742C11.8777 21.5553 11.6619 21.328 11.483 21.0571C11.3962 20.9259 11.2229 20.9375 11.2083 21.0942ZM16.2563 5.73921C16.1564 5.72783 16.0565 5.71644 15.957 5.70347C14.7214 5.6112 13.5444 5.74459 12.3969 6.09439C10.7739 6.58913 9.35476 7.42552 8.16983 8.65376C7.34562 9.5081 6.64412 10.4487 6.1038 11.5042C5.66295 12.3654 5.35884 13.2741 5.22561 14.2376C5.00337 15.8447 5.26515 17.3812 5.88004 18.8692C5.88324 18.8769 5.88762 18.8845 5.89212 18.8923C5.9152 18.9323 5.86935 18.9451 5.84141 18.9083C5.46362 18.4105 5.22894 17.8506 5.06426 17.2594C4.65528 15.7911 4.7149 14.3286 5.17693 12.8856C5.64984 11.4087 6.30184 10.0151 7.22804 8.76233C8.20212 7.44478 9.37272 6.34089 10.7889 5.50324C12.0501 4.75725 13.4088 4.29632 14.8605 4.13368C15.8385 4.02411 16.819 4.05176 17.7932 4.22682C19.689 4.56746 21.3942 5.32789 22.8881 6.54328C24.8724 8.15771 26.2196 10.1891 26.8473 12.6815C26.8608 12.7353 26.8737 12.7892 26.8744 12.8483C26.8753 12.925 26.7887 12.9595 26.7197 12.9263C26.532 12.8359 26.3608 12.7535 26.2812 12.4828C25.8129 10.8891 24.9894 9.49168 23.8388 8.29078C23.1724 7.59531 22.4281 7.00168 21.5667 6.56083C21.0397 6.29109 20.4822 6.12703 19.8964 6.05465C19.8725 6.0517 19.848 6.05427 19.8186 6.05736C19.7931 6.06003 19.7762 6.08612 19.7893 6.10809C19.8258 6.16907 19.8817 6.20075 19.9345 6.23072C19.9518 6.24049 19.9687 6.25008 19.9845 6.26044C20.875 6.84404 21.7116 7.49316 22.4286 8.28472C23.3495 9.30126 23.886 10.5041 24.1298 11.8454C24.1343 11.8705 24.1346 11.8964 24.1349 11.9222C24.1349 11.929 24.135 11.9359 24.1352 11.9428C24.1357 11.9687 24.1356 11.9947 24.1355 12.0248C24.1354 12.049 24.1135 12.0678 24.0909 12.0591C24.0344 12.0371 24.0026 11.9944 23.9718 11.9532C23.9648 11.9438 23.9578 11.9344 23.9507 11.9254C23.551 11.4249 23.0998 10.976 22.6017 10.5739C22.5663 10.5454 22.53 10.5174 22.4917 10.493C22.378 10.4208 22.2672 10.4275 22.1719 10.5229C22.08 10.6148 22.0779 10.7268 22.1537 10.8245C22.2268 10.9188 22.3046 11.0096 22.3824 11.1003C22.4442 11.1724 22.5062 11.2447 22.5657 11.3186C22.7243 11.5156 22.8776 11.7164 22.9946 11.9281C23.0241 11.9815 22.9616 12.0269 22.9163 11.986C22.7759 11.8591 22.6314 11.7285 22.4956 11.5895C21.1869 10.2501 19.6267 9.32595 17.8599 8.72257C16.5208 8.26527 15.1444 8.11543 13.7464 8.20722C12.2672 8.30435 10.8563 8.67388 9.62318 9.54206C8.89321 10.056 8.30248 10.7138 7.79022 11.445C7.23129 12.2428 6.84745 13.12 6.56685 14.0473C6.54248 14.1279 6.51387 14.2085 6.47593 14.2833C6.40891 14.4155 6.301 14.51 6.14794 14.4685C5.98445 14.4242 5.9041 14.2877 5.92374 14.1228C5.94275 13.9632 5.98788 13.8056 6.03238 13.6502L6.03269 13.649C6.54673 11.8537 7.53373 10.4015 9.13459 9.40102C9.57125 9.12814 10.036 8.90824 10.5221 8.73538L10.5558 8.72354C10.6308 8.69732 10.707 8.67065 10.7723 8.62832C10.9449 8.51621 10.9257 8.29297 10.7396 8.20848C10.6369 8.16185 10.5291 8.1454 10.4165 8.18029C10.1883 8.251 10.0758 8.031 10.2801 7.90718C10.3001 7.89504 10.3202 7.88297 10.3403 7.87096C11.4938 7.18105 12.7335 6.72715 14.0746 6.59054C16.6446 6.32875 18.9223 7.045 20.9138 8.6823C21.043 8.78853 21.1672 8.9008 21.2914 9.01308C21.4183 9.12772 21.5451 9.24236 21.6773 9.35056C21.9248 9.55323 22.2381 9.43369 22.3082 9.12473C22.3372 8.99705 22.285 8.89576 22.2141 8.79965C21.9686 8.46706 21.6597 8.19457 21.3491 7.92901C20.0589 6.82611 18.564 6.14727 16.9025 5.82937C16.6892 5.78854 16.4727 5.76388 16.2563 5.73921ZM15.6556 27.8365C15.778 27.8448 15.7297 27.965 15.6153 28.0092C14.9363 28.2716 14.2413 28.3813 13.5336 28.4325C13.4905 28.4356 13.4473 28.4385 13.4041 28.4415C13.2528 28.4518 13.1014 28.4621 12.951 28.4802C12.8087 28.4974 12.6742 28.5526 12.6604 28.7188C12.6467 28.8841 12.77 28.9671 12.9062 29.0039C13.2713 29.1025 13.6484 29.1314 14.0237 29.1583C15.0678 29.2332 16.1014 29.1238 17.129 28.9514C18.1167 28.7857 19.0875 28.544 20.0509 28.2718C20.2691 28.2101 20.4273 28.2553 20.4915 28.3977C20.5566 28.542 20.4883 28.6915 20.2797 28.8035C19.3578 29.2982 18.3946 29.6756 17.3539 29.8391C16.2916 30.0061 15.2318 29.9678 14.1684 29.8484C12.6756 29.6806 11.2746 29.225 9.95618 28.5176C9.08185 28.0485 8.2691 27.4882 7.56945 26.7745C7.44647 26.649 7.4252 26.55 7.53485 26.4091C7.70249 26.1936 7.86027 25.9702 8.01736 25.7467C8.09056 25.6426 8.15861 25.6432 8.25889 25.7146C9.65559 26.7097 11.2376 27.2301 12.9077 27.525C13.8174 27.6856 14.7349 27.7747 15.6556 27.8365ZM16.7866 25.802C16.8114 25.8017 16.8362 25.8014 16.861 25.8008C18.175 25.681 19.4369 25.4768 20.6644 25.0947C21.8947 24.7117 23.0628 24.1956 24.1152 23.4396C24.1291 23.4295 24.1429 23.4189 24.1568 23.4082C24.2816 23.3123 24.4272 23.4166 24.4227 23.5739C24.4173 23.762 24.3631 23.9377 24.2221 24.1009C23.7872 24.6041 23.2308 24.943 22.6575 25.2505C21.2263 26.0183 19.6872 26.4436 18.0856 26.6811C16.9468 26.85 15.8032 26.87 14.6608 26.8228C12.7973 26.7458 10.9995 26.3739 9.34908 25.4534C9.03605 25.2789 8.73392 25.0856 8.47934 24.8296C8.313 24.6622 8.19274 24.4763 8.18248 24.2481C8.17658 24.1169 8.29409 24.026 8.40552 24.0955C8.42055 24.1048 8.43543 24.1141 8.45039 24.1224C9.83488 24.8918 11.314 25.3869 12.8751 25.6349C14.1181 25.8324 15.3693 25.8993 16.6268 25.8072C16.6799 25.8034 16.7333 25.8027 16.7866 25.802ZM14.6181 24.486C14.0526 24.4801 13.489 24.4342 12.9272 24.3689C12.0616 24.2488 11.2405 24.0863 10.4414 23.8264C9.12468 23.3982 7.92221 22.7747 6.94224 21.772C6.75585 21.5814 7.04296 21.3495 7.26177 21.5019C7.31742 21.5407 7.37363 21.5787 7.43039 21.6162C8.64673 22.4188 9.98828 22.9165 11.405 23.221C12.5412 23.4652 13.6934 23.5562 14.8544 23.5319C15.8316 23.5115 16.7977 23.399 17.7492 23.1682C18.1273 23.0765 18.3819 23.1622 18.5413 23.4195C18.7272 23.7195 18.6088 24.0974 18.2814 24.232C18.035 24.3333 17.7735 24.3589 17.5129 24.3845C17.4443 24.3912 17.3757 24.3979 17.3075 24.406C16.4649 24.5061 15.6179 24.4969 14.7716 24.4877L14.6181 24.486ZM21.621 23.0098C22.9221 22.2542 24.09 21.3451 24.9663 20.1008C24.9753 20.087 24.981 20.0787 24.9849 20.0731C24.9891 20.067 24.991 20.0642 24.9925 20.0612C25.1013 19.8316 25.2498 19.7136 25.5221 19.8227C25.6194 19.8618 25.7241 19.8403 25.8377 19.817C25.9068 19.8028 25.9594 19.869 25.9294 19.9328C25.8199 20.1656 25.6766 20.3655 25.5345 20.5638L25.5317 20.5676C24.7024 21.7245 23.6292 22.5888 22.3464 23.1974C21.568 23.5667 20.756 23.8389 19.9167 24.0311C19.9042 24.0339 19.8918 24.0374 19.8794 24.041C19.8605 24.0464 19.8415 24.0518 19.8223 24.0548C19.6098 24.0878 19.5722 24.0544 19.6265 23.8484C19.7126 23.5221 19.6311 23.2323 19.4594 22.9569C19.3976 22.8577 19.4391 22.7269 19.5457 22.6791C21.2344 21.9225 22.5863 20.7946 23.579 19.2451C23.761 18.961 24.165 18.9372 24.3172 19.2383C24.3514 19.306 24.311 19.3606 24.273 19.412C24.2637 19.4246 24.2545 19.437 24.2466 19.4494C23.6959 20.3111 23.0316 21.0734 22.2389 21.7208C22.0152 21.9036 21.7872 22.0813 21.5592 22.259C21.4639 22.3333 21.3686 22.4076 21.2736 22.4822C21.1427 22.5851 21.0511 22.7064 21.1031 22.8839C21.146 23.0304 21.3089 23.1165 21.4589 23.0752C21.5148 23.0598 21.571 23.0388 21.621 23.0098ZM25.817 18.5173C25.5991 18.1827 25.5254 17.7996 25.488 17.4084C25.3923 16.4025 25.5122 15.4683 25.9637 14.5914C26.0536 14.4167 26.1655 14.2575 26.3124 14.1249C26.5724 13.8901 26.891 13.9003 27.1238 14.1623C27.3878 14.4597 27.5096 14.827 27.5678 15.2082C27.7015 16.0845 27.6217 16.9433 27.298 17.7741C27.1837 18.0674 27.0326 18.3408 26.8274 18.5792C26.4878 18.9736 26.0995 18.9511 25.817 18.5173ZM5.10926 11.1293C5.13114 11.1465 5.14893 11.1709 5.14739 11.1987C5.14373 11.2648 5.09348 11.2887 5.04934 11.3096C5.04075 11.3137 5.03239 11.3176 5.02465 11.3218C4.50942 11.5976 4.23663 12.0384 4.12462 12.5992C4.1222 12.6113 4.11988 12.6234 4.11754 12.6357C4.09016 12.7794 3.93709 12.7562 3.89696 12.6155C3.74808 12.0937 3.51114 11.6333 3.01612 11.3427C2.90427 11.2771 2.88652 11.1153 2.99557 11.0451C3.2367 10.8899 3.46843 10.7407 3.61665 10.4913C3.75056 10.2661 3.82029 10.0168 3.89003 9.76751C3.91588 9.67512 3.94172 9.58274 3.97083 9.49157C3.97639 9.47417 3.99404 9.46369 4.01201 9.46696C4.02605 9.46952 4.03733 9.48001 4.04087 9.49384C4.05388 9.54456 4.06678 9.5953 4.07969 9.64604L4.07981 9.64653L4.07994 9.64702C4.11242 9.77473 4.1449 9.90245 4.17898 10.0297C4.30662 10.5064 4.55853 10.8823 5.03198 11.0789C5.05989 11.0905 5.08458 11.1099 5.10926 11.1293ZM24.5956 18.3199C24.5661 18.3074 24.54 18.2876 24.5218 18.2612C24.3437 18.0018 24.2947 17.7172 24.2537 17.4405C24.1116 16.4798 24.1802 15.5349 24.5495 14.626C24.6996 14.2566 24.8873 13.9063 25.1757 13.6237C25.3372 13.4655 25.5235 13.3472 25.7682 13.3985L25.7706 13.399C25.8089 13.407 25.8511 13.4158 25.8724 13.4641C25.8769 13.4743 25.8754 13.486 25.8709 13.4962C25.8647 13.5103 25.8573 13.527 25.8453 13.539C25.1544 14.2321 24.9249 15.1204 24.8042 16.0466C24.7112 16.7594 24.7404 17.4718 24.9032 18.1759C24.9509 18.3823 24.9026 18.4222 24.6949 18.3581C24.6611 18.3477 24.6283 18.3338 24.5956 18.3199ZM27.4677 9.18391C27.2754 9.32524 26.7789 9.34601 26.5926 9.1969C26.4983 9.12146 26.3913 9.05946 26.2701 9.01185C26.2179 8.99135 26.1387 8.96344 26.1536 8.90936C26.1604 8.88455 26.1952 8.87419 26.2206 8.86672C26.6465 8.74134 26.9005 8.45874 26.9996 8.03001C27.002 8.01958 27.0097 8.01035 27.0207 7.99703C27.0311 7.98454 27.0515 7.98655 27.0582 8.00135C27.0868 8.0643 27.1107 8.12851 27.1344 8.19207C27.1889 8.33842 27.2421 8.48133 27.3481 8.5975C27.4419 8.70025 27.5632 8.75775 27.6942 8.81983C27.8006 8.87028 27.78 9.01619 27.6727 9.06487C27.598 9.09877 27.5297 9.13836 27.4677 9.18391ZM24.3473 5.39861C24.2115 5.46059 24.0893 5.51633 24.014 5.64095C23.976 5.70526 23.948 5.76974 23.9199 5.83461C23.8628 5.96631 23.6941 5.9409 23.6244 5.81541C23.5609 5.70107 23.4822 5.60297 23.3877 5.5202C23.2511 5.40055 23.2477 5.09398 23.3875 4.97807C23.5384 4.85292 24.0059 4.86152 24.1563 4.98726C24.2077 5.03017 24.2641 5.06874 24.3259 5.10292C24.4505 5.17178 24.4768 5.33953 24.3473 5.39861ZM3.70558 17.8269C3.70781 17.8346 3.71002 17.8423 3.71253 17.8498C3.79492 18.1896 4.0484 18.3241 4.32807 18.4725C4.32819 18.4725 4.32818 18.4726 4.32807 18.4725C4.18731 18.5227 4.0673 18.5902 3.96685 18.6754C3.83202 18.7897 3.43637 18.7915 3.29981 18.6792C3.17575 18.5773 3.167 18.3292 3.29 18.2259C3.40115 18.1326 3.48741 18.0189 3.54042 17.877C3.5743 17.7863 3.67878 17.7338 3.70558 17.8269ZM7.88535 4.92373C7.90136 4.91436 7.91808 4.90584 7.93566 4.89991C8.21396 4.80594 8.3356 4.58771 8.46491 4.35572L8.46534 4.35495C8.48335 4.32264 8.53022 4.32486 8.5456 4.3585C8.60132 4.48031 8.66023 4.5975 8.73822 4.69902C8.84034 4.83193 8.84399 5.1588 8.7375 5.28822C8.63285 5.4154 8.37731 5.41134 8.2676 5.28852C8.18239 5.19313 8.07961 5.11915 7.95568 5.07113C7.88188 5.04254 7.81703 4.96368 7.88535 4.92373ZM7.82478 20.0802L7.82011 20.0655C7.63276 19.4547 7.69548 18.9089 8.0586 18.4095L8.06882 18.3954C8.10843 18.3406 8.14848 18.2853 8.20824 18.246C8.23207 18.2303 8.26187 18.2444 8.26783 18.2722C8.27567 18.3089 8.28323 18.3442 8.30495 18.3639C8.51481 18.5537 8.41806 18.7154 8.30762 18.8999L8.28705 18.9344C8.06065 19.3168 8.0112 19.753 7.96691 20.1867C7.96597 20.1959 7.9664 20.2055 7.96683 20.2153C7.96923 20.269 7.90653 20.2723 7.88086 20.225C7.85612 20.1795 7.84044 20.1298 7.82478 20.0802ZM2.80017 15.312C2.92067 15.2478 3.03306 15.188 3.09584 15.0636C3.15786 14.9373 3.36003 14.9556 3.43824 15.0726C3.46964 15.1196 3.50469 15.1626 3.54357 15.2019C3.66 15.3197 3.67148 15.5616 3.5472 15.671C3.41685 15.7858 3.10545 15.8027 2.97441 15.6887C2.92753 15.6479 2.87675 15.6115 2.82187 15.5791C2.71414 15.5157 2.68981 15.3707 2.80017 15.312ZM12.5188 3.0113C12.5355 3.04791 12.5486 3.08687 12.5481 3.12712C12.5462 3.29383 12.4599 3.39544 12.3262 3.46388C12.2 3.52847 12.0847 3.48286 11.9813 3.40576C11.8769 3.32796 11.8098 3.22348 11.8343 3.0892C11.8633 2.92943 11.9587 2.82159 12.1217 2.78064C12.2584 2.74631 12.3639 2.80746 12.4516 2.89823C12.4812 2.92892 12.5 2.97013 12.5188 3.0113ZM19.6529 3.25746C19.3794 3.47239 18.9552 2.97293 19.2008 2.7265C19.2315 2.69569 19.2663 2.67197 19.3017 2.65785C19.4973 2.57994 19.6923 2.66867 19.7712 2.87942C19.8295 3.03519 19.7756 3.16107 19.6529 3.25746ZM17.3169 10.3117C17.0194 10.4607 16.8508 10.3071 17.1423 10.1466C17.3132 10.0526 17.504 9.97989 17.6942 9.94171C17.7246 9.93759 17.7541 9.93278 17.7832 9.92804C17.9467 9.9014 17.9479 10.0543 17.7918 10.1097C17.6272 10.1682 17.4694 10.2353 17.3169 10.3117ZM10.5933 14.8425C10.6033 14.8356 10.6134 14.8287 10.6234 14.8217C10.641 14.8093 10.6614 14.7975 10.6814 14.7896C10.9301 14.6915 10.9426 14.9917 10.704 15.1121C10.6499 15.1394 10.5966 15.1682 10.5439 15.1985C10.5084 15.2188 10.4706 15.223 10.4373 15.1888C10.3968 15.1472 10.389 15.1017 10.4073 15.0461C10.4397 14.9477 10.5164 14.8952 10.5933 14.8425ZM6.68766 6.29906C6.69007 6.29598 6.6925 6.29297 6.69494 6.29003C6.84659 6.10728 7.24716 6.28468 7.16062 6.50582C7.11889 6.61245 7.04771 6.69826 6.92358 6.71029C6.79832 6.72244 6.7187 6.65179 6.65738 6.55021C6.60091 6.45667 6.62871 6.37434 6.68766 6.29906ZM5.14124 8.10262C5.20799 8.00864 5.3458 7.99088 5.44854 8.04316C5.53111 8.08518 5.57653 8.15743 5.57576 8.26785C5.57499 8.3799 5.50538 8.46655 5.39852 8.50012C5.2984 8.53157 5.20351 8.50059 5.14141 8.41046C5.07223 8.31005 5.06898 8.20432 5.14124 8.10262ZM28.4981 14.303C28.4522 14.0498 28.9474 13.9476 28.9761 14.2032C28.98 14.2377 28.9735 14.2751 28.9563 14.3144C28.9089 14.4219 28.8339 14.5016 28.7012 14.4835C28.5948 14.4689 28.5178 14.4119 28.4981 14.303ZM10.0919 13.3579C9.89927 13.4274 9.82489 13.0083 10.029 12.9925C10.037 12.9919 10.0452 12.9917 10.0538 12.9918C10.1489 12.9931 10.2088 13.0546 10.2252 13.1478C10.244 13.2551 10.1837 13.3248 10.0919 13.3579ZM28.9661 12.3709C28.9247 12.4777 28.7643 12.5074 28.6822 12.4275C28.6588 12.4048 28.642 12.3762 28.6295 12.3434C28.5967 12.257 28.6471 12.1917 28.7083 12.1435C28.7786 12.0881 28.8553 12.1085 28.9199 12.1612C28.9885 12.2171 28.9963 12.2931 28.9661 12.3709ZM15.7171 2.3383C15.7729 2.2511 15.9192 2.25168 15.9785 2.33649C15.9798 2.33826 15.981 2.34006 15.9821 2.3419C16.0347 2.42428 16.032 2.50612 15.9585 2.57081C15.8864 2.63436 15.7998 2.63658 15.7289 2.56957C15.6568 2.50135 15.6666 2.41712 15.7171 2.3383ZM29.41 16.5828C29.3751 16.6003 29.3423 16.6054 29.3129 16.5997C29.1356 16.5648 29.2432 16.2115 29.4087 16.2842C29.4693 16.3108 29.5188 16.3606 29.5182 16.4323C29.5177 16.5031 29.4695 16.5529 29.41 16.5828ZM28.4508 18.2304C28.4473 18.2266 28.4437 18.2228 28.4401 18.219C28.4333 18.212 28.4284 18.2032 28.4272 18.1934C28.4082 18.0379 28.4664 17.9587 28.6042 17.9752C28.6957 17.9861 28.7597 18.0583 28.7305 18.1584C28.698 18.2698 28.6126 18.3106 28.5007 18.2704C28.4817 18.2636 28.4663 18.247 28.4508 18.2304ZM28.1357 10.9319C28.233 11.0842 27.914 11.2358 27.8557 11.0647C27.8535 11.0582 27.8515 11.0514 27.8496 11.0445C27.8281 10.9649 27.8815 10.9087 27.9499 10.8751C28.0266 10.8375 28.0938 10.8663 28.1357 10.9319ZM21.1779 3.5842C21.3052 3.50013 21.4359 3.73716 21.3367 3.85308C21.3051 3.88999 21.2589 3.89584 21.2025 3.86918C21.1447 3.84185 21.0815 3.80528 21.0859 3.72758C21.0894 3.66641 21.128 3.61718 21.1779 3.5842ZM25.7746 7.32748C25.9491 7.32714 25.9329 7.68748 25.7679 7.63057C25.756 7.62645 25.7433 7.62047 25.7297 7.6124C25.6659 7.57444 25.6282 7.51239 25.6519 7.43254C25.6696 7.37274 25.7105 7.3276 25.7746 7.32748ZM10.5032 3.61815C10.5699 3.77009 10.2243 3.85546 10.2274 3.68955C10.2274 3.68826 10.2274 3.68696 10.2275 3.68566C10.2301 3.61009 10.2605 3.54104 10.3366 3.51769C10.4206 3.4919 10.4743 3.55243 10.5032 3.61815ZM17.15 12.9182C17.6305 12.937 17.989 13.1419 18.2262 13.5405C18.3475 13.7445 18.4304 13.9651 18.5139 14.1874C18.5441 14.2678 18.5746 14.3489 18.6068 14.429C18.6614 14.5648 18.5952 14.7128 18.4574 14.6634C18.4331 14.6547 18.4092 14.6462 18.3851 14.6402C18.2312 14.6019 18.1253 14.6186 18.0334 14.7808C17.8312 15.1377 17.4718 15.2242 17.0974 15.2349C16.5284 15.2512 16.0568 14.8673 15.9297 14.3079C15.7802 13.6506 16.2841 12.9725 16.9584 12.9243C17.007 12.9208 17.0557 12.9199 17.1138 12.9189L17.15 12.9182ZM16.4215 13.8309C16.5958 13.9144 16.7374 13.5394 16.5587 13.4658C16.4806 13.4337 16.4034 13.4546 16.3512 13.5278C16.2968 13.6041 16.2868 13.6889 16.3452 13.7638C16.3716 13.7976 16.3968 13.8191 16.4215 13.8309ZM17.9054 17.2597C17.7626 17.2182 17.6185 17.1827 17.4704 17.155C17.193 17.1031 16.911 17.062 16.6288 17.0646C16.5825 17.0651 16.5365 17.0655 16.4905 17.0644C16.3511 17.0611 16.2146 17.0835 16.207 17.2552C16.1993 17.4297 16.3452 17.4673 16.476 17.47C16.9313 17.4795 17.3779 17.5477 17.8222 17.6397C17.9521 17.6667 18.0635 17.6334 18.1002 17.4963C18.1416 17.3412 18.0219 17.2935 17.9054 17.2597ZM7.66225 15.697C7.78581 15.6757 7.91247 15.6881 8.03415 15.7183C8.26003 15.7744 8.47259 15.8453 8.67024 15.9582C8.7585 16.0086 8.83881 16.0685 8.78227 16.1894C8.73049 16.3002 8.63565 16.3451 8.52507 16.3067C8.23729 16.2068 7.94846 16.1132 7.65005 16.0495C7.56016 16.0303 7.49572 15.9716 7.50586 15.8706C7.51502 15.7794 7.56539 15.7137 7.66225 15.697ZM14.9747 18.6977C15.185 18.7332 15.2864 18.3542 15.0954 18.2592C15.0595 18.2414 15.0181 18.2365 14.9737 18.2469C14.826 18.2815 14.7867 18.3964 14.8065 18.532C14.8199 18.6238 14.8827 18.6822 14.9747 18.6977ZM14.689 17.6737C14.7417 17.8697 14.3968 17.9964 14.2894 17.8242C14.2831 17.8139 14.2771 17.8031 14.2716 17.7917C14.236 17.7184 14.2476 17.6411 14.2998 17.5715C14.3592 17.4922 14.4383 17.4816 14.5262 17.4977C14.6232 17.5155 14.667 17.5921 14.689 17.6737ZM13.9288 18.2149C13.9248 18.2153 13.9209 18.2162 13.9172 18.2176C13.7772 18.2699 13.7249 18.3655 13.7622 18.4932C13.7944 18.6035 13.8844 18.6618 14.0004 18.6498C14.1188 18.6374 14.1867 18.5546 14.193 18.4422C14.2009 18.2999 14.0996 18.2415 13.9762 18.2139C13.9648 18.2113 13.9525 18.2125 13.9288 18.2149ZM15.2909 17.2856C15.515 17.4009 15.2298 17.8076 15.0502 17.631C14.9655 17.5476 14.9774 17.444 15.0375 17.3476C15.0948 17.2558 15.1863 17.2378 15.2743 17.2776C15.28 17.2802 15.2856 17.2829 15.2909 17.2856ZM12.3361 17.359C12.308 17.4659 12.34 17.549 12.4564 17.6055C12.5932 17.6544 12.667 17.5807 12.7269 17.4937C12.7704 17.4307 12.7643 17.3583 12.7174 17.2949C12.6644 17.2232 12.5958 17.1793 12.5026 17.1927C12.4069 17.2065 12.3588 17.2725 12.3361 17.359ZM13.562 17.4183C13.7762 17.4426 13.7296 17.8652 13.5147 17.8486C13.4202 17.8413 13.3422 17.7782 13.3228 17.6791C13.2996 17.5599 13.3263 17.4487 13.4647 17.4233C13.5003 17.4167 13.5328 17.415 13.562 17.4183ZM10.1067 17.6897C10.0622 17.6458 10.0169 17.6258 9.973 17.6291C9.76118 17.6453 9.77197 18.0605 9.98441 18.0602C10.0663 18.0601 10.1417 18.0196 10.1707 17.9405C10.2045 17.8484 10.1767 17.7588 10.1067 17.6897ZM9.22251 17.1351C9.22078 17.1234 9.2209 17.1114 9.22305 17.0997C9.22868 17.0688 9.23267 17.0468 9.24271 17.0281C9.29971 16.922 9.39372 16.8892 9.50438 16.9165C9.60159 16.9404 9.65964 17.0124 9.66106 17.1125C9.66251 17.215 9.59349 17.2823 9.50489 17.3123C9.3946 17.3496 9.30269 17.305 9.24098 17.2066C9.23054 17.1899 9.22742 17.1686 9.2232 17.1398C9.22297 17.1383 9.22275 17.1367 9.22251 17.1351ZM13.0481 18.4043C13.2465 18.3273 13.1499 17.964 12.9381 17.9845C12.8929 17.9889 12.8514 18.015 12.8169 18.0631C12.7589 18.1438 12.7487 18.2305 12.8132 18.3134C12.8726 18.3896 12.951 18.4419 13.0481 18.4043ZM9.28453 17.648C9.39674 17.6447 9.50261 17.729 9.51445 17.8406C9.51964 17.8895 9.50657 17.9377 9.47362 17.9856C9.41476 18.071 9.32249 18.0892 9.23225 18.0525C9.13333 18.0122 9.08307 17.9281 9.1049 17.8187C9.12391 17.7235 9.17476 17.6513 9.28453 17.648ZM10.3739 17.3082C10.2882 17.3045 10.2554 17.1749 10.3397 17.1589C10.3492 17.1571 10.3596 17.1563 10.3708 17.1565C10.3954 17.157 10.419 17.1655 10.4399 17.1783C10.4694 17.1964 10.495 17.2121 10.5237 17.1912C10.5615 17.1637 10.5487 17.1218 10.5291 17.0861C10.4816 16.9999 10.4025 16.983 10.3132 16.9902C10.2195 16.9978 10.1758 17.0614 10.1621 17.1425C10.1425 17.2583 10.1954 17.3442 10.2986 17.3962C10.3281 17.411 10.3576 17.4226 10.3853 17.4247C10.4663 17.4309 10.4551 17.3116 10.3739 17.3082ZM13.2804 7.17629C14.1901 7.00425 15.0859 6.97601 15.99 7.09094C16.6844 7.17921 17.3499 7.36129 17.9981 7.61763C18.1267 7.66848 18.2269 7.74748 18.2449 7.89272C18.2586 8.00413 18.1829 8.07702 18.101 8.13012C18.002 8.1943 17.8986 8.16001 17.7991 8.12703C17.7873 8.12311 17.7755 8.11921 17.7638 8.11549C17.4358 8.01135 17.1079 7.90893 16.774 7.82362C15.6085 7.5259 14.437 7.51843 13.2599 7.73498C13.1168 7.7613 12.9943 7.7416 12.9174 7.61753C12.8547 7.51645 12.8682 7.40001 12.9466 7.30805C13.0249 7.21606 13.1409 7.198 13.2688 7.1781L13.2804 7.17629ZM27.4153 15.6009C27.3621 15.2222 26.8466 14.9785 26.6799 15.3227C26.6672 15.3489 26.6551 15.3776 26.6434 15.4088C26.3985 16.0631 26.3645 16.7366 26.5216 17.4173C26.5583 17.5765 26.6437 17.719 26.8207 17.7389C26.9913 17.7581 27.0891 17.6301 27.1658 17.4966C27.211 17.4181 27.2543 17.3366 27.284 17.2514C27.4713 16.7131 27.4937 16.1602 27.4153 15.6009Z" fill="white"/>
<path d="M49.082 16.8027C49.082 17.3145 48.9941 17.7852 48.8184 18.2148C48.6426 18.6445 48.3984 19.0156 48.0859 19.3281C47.7734 19.6406 47.4023 19.8848 46.9727 20.0605C46.5469 20.2324 46.082 20.3184 45.5781 20.3184H43.5156C43.0117 20.3184 42.5449 20.2324 42.1152 20.0605C41.6855 19.8848 41.3145 19.6406 41.002 19.3281C40.6895 19.0156 40.4434 18.6445 40.2637 18.2148C40.0879 17.7852 40 17.3145 40 16.8027V15.1973C40 14.6895 40.0879 14.2207 40.2637 13.791C40.4434 13.3574 40.6895 12.9863 41.002 12.6777C41.3145 12.3652 41.6855 12.1211 42.1152 11.9453C42.5449 11.7695 43.0117 11.6816 43.5156 11.6816H45.5781C46.082 11.6816 46.5469 11.7695 46.9727 11.9453C47.4023 12.1211 47.7734 12.3652 48.0859 12.6777C48.3984 12.9863 48.6426 13.3574 48.8184 13.791C48.9941 14.2207 49.082 14.6895 49.082 15.1973V16.8027ZM47.5586 15.1973C47.5586 14.8965 47.5098 14.625 47.4121 14.3828C47.3184 14.1367 47.1836 13.9277 47.0078 13.7559C46.8359 13.5801 46.627 13.4453 46.3809 13.3516C46.1387 13.2539 45.8711 13.2051 45.5781 13.2051H43.5156C43.2188 13.2051 42.9473 13.2539 42.7012 13.3516C42.459 13.4453 42.25 13.5801 42.0742 13.7559C41.8984 13.9277 41.7617 14.1367 41.6641 14.3828C41.5703 14.625 41.5234 14.8965 41.5234 15.1973V16.8027C41.5234 17.1035 41.5703 17.377 41.6641 17.623C41.7617 17.8652 41.8984 18.0742 42.0742 18.25C42.25 18.4219 42.459 18.5566 42.7012 18.6543C42.9473 18.748 43.2188 18.7949 43.5156 18.7949H45.5664C45.8633 18.7949 46.1328 18.748 46.375 18.6543C46.6211 18.5566 46.832 18.4219 47.0078 18.25C47.1836 18.0742 47.3184 17.8652 47.4121 17.623C47.5098 17.377 47.5586 17.1035 47.5586 16.8027V15.1973Z" fill="white"/>
<path d="M58.0645 13.3223H54.707V20.2012H53.1836V13.3223H49.8203V11.7988H58.0645V13.3223Z" fill="white"/>
<path d="M66.7832 13.3223H63.4258V20.2012H61.9023V13.3223H58.5391V11.7988H66.7832V13.3223Z" fill="white"/>
<path d="M74.8164 16.7676H70.0059V15.2324H74.8164V16.7676ZM75.502 20.2012H70.0059C69.7949 20.2012 69.5645 20.1641 69.3145 20.0898C69.0645 20.0156 68.832 19.8945 68.6172 19.7266C68.4062 19.5547 68.2285 19.334 68.084 19.0645C67.9434 18.791 67.873 18.457 67.873 18.0625V12.5664C67.873 12.4609 67.8926 12.3613 67.9316 12.2676C67.9707 12.1738 68.0234 12.0918 68.0898 12.0215C68.1602 11.9512 68.2422 11.8965 68.3359 11.8574C68.4297 11.8184 68.5312 11.7988 68.6406 11.7988H75.502V13.3223H69.3965V18.0625C69.3965 18.2617 69.4492 18.4141 69.5547 18.5195C69.6602 18.625 69.8145 18.6777 70.0176 18.6777H75.502V20.2012Z" fill="white"/>
<path d="M85.375 14.623C85.375 14.9707 85.332 15.2812 85.2461 15.5547C85.1602 15.8281 85.043 16.0703 84.8945 16.2812C84.75 16.4883 84.582 16.666 84.3906 16.8145C84.1992 16.9629 83.998 17.0859 83.7871 17.1836C83.5801 17.2773 83.3691 17.3457 83.1543 17.3887C82.9434 17.4316 82.7441 17.4531 82.5566 17.4531L85.7383 20.2012H83.3828L80.207 17.4531H79.1113V15.9297H82.5566C82.748 15.9141 82.9219 15.875 83.0781 15.8125C83.2383 15.7461 83.375 15.6582 83.4883 15.5488C83.6055 15.4395 83.6953 15.3086 83.7578 15.1562C83.8203 15 83.8516 14.8223 83.8516 14.623V13.6621C83.8516 13.5762 83.8398 13.5117 83.8164 13.4688C83.7969 13.4219 83.7695 13.3887 83.7344 13.3691C83.7031 13.3457 83.668 13.332 83.6289 13.3281C83.5938 13.3242 83.5605 13.3223 83.5293 13.3223H78.502V20.2012H76.9785V12.5664C76.9785 12.4609 76.998 12.3613 77.0371 12.2676C77.0762 12.1738 77.1289 12.0918 77.1953 12.0215C77.2656 11.9512 77.3477 11.8965 77.4414 11.8574C77.5352 11.8184 77.6367 11.7988 77.7461 11.7988H83.5293C83.8691 11.7988 84.1562 11.8613 84.3906 11.9863C84.625 12.1074 84.8145 12.2617 84.959 12.4492C85.1074 12.6328 85.2129 12.832 85.2754 13.0469C85.3418 13.2617 85.375 13.4629 85.375 13.6504V14.623Z" fill="white"/>
<path d="M98.8105 17.7285C98.8105 18.0293 98.7715 18.3008 98.6934 18.543C98.6191 18.7812 98.5195 18.9922 98.3945 19.1758C98.2695 19.3594 98.123 19.5156 97.9551 19.6445C97.7871 19.7734 97.6133 19.8789 97.4336 19.9609C97.2539 20.043 97.0703 20.1035 96.8828 20.1426C96.6992 20.1816 96.5254 20.2012 96.3613 20.2012H90.4844V18.6777H96.3613C96.6543 18.6777 96.8809 18.5918 97.041 18.4199C97.2051 18.248 97.2871 18.0176 97.2871 17.7285C97.2871 17.5879 97.2656 17.459 97.2227 17.3418C97.1797 17.2246 97.1172 17.123 97.0352 17.0371C96.957 16.9512 96.8594 16.8848 96.7422 16.8379C96.6289 16.791 96.502 16.7676 96.3613 16.7676H92.8574C92.6113 16.7676 92.3457 16.7246 92.0605 16.6387C91.7754 16.5488 91.5098 16.4062 91.2637 16.2109C91.0215 16.0156 90.8184 15.7598 90.6543 15.4434C90.4941 15.127 90.4141 14.7402 90.4141 14.2832C90.4141 13.8262 90.4941 13.4414 90.6543 13.1289C90.8184 12.8125 91.0215 12.5566 91.2637 12.3613C91.5098 12.1621 91.7754 12.0195 92.0605 11.9336C92.3457 11.8438 92.6113 11.7988 92.8574 11.7988H98.043V13.3223H92.8574C92.5684 13.3223 92.3418 13.4102 92.1777 13.5859C92.0176 13.7617 91.9375 13.9941 91.9375 14.2832C91.9375 14.5762 92.0176 14.8086 92.1777 14.9805C92.3418 15.1484 92.5684 15.2324 92.8574 15.2324H96.373C96.5371 15.2363 96.7109 15.2598 96.8945 15.3027C97.0781 15.3418 97.2598 15.4043 97.4395 15.4902C97.623 15.5762 97.7969 15.6855 97.9609 15.8184C98.125 15.9473 98.2695 16.1035 98.3945 16.2871C98.5234 16.4707 98.625 16.6816 98.6992 16.9199C98.7734 17.1582 98.8105 17.4277 98.8105 17.7285Z" fill="white"/>
<path d="M108.449 15.3145C108.449 15.6621 108.406 15.9727 108.32 16.2461C108.234 16.5195 108.117 16.7617 107.969 16.9727C107.824 17.1797 107.656 17.3574 107.465 17.5059C107.273 17.6543 107.072 17.7754 106.861 17.8691C106.654 17.9629 106.443 18.0312 106.229 18.0742C106.018 18.1172 105.818 18.1387 105.631 18.1387H102.186V16.6152H105.631C105.826 16.5996 106.002 16.5605 106.158 16.498C106.318 16.4316 106.455 16.3438 106.568 16.2344C106.682 16.125 106.77 15.9941 106.832 15.8418C106.895 15.6855 106.926 15.5098 106.926 15.3145V14.623C106.906 14.4316 106.865 14.2559 106.803 14.0957C106.74 13.9355 106.654 13.7988 106.545 13.6855C106.439 13.5723 106.311 13.4844 106.158 13.4219C106.006 13.3555 105.83 13.3223 105.631 13.3223H102.197C101.994 13.3223 101.84 13.375 101.734 13.4805C101.629 13.5859 101.576 13.7383 101.576 13.9375V20.2012H100.053V13.9375C100.053 13.5469 100.123 13.2148 100.264 12.9414C100.408 12.668 100.586 12.4473 100.797 12.2793C101.012 12.1113 101.244 11.9902 101.494 11.916C101.744 11.8379 101.975 11.7988 102.186 11.7988H105.631C105.975 11.7988 106.283 11.8438 106.557 11.9336C106.83 12.0195 107.07 12.1367 107.277 12.2852C107.488 12.4297 107.666 12.5977 107.811 12.7891C107.959 12.9805 108.08 13.1816 108.174 13.3926C108.271 13.5996 108.342 13.8105 108.385 14.0254C108.428 14.2363 108.449 14.4355 108.449 14.623V15.3145Z" fill="white"/>
<path d="M118 20.2012H116.477V18.1387H111.121V20.2012H109.598V16C109.598 15.3867 109.703 14.8223 109.914 14.3066C110.125 13.791 110.418 13.3477 110.793 12.9766C111.168 12.6055 111.611 12.3164 112.123 12.1094C112.635 11.9023 113.193 11.7988 113.799 11.7988H117.232C117.338 11.7988 117.438 11.8184 117.531 11.8574C117.625 11.8965 117.707 11.9512 117.777 12.0215C117.848 12.0918 117.902 12.1738 117.941 12.2676C117.98 12.3613 118 12.4609 118 12.5664V20.2012ZM111.121 16.6152H116.477V13.3223H113.799C113.752 13.3223 113.652 13.3301 113.5 13.3457C113.352 13.3574 113.178 13.3906 112.979 13.4453C112.783 13.5 112.576 13.584 112.357 13.6973C112.139 13.8105 111.938 13.9668 111.754 14.166C111.57 14.3652 111.418 14.6152 111.297 14.916C111.18 15.2129 111.121 15.5742 111.121 16V16.6152Z" fill="white"/>
<path d="M127.299 20.2012H121.803C121.662 20.2012 121.51 20.1855 121.346 20.1543C121.186 20.1191 121.025 20.0664 120.865 19.9961C120.709 19.9258 120.559 19.8359 120.414 19.7266C120.27 19.6133 120.141 19.4785 120.027 19.3223C119.918 19.1621 119.83 18.9785 119.764 18.7715C119.697 18.5605 119.664 18.3242 119.664 18.0625V13.9375C119.664 13.7969 119.68 13.6465 119.711 13.4863C119.746 13.3223 119.799 13.1621 119.869 13.0059C119.939 12.8457 120.031 12.6934 120.145 12.5488C120.258 12.4043 120.393 12.2773 120.549 12.168C120.709 12.0547 120.893 11.9648 121.1 11.8984C121.307 11.832 121.541 11.7988 121.803 11.7988H127.299V13.3223H121.803C121.604 13.3223 121.451 13.375 121.346 13.4805C121.24 13.5859 121.188 13.7422 121.188 13.9492V18.0625C121.188 18.2578 121.24 18.4102 121.346 18.5195C121.455 18.625 121.607 18.6777 121.803 18.6777H127.299V20.2012Z" fill="white"/>
<path d="M135.648 16.7676H130.838V15.2324H135.648V16.7676ZM136.334 20.2012H130.838C130.627 20.2012 130.396 20.1641 130.146 20.0898C129.896 20.0156 129.664 19.8945 129.449 19.7266C129.238 19.5547 129.061 19.334 128.916 19.0645C128.775 18.791 128.705 18.457 128.705 18.0625V12.5664C128.705 12.4609 128.725 12.3613 128.764 12.2676C128.803 12.1738 128.855 12.0918 128.922 12.0215C128.992 11.9512 129.074 11.8965 129.168 11.8574C129.262 11.8184 129.363 11.7988 129.473 11.7988H136.334V13.3223H130.229V18.0625C130.229 18.2617 130.281 18.4141 130.387 18.5195C130.492 18.625 130.646 18.6777 130.85 18.6777H136.334V20.2012Z" fill="white"/>
</svg>
