<svg width="16" height="16" viewBox="0 0 16 16" fill="none" xmlns="http://www.w3.org/2000/svg">
<g id="Icon">
<g id="Vector">
<path d="M13.066 1.65932C11.506 0.0993207 8.65263 0.412654 6.6993 2.36599C5.63263 3.43265 5.0193 4.94599 5.00596 6.00599C4.99263 7.05932 5.1793 8.59932 4.10596 9.67265L1.2793 12.4993L2.22596 13.446L5.05263 10.6193C6.12596 9.54599 7.66596 9.73265 8.7193 9.71932C9.77263 9.70599 11.2926 9.09265 12.3593 8.02599C14.306 6.07265 14.626 3.21932 13.066 1.65932ZM6.93263 7.78599C5.91263 6.76599 6.23263 4.71265 7.6393 3.30599C9.04596 1.89932 11.0926 1.57932 12.1193 2.59932C13.1393 3.61932 12.8193 5.67265 11.4126 7.07932C10.006 8.48599 7.9593 8.80599 6.93263 7.78599Z" fill="#F7F7F8"/>
<path d="M12.0526 11.3327C12.406 11.3327 12.746 11.4727 12.9926 11.726C13.5126 12.246 13.5126 13.0927 12.9926 13.6127C12.746 13.8593 12.406 13.9993 12.0526 13.9993C11.6993 13.9993 11.3593 13.8593 11.1126 13.606C10.5926 13.086 10.5926 12.2393 11.1126 11.7193C11.3593 11.4727 11.6993 11.3327 12.0526 11.3327ZM12.0526 9.99932C11.3726 9.99932 10.686 10.2593 10.166 10.7793C9.12596 11.8193 9.12596 13.506 10.166 14.5527C10.686 15.0727 11.3726 15.3327 12.0526 15.3327C12.7326 15.3327 13.4193 15.0727 13.9393 14.5527C14.9793 13.5127 14.9793 11.826 13.9393 10.7793C13.4193 10.2593 12.7326 9.99932 12.0526 9.99932Z" fill="#F7F7F8"/>
</g>
</g>
</svg>
