<svg width="179" height="42" viewBox="0 0 179 42" fill="none" xmlns="http://www.w3.org/2000/svg">
<path fill-rule="evenodd" clip-rule="evenodd" d="M42 21C42 9.40202 32.598 0 21 0C9.40202 0 0 9.40202 0 21C0 32.598 9.40202 42 21 42C32.598 42 42 32.598 42 21ZM2.67866 14.753C2.32728 15.8158 2.07406 16.9011 1.93145 18.0348C1.8255 18.7405 1.76564 19.4288 1.74235 20.1179C1.69817 21.4255 1.79324 22.7279 1.99989 24.0184C2.18213 25.1565 2.4441 26.2786 2.84501 27.363C2.95753 27.6674 2.97262 27.6782 3.2342 27.5221C3.62849 27.2869 3.96677 27.3225 4.29686 27.6484C4.60073 27.9485 4.97038 27.9786 5.36853 27.85C5.54125 27.7942 5.67879 27.6906 5.81747 27.5861C5.848 27.5631 5.87865 27.54 5.90968 27.5174C6.31258 27.2242 6.69671 27.3038 6.93644 27.7354C7.20689 28.2223 7.51009 28.686 7.87106 29.1106C7.96091 29.2163 8.05399 29.3192 8.14622 29.4212C8.21964 29.5023 8.22984 29.6323 8.13039 29.678C8.09661 29.6935 8.06213 29.704 8.02874 29.7142L8.01738 29.7176C7.53839 29.8646 7.11523 29.7925 6.74947 29.4191C6.40413 29.0666 6.32472 29.0709 5.92327 29.3557C5.91598 29.3609 5.90885 29.3663 5.90173 29.3717C5.89524 29.3766 5.88874 29.3815 5.88212 29.3863C5.32099 29.7889 4.7916 29.8024 4.22081 29.4297C4.20708 29.4207 4.19345 29.4112 4.17978 29.4017C4.13676 29.3718 4.09337 29.3416 4.04554 29.3265C3.94659 29.2952 3.83422 29.2862 3.75815 29.3704C3.69527 29.4401 3.74077 29.5102 3.78099 29.5723C3.78779 29.5827 3.79445 29.593 3.8004 29.603C3.92026 29.8041 4.04325 30.0033 4.16623 30.2026C4.22264 30.2939 4.27916 30.3855 4.33527 30.477C4.49762 30.742 4.69156 30.9789 4.95077 31.1549C5.42606 31.4775 5.88426 31.4516 6.30869 31.082C6.74375 30.7031 6.93926 30.6982 7.40657 31.0542C7.94509 31.4645 8.44522 31.4474 8.95745 30.9982L8.98291 30.9758C9.058 30.9093 9.13278 30.843 9.22914 30.8099C9.39492 30.7529 9.573 30.84 9.57526 30.9971C9.58138 31.4217 9.58041 31.8465 9.57941 32.2868C9.57883 32.5424 9.31506 32.7121 9.07541 32.8009C8.99206 32.8317 8.91309 32.879 8.83645 32.9413C8.27072 33.4019 7.85896 33.4016 7.2755 32.9576C6.96913 32.7245 6.83782 32.7144 6.50903 32.908C6.42203 32.9592 6.33731 33.0143 6.24552 33.0739C6.1727 33.1213 6.15711 33.2221 6.21274 33.2888C6.2413 33.323 6.26946 33.3568 6.29731 33.3903C6.42481 33.5434 6.54604 33.6891 6.6704 33.8316C10.1759 37.85 14.5886 40.0666 19.9047 40.467C21.5743 40.5928 23.2303 40.4231 24.8658 40.0841C26.7524 39.693 28.5236 38.9912 30.2002 38.0424C32.2679 36.8723 34.0424 35.3529 35.5844 33.5545C35.8602 33.2328 35.8511 33.2252 35.5311 32.9581L35.5122 32.9422C35.4363 32.8788 35.357 32.8192 35.2769 32.7591C35.156 32.6682 35.0334 32.5761 34.9184 32.4678C34.8404 32.3941 34.8594 32.2697 34.9509 32.2136C35.0709 32.1402 35.1838 32.0711 35.2917 31.9952C35.5561 31.8092 35.8132 31.8282 36.0821 31.9856C36.5177 32.2406 36.5205 32.2378 36.8306 31.8167C37.0072 31.5768 37.1814 31.3353 37.3314 31.0795C37.3888 30.9817 37.349 30.8565 37.2394 30.8856C37.2221 30.8901 37.2049 30.8947 37.1878 30.8972C36.8114 30.9529 36.4617 30.9107 36.1453 30.6672C35.6979 30.3229 35.6697 30.327 35.2279 30.6938C34.9044 30.9623 34.546 31.1046 34.1191 31.0646C33.7616 31.0312 33.2699 30.6783 33.2571 30.4037C33.2441 30.126 33.2491 29.8474 33.2541 29.5689C33.2556 29.4885 33.257 29.408 33.258 29.3276C33.2587 29.2753 33.2688 29.2174 33.3404 29.1927C33.355 29.1877 33.3708 29.1915 33.3833 29.2005L33.4077 29.2178C33.4427 29.2427 33.4808 29.2696 33.5165 29.2994C34.1056 29.7906 34.6225 29.7974 35.2267 29.3206C35.6505 28.9863 35.7668 28.9789 36.2367 29.2559C36.8502 29.6177 37.213 29.5861 37.7458 29.1224C37.9032 28.9853 38.065 28.8606 38.2919 28.8885C38.4131 28.9034 38.4835 28.8444 38.5294 28.7389C38.5963 28.5853 38.6643 28.4322 38.7322 28.279C38.7751 28.1825 38.8179 28.0859 38.8605 27.9893C38.8885 27.9256 38.9106 27.8639 38.8524 27.8004C38.6056 27.5311 38.0398 27.5056 37.7875 27.7649C37.329 28.2363 36.5149 28.2833 36.0722 27.8521C35.816 27.6025 35.6963 27.6209 35.3999 27.84C35.3696 27.8625 35.3402 27.8864 35.3108 27.9103C35.2671 27.9458 35.2235 27.9813 35.1767 28.012C34.7369 28.3002 34.4771 27.7622 34.7575 27.3174C34.7661 27.3038 34.7746 27.2902 34.7832 27.2766C34.9022 27.0876 35.0202 26.9002 35.1482 26.7198C35.4277 26.3257 35.8257 26.2886 36.1576 26.518C36.8235 26.9782 37.1477 26.9581 37.7378 26.4151C37.9084 26.2582 38.0972 26.1881 38.3237 26.27C38.3863 26.2927 38.4482 26.3178 38.51 26.3429C38.6142 26.3851 38.719 26.4276 38.8265 26.4581C38.9401 26.4904 39.0296 26.522 39.1014 26.5475C39.2244 26.591 39.2954 26.6161 39.3462 26.5942C39.4156 26.5643 39.4471 26.4467 39.5219 26.1684L39.5457 26.0799C39.8961 24.7845 40.0802 23.4639 40.1869 22.1256C40.2905 20.8254 40.2568 19.5322 40.105 18.2438C39.9279 16.7408 39.5498 15.28 39.0181 13.8625C38.3204 12.0023 37.3474 10.2953 36.1444 8.71469C34.9129 7.09647 33.4708 5.70075 31.7889 4.55906C30.2618 3.52238 28.6231 2.70991 26.8648 2.1344C25.1266 1.56545 23.3435 1.26967 21.5218 1.18761C20.8051 1.15534 20.0905 1.20934 19.3757 1.26943C18.2093 1.36749 17.0551 1.54662 15.9336 1.87342C12.6628 2.82646 9.8147 4.49578 7.42774 6.94345C5.24291 9.18383 3.66024 11.7842 2.67866 14.753ZM14.7108 27.6861C14.7023 27.7778 14.6042 27.8275 14.5282 27.7756C14.2305 27.5722 14.0278 27.3022 13.8326 27.0243C13.6999 26.8008 13.5847 26.6067 13.4479 26.3761L13.4369 26.3575C13.4347 26.3539 13.4294 26.3543 13.4279 26.3582C13.3642 26.5278 13.3515 26.6827 13.3384 26.8426C13.329 26.9574 13.1967 26.9992 13.1274 26.9072C12.9123 26.6217 12.7788 26.3095 12.6465 26.0004C12.6416 25.9888 12.6366 25.9772 12.6317 25.9656C12.5778 25.8398 12.4318 25.8045 12.4023 25.9381C12.382 26.0302 12.2782 26.0327 12.2308 25.9511C12.0746 25.683 11.9632 25.4019 11.8676 25.0909C11.8333 24.9794 11.9379 24.8768 12.0498 24.91C12.2131 24.9584 12.3578 25.0013 12.5028 25.0435C13.075 25.2099 13.6556 25.15 14.232 25.0886C14.8303 25.0249 15.3837 25.1742 15.925 25.3948C16.6537 25.6918 17.3879 25.9626 18.1783 26.048C18.9897 26.1357 19.7597 26.0009 20.4916 25.6434C20.5146 25.6323 20.5347 25.6152 20.5621 25.592C20.5884 25.5697 20.5861 25.5277 20.5557 25.5112C20.3933 25.4232 20.2258 25.387 20.063 25.3518C20.0173 25.3419 19.9717 25.3321 19.9269 25.3212C19.6133 25.2452 19.2946 25.1954 18.9758 25.1456C18.5881 25.085 18.2002 25.0244 17.821 24.9166C17.1253 24.7188 16.4707 24.4407 15.8826 24.0124C15.4406 23.6905 15.18 23.2884 15.1968 22.717C15.2092 22.2915 15.3871 21.9942 15.7738 21.8357C15.9053 21.7818 16.0416 21.7392 16.1777 21.6966C16.3268 21.65 16.4758 21.6034 16.6186 21.542C17.3105 21.2445 17.5732 20.6193 17.2977 19.9752C17.1955 19.7362 17.0197 19.5605 16.7978 19.4435C15.9773 19.011 15.1079 18.8486 14.2002 19.0805C13.6675 19.2166 13.225 19.5007 13.0645 20.0794C12.9258 20.5796 13.0958 21.0186 13.5318 21.2994C13.57 21.3239 13.6088 21.3474 13.6476 21.3709C13.7185 21.4139 13.7894 21.4568 13.8558 21.5058C14.5316 22.0045 14.5776 22.4274 14.4678 23.1906C14.4073 23.6105 14.0646 23.8094 13.7107 23.9581C12.9484 24.2782 12.1798 24.2415 11.4175 23.9528C11.3772 23.9375 11.3353 23.925 11.2932 23.9124C11.2585 23.902 11.2236 23.8916 11.1893 23.8795C11.053 23.8316 11.034 23.6718 11.1558 23.594C11.1896 23.5723 11.2231 23.5509 11.2528 23.5252C11.3765 23.418 11.4346 23.2992 11.3287 23.1463C11.2279 23.001 11.0949 22.9829 10.947 23.059C10.5419 23.2676 10.2398 23.591 9.97147 23.9497C9.66556 24.3586 9.47141 24.8214 9.32541 25.3067C9.32316 25.3142 9.32123 25.3218 9.3193 25.3294C9.29989 25.4059 9.21168 25.3772 9.18915 25.3016C9.10562 25.0212 9.15151 24.7361 9.2166 24.4598C9.44389 23.4948 10.0293 22.845 10.9757 22.5296C10.9894 22.5251 11.0031 22.5207 11.0169 22.5163C11.0682 22.4997 11.1198 22.4832 11.1677 22.4594C11.2726 22.4075 11.3613 22.335 11.3261 22.2008C11.2903 22.0643 11.2058 21.9727 11.0513 21.9835C10.8006 22.0012 10.57 22.0916 10.3424 22.1901C9.80568 22.4225 9.37722 22.7975 8.98603 23.2213C8.88333 23.3325 8.78091 23.444 8.66621 23.5689L8.66182 23.5737C8.60473 23.6358 8.50559 23.5893 8.52313 23.5068C8.64003 22.9569 8.91242 22.554 9.28023 22.2352C9.60279 21.9557 9.53847 21.5873 9.13464 21.7255C8.99967 21.7718 8.8702 21.6596 8.91643 21.5247C9.00938 21.2533 9.16775 21.023 9.3315 20.7849C9.33226 20.7838 9.33178 20.7822 9.33053 20.7817C9.22054 20.7386 9.13119 20.7755 9.04556 20.8109C9.02616 20.8189 9.00694 20.8268 8.98772 20.8337C8.91833 20.8586 8.85873 20.7913 8.88519 20.7225C8.92608 20.6161 9.03047 20.5341 9.43371 20.2175C9.43371 20.2175 9.43372 20.2175 9.43371 20.2175C9.32449 19.9462 9.47048 19.7389 9.61313 19.5362L9.63468 19.5056C9.98095 19.0111 10.4738 18.7131 11.024 18.4969C11.0359 18.4922 11.0485 18.489 11.0613 18.4859C11.1398 18.4665 11.1598 18.3657 11.0967 18.3151C11.0564 18.2828 11.0044 18.2651 10.9524 18.2473C10.8831 18.2237 10.8137 18.2001 10.7717 18.1419C10.7637 18.1308 10.7619 18.1165 10.7639 18.103C10.7661 18.0884 10.7681 18.0749 10.7724 18.0741C11.0677 18.0213 11.1078 17.8091 11.1485 17.5931C11.1586 17.5397 11.1687 17.4861 11.1828 17.4346C11.5293 16.1628 12.2089 15.0951 13.1943 14.2249C13.8305 13.6631 14.5468 13.2443 15.3928 13.0791C15.7042 13.0183 16.0163 13.046 16.3451 13.0753C16.3491 13.0756 16.3529 13.073 16.3539 13.0691C16.3978 12.9051 16.3569 12.7505 16.3148 12.5915C16.2613 12.3895 16.4588 12.2632 16.5957 12.4211C16.7326 12.5792 16.8203 12.7782 16.9149 12.9931C16.915 12.9934 16.9153 12.9935 16.9156 12.9933C18.0119 12.38 19.156 12.1643 20.3545 12.3843C20.5624 12.4224 20.6057 12.6825 20.4281 12.7971C20.2944 12.8833 20.1593 12.9704 20.0231 13.063C19.8717 13.1659 19.7457 13.0611 19.8809 12.9375C19.9639 12.8618 19.9244 12.7436 19.8134 12.761C19.5487 12.8027 19.2051 13.0025 18.8377 13.3265C18.5872 13.5473 18.399 13.8161 18.2094 14.087C18.1458 14.1779 18.0229 14.1305 18.0514 14.0232C18.0905 13.8755 18.1471 13.7351 18.217 13.5997C18.323 13.3945 18.1629 13.1605 17.9658 13.2811C17.7405 13.4189 17.5477 13.6029 17.3739 13.8182C17.2541 13.9668 17.0428 13.9604 17.002 13.774C16.9859 13.7009 16.9704 13.63 16.9412 13.5642C16.9319 13.5432 16.9239 13.5202 16.9157 13.4968C16.8856 13.4104 16.8542 13.3202 16.7509 13.3164C16.6417 13.3123 16.6138 13.4037 16.5875 13.4896C16.58 13.5141 16.5727 13.5381 16.5637 13.5593C16.517 13.669 16.4972 13.7862 16.4764 13.9086C16.4422 14.1103 16.2095 14.1177 16.0878 13.9533C15.8979 13.6966 15.6516 13.5235 15.2933 13.4895C15.2087 13.4815 15.1561 13.5721 15.1967 13.6468C15.2605 13.764 15.3188 13.8711 15.3747 13.9789C15.4219 14.0698 15.4687 14.1619 15.5036 14.2578C15.6706 14.7165 15.63 14.7844 15.155 14.8355C14.7713 14.8768 14.8384 15.3114 15.0728 15.618C15.229 15.8224 15.3038 16.081 15.2924 16.3962C15.2758 16.8527 15.0999 17.241 14.7677 17.5508C14.6876 17.6255 14.5565 17.5885 14.6092 17.4925C14.615 17.482 14.6207 17.4716 14.6253 17.4611C14.8265 17.0038 14.6214 16.5493 14.1461 16.4014C13.5297 16.2096 12.8665 16.4908 12.5086 17.0963C12.3836 17.3078 12.2973 17.5354 12.2123 17.7598C12.1943 17.8072 12.1764 17.8544 12.1582 17.9013C12.1273 17.9809 12.1339 18.088 12.2181 18.0743C12.2975 18.0614 12.3297 18.1496 12.3452 18.2285C12.3853 18.4322 12.4767 18.6312 12.6205 18.8045C12.7055 18.907 12.6716 18.982 12.6155 19.0783C12.4986 19.2792 12.3633 19.4622 12.2084 19.6277C12.0404 19.8073 12.1334 20.0209 12.3092 19.8489C12.394 19.7659 12.4777 19.6818 12.5614 19.5977C12.7128 19.4456 12.8642 19.2935 13.0219 19.1483C13.9407 18.302 15.0347 18.2187 16.1889 18.4517C17.346 18.6852 18.222 19.3826 19.0154 20.2084C19.7171 20.9387 20.5675 21.3636 21.5803 21.4619C21.914 21.4943 22.247 21.5348 22.58 21.5752C22.7374 21.5943 22.8948 21.6134 23.0524 21.6317C23.0633 21.6329 23.0745 21.6351 23.0857 21.6374C23.1792 21.6558 23.2181 21.5354 23.1368 21.4855C23.1214 21.476 23.105 21.4676 23.0886 21.4592C23.0676 21.4483 23.0466 21.4375 23.0279 21.4246C22.1953 20.8493 21.386 20.2463 20.8436 19.3669C20.3754 18.6077 20.3373 17.8155 20.7755 17.034C21.2054 16.2675 21.9001 15.9354 22.7623 15.963C23.8526 15.9978 24.5819 16.6117 25.119 17.4999C25.4742 18.0874 25.637 18.7436 25.7202 19.416C25.7461 19.626 25.8252 19.6923 26.0142 19.713C26.161 19.7291 26.301 19.7676 26.4378 19.8253C26.5795 19.8852 26.583 20.0586 26.4401 20.1156C26.2615 20.1868 26.3104 20.3921 26.4952 20.4452C27.4822 20.7289 28.2775 21.255 28.8366 22.0951C28.9419 22.2534 28.8012 22.4233 28.626 22.3493C28.4239 22.2638 28.2787 22.4763 28.4023 22.6577C28.5421 22.8627 28.6677 23.0706 28.7719 23.286C28.9749 23.7055 28.4882 23.9455 28.1127 23.6695C27.9959 23.5836 27.8757 23.5029 27.7517 23.4284C27.359 23.1922 27.0341 23.6662 27.2198 24.0852C27.2687 24.1954 27.3127 24.3085 27.3514 24.4247C27.4574 24.7436 27.0628 24.9061 26.8097 24.6851C26.5314 24.442 26.2704 24.7674 26.4529 25.0887C26.8349 25.7611 27.0834 26.4833 27.049 27.3154C27.0464 27.3788 26.9637 27.3925 26.9386 27.3342C26.8711 27.1777 26.8037 27.0212 26.7346 26.8653C26.2944 25.8722 25.7445 24.9547 24.9124 24.2325C24.725 24.0699 24.5326 23.9119 24.3124 23.7968L24.2949 23.7876L24.2798 23.7795C24.1482 23.7091 23.9989 23.6291 23.8811 23.8045C23.7555 23.9914 23.875 24.1204 24.0204 24.2347C24.1633 24.3471 24.3032 24.4634 24.443 24.5798L24.5158 24.6403C24.8681 24.9328 25.1406 25.294 25.3928 25.6712C25.5454 25.8995 25.5176 25.9946 25.2509 26.0347C25.0056 26.0717 25.0036 26.1848 25.0415 26.3858C25.1403 26.9097 25.1582 27.4369 25.0083 27.9574C24.9876 28.0291 24.9625 28.0995 24.9305 28.1893L24.9302 28.1901C24.9153 28.2319 24.8542 28.226 24.8481 28.1821C24.8281 28.0384 24.8104 27.8982 24.7931 27.7607C24.7405 27.3438 24.6912 26.9524 24.5893 26.5686C24.2045 25.1197 23.3199 24.1013 21.9645 23.4801C21.8004 23.4048 21.6379 23.3844 21.5458 23.5724C21.4456 23.7766 21.579 23.8843 21.7471 23.971C22.6464 24.4346 23.3434 25.1063 23.8094 26.0074C23.8186 26.025 23.8285 26.0429 23.8385 26.0609C23.9161 26.2006 23.9992 26.3504 23.7561 26.4757C23.6658 26.5222 23.6962 26.6201 23.7237 26.7081C23.7319 26.7348 23.74 26.7605 23.7443 26.7836C23.8525 27.3641 23.8245 27.937 23.6755 28.5058C23.6675 28.5365 23.6539 28.5657 23.6357 28.6051C23.6212 28.6364 23.5773 28.6384 23.5634 28.6067C23.4962 28.4534 23.4876 28.3011 23.4793 28.1547C23.4758 28.0926 23.4724 28.0316 23.4645 27.9721C23.3425 27.0453 23.0967 26.1691 22.535 25.4026C22.2753 25.0481 21.9802 24.7315 21.6169 24.482C21.4749 24.3844 21.3223 24.315 21.1859 24.4806C21.0503 24.6453 21.1688 24.7724 21.2834 24.8766C21.7296 25.2821 22.1156 25.7346 22.4014 26.268L22.421 26.3044C22.5465 26.5367 22.4026 26.7908 22.1436 26.8426C22.0058 26.8702 21.8677 26.8896 21.7296 26.9019C21.5071 26.9219 21.4622 26.9931 21.4977 27.207C21.5671 27.6254 21.5181 28.0227 21.3461 28.424C21.285 28.5666 21.0968 28.5279 21.0813 28.3736C21.0721 28.282 21.0631 28.1916 21.0528 28.1023C20.9916 27.5723 20.3904 27.3019 19.8684 27.1916C19.8431 27.1863 19.8178 27.1809 19.7925 27.1757C19.622 27.1404 19.5044 27.3002 19.5878 27.453C19.768 27.7831 19.5108 28.1204 19.1475 28.023C18.887 27.9531 18.6412 27.8343 18.3935 27.7145C18.1907 27.6165 17.9801 27.7624 18.0448 27.9781C18.056 28.0154 18.0677 28.0525 18.0794 28.0895C18.1798 28.4078 17.8991 28.6531 17.5904 28.5264C17.1111 28.3297 16.6965 28.0151 16.2669 27.6892C16.1915 27.632 16.0852 27.6805 16.0918 27.775C16.1058 27.9714 16.1581 28.1537 16.211 28.3376C16.261 28.5119 16.0875 28.6405 15.939 28.5364C15.5895 28.2914 15.3063 27.993 15.0714 27.6375C14.9576 27.4652 14.73 27.4805 14.7108 27.6861ZM21.3364 7.53271C21.2053 7.51777 21.0742 7.50283 20.9435 7.48581C19.3218 7.3647 17.777 7.53978 16.2709 7.99889C14.1408 8.64824 12.2781 9.74599 10.7229 11.3581C9.64113 12.4794 8.7204 13.7139 8.01123 15.0992C7.43262 16.2295 7.03347 17.4222 6.85861 18.6868C6.56693 20.7962 6.91051 22.8129 7.71756 24.7658C7.72176 24.776 7.7275 24.7859 7.7334 24.7962C7.7637 24.8487 7.70352 24.8655 7.66685 24.8172C7.171 24.1638 6.86298 23.4289 6.64684 22.653C6.11006 20.7259 6.18831 18.8062 6.79472 16.9124C7.41541 14.9739 8.27116 13.1448 9.4868 11.5006C10.7653 9.77127 12.3017 8.32241 14.1604 7.22301C15.8158 6.24389 17.599 5.63892 19.5045 5.42545C20.7881 5.28165 22.0749 5.31794 23.3535 5.54769C25.8418 5.9948 28.0799 6.99285 30.0406 8.58806C32.6451 10.707 34.4133 13.3732 35.237 16.6445C35.2548 16.7151 35.2717 16.7858 35.2726 16.8635C35.2738 16.964 35.1602 17.0094 35.0696 16.9658C34.8232 16.8472 34.5985 16.739 34.4941 16.3836C33.8794 14.2919 32.7986 12.4578 31.2884 10.8816C30.4138 9.96884 29.4369 9.18971 28.3063 8.61108C27.6146 8.25705 26.8829 8.04172 26.114 7.94672C26.0827 7.94286 26.0506 7.94623 26.0119 7.95029C25.9785 7.95379 25.9562 7.98803 25.9735 8.01686C26.0214 8.0969 26.0947 8.13849 26.1641 8.17783C26.1867 8.19065 26.2089 8.20323 26.2296 8.21682C27.3984 8.9828 28.4964 9.83477 29.4376 10.8737C30.6462 12.2079 31.3503 13.7867 31.6703 15.5471C31.6763 15.58 31.6766 15.614 31.677 15.6479C31.6771 15.6569 31.6772 15.6659 31.6774 15.6749C31.6781 15.7089 31.678 15.743 31.6778 15.7826C31.6777 15.8143 31.6489 15.839 31.6193 15.8275C31.5451 15.7987 31.5034 15.7427 31.463 15.6885C31.4538 15.6762 31.4447 15.6639 31.4352 15.6521C30.9107 14.9952 30.3185 14.406 29.6647 13.8783C29.6183 13.8408 29.5707 13.804 29.5203 13.7721C29.3712 13.6773 29.2257 13.6861 29.1006 13.8113C28.98 13.9319 28.9773 14.0789 29.0767 14.2071C29.1727 14.331 29.2748 14.45 29.3769 14.5692C29.458 14.6637 29.5394 14.7587 29.6175 14.8557C29.8256 15.1143 30.0269 15.3777 30.1804 15.6557C30.2191 15.7257 30.1371 15.7853 30.0777 15.7316C29.8934 15.5651 29.7037 15.3937 29.5254 15.2112C27.8078 13.4533 25.76 12.2403 23.4411 11.4484C21.6835 10.8482 19.877 10.6515 18.0422 10.772C16.1007 10.8995 14.2488 11.3845 12.6304 12.524C11.6723 13.1985 10.897 14.0618 10.2247 15.0215C9.49107 16.0687 8.98728 17.22 8.61899 18.4371C8.587 18.5429 8.54945 18.6486 8.49966 18.7469C8.41169 18.9204 8.27006 19.0444 8.06917 18.9899C7.85459 18.9317 7.74913 18.7526 7.7749 18.5362C7.79986 18.3267 7.85909 18.1198 7.9175 17.9158L7.91791 17.9144C8.59259 15.558 9.88803 13.6519 11.9892 12.3388C12.5623 11.9807 13.1722 11.6921 13.8103 11.4652L13.8545 11.4496C13.9529 11.4152 14.053 11.3802 14.1386 11.3247C14.3652 11.1775 14.34 10.8845 14.0957 10.7736C13.961 10.7124 13.8194 10.6908 13.6716 10.7366C13.3722 10.8294 13.2245 10.5407 13.4926 10.3782C13.5189 10.3622 13.5453 10.3464 13.5716 10.3306C15.0857 9.42513 16.7128 8.82938 18.4729 8.65009C21.846 8.30648 24.8355 9.24656 27.4493 11.3955C27.6189 11.5349 27.782 11.6823 27.945 11.8297C28.1115 11.9801 28.278 12.1306 28.4514 12.2726C28.7763 12.5386 29.1875 12.3817 29.2796 11.9762C29.3176 11.8086 29.2491 11.6757 29.156 11.5495C28.8338 11.113 28.4284 10.7554 28.0206 10.4068C26.3274 8.95928 24.3653 8.06829 22.1846 7.65105C21.9045 7.59746 21.6205 7.56509 21.3364 7.53271ZM20.548 36.5355C20.7086 36.5462 20.6452 36.704 20.495 36.762C19.6039 37.1064 18.6918 37.2504 17.7629 37.3176C17.7063 37.3217 17.6496 37.3256 17.5929 37.3294C17.3943 37.3429 17.1956 37.3565 16.9982 37.3803C16.8114 37.4028 16.6349 37.4753 16.6168 37.6935C16.5988 37.9104 16.7606 38.0193 16.9394 38.0676C17.4186 38.197 17.9136 38.235 18.4062 38.2703C19.7765 38.3686 21.1331 38.225 22.4819 37.9987C23.7782 37.7812 25.0524 37.464 26.3168 37.1067C26.6032 37.0257 26.8109 37.085 26.8951 37.2719C26.9805 37.4613 26.8909 37.6576 26.6171 37.8046C25.4072 38.4539 24.1429 38.9492 22.777 39.1639C21.3828 39.383 19.9918 39.3328 18.596 39.176C16.6367 38.9558 14.7979 38.3578 13.0675 37.4294C11.9199 36.8137 10.8532 36.0782 9.93491 35.1415C9.77349 34.9768 9.74558 34.8469 9.88949 34.6619C10.1095 34.3791 10.3166 34.0859 10.5228 33.7926C10.6189 33.6559 10.7082 33.6566 10.8398 33.7504C12.673 35.0565 14.7493 35.7395 16.9414 36.1265C18.1354 36.3374 19.3396 36.4543 20.548 36.5355ZM22.0324 33.8652C22.065 33.8648 22.0976 33.8644 22.1301 33.8636C23.8546 33.7064 25.511 33.4383 27.1221 32.9368C28.7369 32.4341 30.2699 31.7568 31.6512 30.7644C31.6695 30.7513 31.6876 30.7373 31.7058 30.7233C31.8695 30.5973 32.0607 30.7343 32.0548 30.9407C32.0478 31.1876 31.9766 31.4182 31.7915 31.6324C31.2207 32.2929 30.4904 32.7377 29.7379 33.1413C27.8596 34.149 25.8395 34.7072 23.7374 35.0189C22.2427 35.2406 20.7417 35.2669 19.2423 35.2049C16.7965 35.1039 14.4369 34.6157 12.2707 33.4076C11.8598 33.1785 11.4633 32.9249 11.1291 32.5888C10.9108 32.3692 10.753 32.1252 10.7395 31.8256C10.7318 31.6534 10.886 31.5342 11.0322 31.6253C11.052 31.6376 11.0715 31.6498 11.0911 31.6607C12.9083 32.6704 14.8497 33.3203 16.8986 33.6458C18.5301 33.905 20.1723 33.9928 21.8227 33.872C21.8923 33.8669 21.9624 33.866 22.0324 33.8652ZM19.1862 32.1379C18.4441 32.1301 17.7043 32.07 16.967 31.9842C15.8308 31.8266 14.7532 31.6132 13.7043 31.2722C11.9761 30.7102 10.3979 29.8917 9.11169 28.5758C8.86705 28.3255 9.24389 28.0212 9.53107 28.2212C9.60412 28.2721 9.67789 28.3221 9.75238 28.3712C11.3488 29.4247 13.1096 30.0779 14.9691 30.4776C16.4603 30.7981 17.9726 30.9175 19.4964 30.8856C20.779 30.8588 22.047 30.7112 23.2958 30.4083C23.7921 30.2879 24.1262 30.4004 24.3354 30.738C24.5795 31.1319 24.424 31.6279 23.9943 31.8045C23.671 31.9374 23.3278 31.9711 22.9857 32.0046C22.8956 32.0135 22.8056 32.0223 22.7161 32.0329C21.6102 32.1643 20.4985 32.1522 19.3878 32.1401L19.1862 32.1379ZM28.3775 30.2004C30.0853 29.2087 31.6182 28.0154 32.7683 26.3823C32.7801 26.3642 32.7876 26.3533 32.7927 26.346C32.7982 26.3379 32.8007 26.3343 32.8026 26.3303C32.9454 26.029 33.1404 25.8741 33.4977 26.0173C33.6255 26.0686 33.7629 26.0404 33.912 26.0098C34.0026 25.9912 34.0717 26.0781 34.0323 26.1618C33.8886 26.4673 33.7005 26.7298 33.514 26.9899L33.5104 26.995C32.422 28.5134 31.0133 29.6478 29.3296 30.4466C28.308 30.9313 27.2423 31.2886 26.1406 31.5408C26.1242 31.5445 26.108 31.5491 26.0917 31.5538C26.0669 31.5609 26.042 31.568 26.0168 31.5719C25.7378 31.6152 25.6885 31.5714 25.7598 31.3011C25.8727 30.8728 25.7658 30.4924 25.5405 30.1309C25.4594 30.0008 25.5138 29.829 25.6538 29.7663C27.8701 28.7733 29.6445 27.293 30.9475 25.2591C31.1863 24.8863 31.7166 24.855 31.9163 25.2502C31.9612 25.3391 31.9082 25.4108 31.8583 25.4782C31.8461 25.4948 31.834 25.5111 31.8236 25.5273C31.1009 26.6583 30.2289 27.6588 29.1886 28.5086C28.8949 28.7485 28.5957 28.9817 28.2965 29.215C28.1714 29.3125 28.0463 29.41 27.9217 29.5079C27.7499 29.6429 27.6295 29.8021 27.6978 30.0352C27.7541 30.2274 27.9679 30.3403 28.1648 30.2861C28.2381 30.266 28.312 30.2384 28.3775 30.2004ZM33.8848 24.304C33.5988 23.8648 33.5021 23.3619 33.453 22.8486C33.3275 21.5283 33.4847 20.3021 34.0773 19.1512C34.1954 18.9219 34.3423 18.713 34.535 18.5389C34.8763 18.2307 35.2944 18.2441 35.5999 18.5881C35.9465 18.9783 36.1064 19.4605 36.1827 19.9607C36.3582 21.1109 36.2535 22.2381 35.8286 23.3285C35.6786 23.7134 35.4802 24.0723 35.211 24.3851C34.7652 24.9029 34.2556 24.8734 33.8848 24.304ZM6.7059 14.6072C6.73462 14.6298 6.75798 14.6618 6.75595 14.6983C6.75114 14.7851 6.68519 14.8164 6.62725 14.8438C6.61598 14.8492 6.60501 14.8544 6.59486 14.8598C5.91861 15.2218 5.56058 15.8005 5.41356 16.5364C5.41039 16.5523 5.40734 16.5683 5.40427 16.5844C5.36833 16.773 5.16744 16.7425 5.11476 16.5579C4.91935 15.873 4.60837 15.2687 3.95865 14.8874C3.81186 14.8012 3.78855 14.5888 3.93168 14.4967C4.24817 14.293 4.55232 14.0972 4.74686 13.7699C4.92261 13.4742 5.01413 13.147 5.10567 12.8199C5.13959 12.6986 5.17351 12.5773 5.21172 12.4577C5.21901 12.4348 5.24218 12.4211 5.26576 12.4254C5.28419 12.4287 5.29899 12.4425 5.30364 12.4607C5.32071 12.5272 5.33765 12.5938 5.35459 12.6604L5.35476 12.6611L5.35492 12.6617C5.39755 12.8293 5.44018 12.997 5.48491 13.164C5.65243 13.7897 5.98307 14.283 6.60447 14.5411C6.64111 14.5563 6.67351 14.5818 6.7059 14.6072ZM32.2817 24.0449C32.243 24.0284 32.2087 24.0025 32.1849 23.9678C31.9512 23.6274 31.8867 23.2539 31.833 22.8907C31.6465 21.6297 31.7365 20.3895 32.2212 19.1967C32.4182 18.7118 32.6646 18.252 33.0431 17.8811C33.255 17.6734 33.4996 17.5182 33.8208 17.5855L33.8239 17.5862C33.8742 17.5967 33.9296 17.6083 33.9576 17.6717C33.9634 17.685 33.9615 17.7004 33.9556 17.7137C33.9474 17.7322 33.9377 17.7541 33.9219 17.7699C33.0151 18.6796 32.7139 19.8455 32.5555 21.0611C32.4335 21.9967 32.4718 22.9318 32.6854 23.8558C32.748 24.1268 32.6847 24.1791 32.412 24.095C32.3677 24.0814 32.3247 24.0631 32.2817 24.0449ZM36.0514 12.0539C35.799 12.2394 35.1473 12.2666 34.9027 12.0709C34.779 11.9719 34.6386 11.8905 34.4795 11.8281C34.411 11.8011 34.3071 11.7645 34.3266 11.6935C34.3355 11.661 34.3812 11.6474 34.4145 11.6376C34.9735 11.473 35.3069 11.1021 35.4369 10.5394C35.4401 10.5257 35.4502 10.5136 35.4647 10.4961C35.4784 10.4797 35.5051 10.4824 35.5139 10.5018C35.5514 10.5844 35.5828 10.6687 35.6139 10.7521C35.6854 10.9442 35.7553 11.1317 35.8944 11.2842C36.0174 11.4191 36.1767 11.4945 36.3486 11.576C36.4883 11.6422 36.4613 11.8338 36.3205 11.8976C36.2224 11.9421 36.1328 11.9941 36.0514 12.0539ZM31.9559 7.08568C31.7775 7.16702 31.6171 7.24019 31.5183 7.40375C31.4685 7.48816 31.4318 7.57279 31.3949 7.65793C31.3199 7.83078 31.0985 7.79744 31.007 7.63273C30.9237 7.48266 30.8204 7.3539 30.6964 7.24527C30.5171 7.08822 30.5127 6.68585 30.6961 6.53372C30.8942 6.36946 31.5078 6.38074 31.7052 6.54578C31.7726 6.6021 31.8466 6.65272 31.9278 6.69758C32.0913 6.78797 32.1259 7.00813 31.9559 7.08568ZM4.86357 23.3978C4.8665 23.408 4.86941 23.418 4.8727 23.4279C4.98084 23.8739 5.31353 24.0504 5.6806 24.2452C5.68075 24.2451 5.68074 24.2453 5.6806 24.2452C5.49585 24.3111 5.33833 24.3996 5.2065 24.5114C5.02953 24.6614 4.51023 24.6638 4.33101 24.5165C4.16817 24.3827 4.15668 24.057 4.31812 23.9215C4.46402 23.7991 4.57722 23.6499 4.64679 23.4636C4.69127 23.3445 4.8284 23.2756 4.86357 23.3978ZM10.3495 6.46239C10.3705 6.4501 10.3925 6.43892 10.4155 6.43113C10.7808 6.3078 10.9405 6.02137 11.1102 5.71688L11.1108 5.71587C11.1344 5.67346 11.1959 5.67638 11.2161 5.72053C11.2892 5.88041 11.3666 6.03422 11.4689 6.16746C11.6029 6.34191 11.6077 6.77092 11.468 6.94079C11.3306 7.10771 10.9952 7.10238 10.8512 6.94118C10.7394 6.81598 10.6045 6.71888 10.4418 6.65586C10.345 6.61834 10.2598 6.51483 10.3495 6.46239ZM10.27 26.3553L10.2639 26.3359C10.018 25.5343 10.1003 24.8179 10.5769 24.1625L10.5903 24.144C10.6423 24.0721 10.6949 23.9994 10.7733 23.9478C10.8046 23.9273 10.8437 23.9457 10.8515 23.9823C10.8618 24.0304 10.8717 24.0768 10.9003 24.1026C11.1757 24.3518 11.0487 24.5639 10.9038 24.8061L10.8767 24.8514C10.5796 25.3533 10.5147 25.9258 10.4566 26.495C10.4553 26.5071 10.4559 26.5197 10.4565 26.5326C10.4596 26.6031 10.3773 26.6074 10.3436 26.5454C10.3112 26.4856 10.2906 26.4204 10.27 26.3553ZM3.67523 20.097C3.83338 20.0128 3.9809 19.9343 4.06329 19.771C4.14469 19.6052 4.41005 19.6293 4.51268 19.7828C4.5539 19.8444 4.5999 19.9009 4.65094 19.9525C4.80375 20.1071 4.81882 20.4246 4.65571 20.5682C4.48461 20.7188 4.0759 20.7411 3.90392 20.5915C3.84238 20.5379 3.77573 20.49 3.7037 20.4476C3.56231 20.3643 3.53037 20.1741 3.67523 20.097ZM16.431 3.95233C16.4529 4.00038 16.4701 4.05152 16.4694 4.10434C16.4669 4.32315 16.3537 4.45652 16.1782 4.54634C16.0125 4.63111 15.8612 4.57125 15.7254 4.47006C15.5884 4.36795 15.5004 4.23082 15.5325 4.05457C15.5706 3.84488 15.6957 3.70334 15.9098 3.64959C16.0892 3.60453 16.2277 3.68479 16.3427 3.80392C16.3816 3.8442 16.4063 3.89829 16.431 3.95233ZM25.7945 4.27541C25.4355 4.55752 24.8788 3.90196 25.201 3.57853C25.2413 3.53809 25.287 3.50697 25.3335 3.48843C25.5902 3.38617 25.8462 3.50263 25.9497 3.77924C26.0263 3.98369 25.9555 4.14891 25.7945 4.27541ZM22.7285 13.5341C22.3379 13.7296 22.1166 13.5281 22.4993 13.3174C22.7235 13.194 22.9739 13.0986 23.2236 13.0485C23.2635 13.0431 23.3022 13.0368 23.3404 13.0305C23.555 12.9956 23.5566 13.1963 23.3517 13.269C23.1357 13.3457 22.9285 13.4338 22.7285 13.5341ZM13.9036 19.4807C13.9169 19.4717 13.9301 19.4626 13.9432 19.4534C13.9663 19.4371 13.993 19.4218 14.0194 19.4114C14.3457 19.2826 14.3622 19.6766 14.049 19.8347C13.9779 19.8705 13.908 19.9083 13.8389 19.948C13.7923 19.9747 13.7426 19.9802 13.699 19.9353C13.6458 19.8807 13.6356 19.821 13.6596 19.748C13.7021 19.6189 13.8028 19.5499 13.9036 19.4807ZM8.77756 8.26751C8.78072 8.26348 8.7839 8.25953 8.78711 8.25566C8.98614 8.0158 9.5119 8.24865 9.39831 8.53889C9.34354 8.67885 9.25012 8.79146 9.0872 8.80726C8.92279 8.8232 8.8183 8.73047 8.73782 8.59716C8.66369 8.47438 8.70018 8.36633 8.77756 8.26751ZM6.74787 10.6347C6.83549 10.5113 7.01637 10.488 7.15121 10.5566C7.25958 10.6118 7.31919 10.7066 7.31819 10.8515C7.31717 10.9986 7.22581 11.1123 7.08556 11.1564C6.95415 11.1977 6.82961 11.157 6.7481 11.0387C6.6573 10.9069 6.65304 10.7682 6.74787 10.6347ZM37.4038 18.7727C37.3436 18.4404 37.9934 18.3062 38.0312 18.6418C38.0363 18.687 38.0278 18.7361 38.0051 18.7876C37.9429 18.9287 37.8445 19.0334 37.6703 19.0096C37.5306 18.9905 37.4296 18.9156 37.4038 18.7727ZM13.2456 17.5323C12.9928 17.6235 12.8952 17.0734 13.1631 17.0527C13.1735 17.0519 13.1844 17.0516 13.1956 17.0517C13.3205 17.0535 13.399 17.1341 13.4205 17.2565C13.4453 17.3973 13.366 17.4888 13.2456 17.5323ZM38.0181 16.2368C37.9637 16.377 37.7532 16.416 37.6454 16.3111C37.6147 16.2813 37.5926 16.2438 37.5763 16.2007C37.5331 16.0874 37.5993 16.0015 37.6796 15.9383C37.7719 15.8657 37.8725 15.8924 37.9574 15.9616C38.0474 16.0349 38.0577 16.1347 38.0181 16.2368ZM20.6287 3.06902C20.7019 2.95457 20.8939 2.95534 20.9718 3.06665C20.9734 3.06896 20.975 3.07133 20.9766 3.07375C21.0455 3.18187 21.042 3.28928 20.9456 3.37419C20.8508 3.4576 20.7372 3.4605 20.6442 3.37256C20.5496 3.28302 20.5625 3.17247 20.6287 3.06902ZM38.6006 21.7649C38.5548 21.7878 38.5117 21.7946 38.4732 21.7871C38.2405 21.7412 38.3817 21.2776 38.5989 21.373C38.6785 21.4079 38.7435 21.4733 38.7427 21.5675C38.7419 21.6604 38.6787 21.7257 38.6006 21.7649ZM37.3417 23.9274C37.337 23.9224 37.3324 23.9174 37.3276 23.9125C37.3187 23.9033 37.3122 23.8917 37.3107 23.8789C37.2858 23.6747 37.3622 23.5708 37.543 23.5924C37.6631 23.6067 37.7471 23.7015 37.7088 23.833C37.6662 23.9791 37.5541 24.0327 37.4071 23.9799C37.3823 23.971 37.362 23.9492 37.3417 23.9274ZM36.9281 14.3481C37.0558 14.548 36.6371 14.747 36.5607 14.5225C36.5577 14.5138 36.555 14.505 36.5526 14.4959C36.5243 14.3914 36.5945 14.3176 36.6843 14.2736C36.7849 14.2242 36.8732 14.262 36.9281 14.3481ZM27.796 4.70426C27.9631 4.59392 28.1346 4.90502 28.0044 5.05717C27.9629 5.10561 27.9023 5.11329 27.8283 5.0783C27.7525 5.04243 27.6695 4.99443 27.6753 4.89244C27.6798 4.81216 27.7305 4.74755 27.796 4.70426ZM33.8291 9.61731C34.0582 9.61687 34.037 10.0898 33.8204 10.0151C33.8047 10.0097 33.788 10.0019 33.7702 9.99128C33.6865 9.94145 33.637 9.86001 33.6681 9.75521C33.6914 9.67672 33.7451 9.61747 33.8291 9.61731ZM13.7854 4.74883C13.8729 4.94825 13.4194 5.06029 13.4234 4.84253C13.4234 4.84084 13.4235 4.83914 13.4235 4.83742C13.4269 4.73824 13.467 4.64761 13.5668 4.61697C13.6771 4.58312 13.7475 4.66257 13.7854 4.74883ZM22.5093 16.9552C23.14 16.9798 23.6106 17.2488 23.9219 17.772C24.0811 18.0396 24.1899 18.3292 24.2995 18.621C24.3392 18.7265 24.3791 18.8329 24.4214 18.938C24.4931 19.1163 24.4062 19.3106 24.2253 19.2458C24.1935 19.2344 24.162 19.2231 24.1304 19.2152C23.9285 19.165 23.7895 19.1869 23.6688 19.3998C23.4034 19.8682 22.9317 19.9817 22.4404 19.9958C21.6935 20.0172 21.0746 19.5134 20.9077 18.7792C20.7115 17.9164 21.3729 17.0264 22.2579 16.9631C22.3217 16.9585 22.3856 16.9574 22.4619 16.956L22.5093 16.9552ZM21.5532 18.1531C21.782 18.2627 21.9679 17.7705 21.7333 17.6739C21.6308 17.6317 21.5294 17.6592 21.461 17.7552C21.3896 17.8554 21.3764 17.9667 21.4531 18.065C21.4877 18.1093 21.5209 18.1376 21.5532 18.1531ZM23.5009 22.6533C23.3134 22.5989 23.1243 22.5523 22.9299 22.5159C22.5658 22.4478 22.1957 22.3939 21.8253 22.3973C21.7645 22.3979 21.7041 22.3985 21.6438 22.397C21.4608 22.3926 21.2817 22.4221 21.2717 22.6475C21.2616 22.8765 21.4531 22.9258 21.6248 22.9294C22.2223 22.9419 22.8085 23.0314 23.3916 23.1522C23.5621 23.1875 23.7084 23.1439 23.7565 22.9639C23.8109 22.7604 23.6537 22.6977 23.5009 22.6533ZM10.0567 20.6023C10.2189 20.5743 10.3851 20.5906 10.5448 20.6303C10.8413 20.7039 11.1203 20.7969 11.3797 20.9451C11.4955 21.0113 11.6009 21.0899 11.5267 21.2486C11.4588 21.394 11.3343 21.4529 11.1892 21.4025C10.8114 21.2714 10.4324 21.1485 10.0407 21.065C9.92272 21.0398 9.83813 20.9627 9.85144 20.8302C9.86346 20.7104 9.92958 20.6242 10.0567 20.6023ZM19.6542 24.5407C19.9303 24.5873 20.0633 24.0899 19.8127 23.9653C19.7656 23.9418 19.7113 23.9354 19.653 23.949C19.4591 23.9944 19.4075 24.1452 19.4335 24.3232C19.4512 24.4438 19.5336 24.5204 19.6542 24.5407ZM19.2793 23.1967C19.3485 23.4539 18.8958 23.6203 18.7549 23.3942C18.7465 23.3808 18.7387 23.3666 18.7314 23.3515C18.6848 23.2554 18.7 23.1539 18.7684 23.0626C18.8464 22.9585 18.9503 22.9446 19.0656 22.9657C19.1929 22.9891 19.2505 23.0896 19.2793 23.1967ZM18.2815 23.9071C18.2763 23.9076 18.2712 23.9088 18.2663 23.9106C18.0825 23.9793 18.014 24.1048 18.0629 24.2723C18.1052 24.4171 18.2232 24.4937 18.3755 24.4778C18.5309 24.4616 18.6201 24.3528 18.6283 24.2054C18.6387 24.0187 18.5058 23.942 18.3438 23.9057C18.3288 23.9023 18.3127 23.904 18.2815 23.9071ZM20.0694 22.6874C20.3634 22.8387 19.9891 23.3725 19.7534 23.1407C19.6422 23.0313 19.6578 22.8953 19.7368 22.7687C19.812 22.6483 19.9321 22.6246 20.0475 22.6769C20.055 22.6803 20.0623 22.6838 20.0694 22.6874ZM16.1911 22.7836C16.1543 22.9239 16.1962 23.033 16.349 23.1072C16.5285 23.1714 16.6254 23.0746 16.7041 22.9605C16.7611 22.8778 16.7532 22.7828 16.6916 22.6995C16.622 22.6054 16.5319 22.5478 16.4096 22.5654C16.2841 22.5836 16.2209 22.6701 16.1911 22.7836ZM17.8001 22.8615C18.0812 22.8933 18.0201 23.4481 17.738 23.4263C17.6141 23.4167 17.5116 23.3339 17.4862 23.2038C17.4557 23.0474 17.4908 22.9015 17.6724 22.868C17.7191 22.8594 17.7618 22.8572 17.8001 22.8615ZM13.265 23.2177C13.2067 23.1601 13.1471 23.1338 13.0896 23.1382C12.8115 23.1594 12.8257 23.7044 13.1045 23.704C13.212 23.7039 13.311 23.6508 13.3491 23.5469C13.3934 23.4261 13.3569 23.3084 13.265 23.2177ZM12.1045 22.4898C12.1023 22.4744 12.1024 22.4587 12.1053 22.4434C12.1126 22.4028 12.1179 22.374 12.1311 22.3494C12.2059 22.2101 12.3293 22.1671 12.4745 22.2029C12.6021 22.2343 12.6783 22.3287 12.6801 22.4601C12.682 22.5947 12.5915 22.683 12.4752 22.7223C12.3304 22.7713 12.2098 22.7129 12.1288 22.5836C12.1151 22.5617 12.111 22.5338 12.1055 22.496C12.1052 22.494 12.1049 22.4919 12.1045 22.4898ZM17.1256 24.1556C17.386 24.0546 17.2592 23.5777 16.9813 23.6046C16.9219 23.6104 16.8675 23.6447 16.8221 23.7078C16.7461 23.8138 16.7327 23.9276 16.8174 24.0363C16.8953 24.1363 16.9982 24.205 17.1256 24.1556ZM12.1859 23.163C12.3332 23.1586 12.4722 23.2693 12.4877 23.4158C12.4945 23.48 12.4774 23.5433 12.4341 23.606C12.3569 23.7182 12.2358 23.742 12.1173 23.6939C11.9875 23.6411 11.9215 23.5306 11.9502 23.3871C11.9751 23.2621 12.0419 23.1674 12.1859 23.163ZM13.6157 22.717C13.5033 22.7122 13.4602 22.5421 13.5708 22.5211C13.5833 22.5187 13.5969 22.5177 13.6117 22.518C13.644 22.5185 13.6749 22.5297 13.7024 22.5465C13.7411 22.5703 13.7747 22.5908 13.8124 22.5634C13.8619 22.5274 13.8452 22.4724 13.8194 22.4256C13.7571 22.3124 13.6533 22.2902 13.536 22.2997C13.4131 22.3096 13.3557 22.3931 13.3377 22.4995C13.312 22.6515 13.3815 22.7643 13.5169 22.8325C13.5557 22.852 13.5944 22.8672 13.6307 22.8699C13.737 22.878 13.7223 22.7215 13.6157 22.717ZM17.4305 9.41888C18.6245 9.19308 19.8003 9.15601 20.9869 9.30685C21.8982 9.42271 22.7717 9.66169 23.6225 9.99814C23.7913 10.0649 23.9228 10.1686 23.9464 10.3592C23.9645 10.5054 23.8651 10.6011 23.7576 10.6708C23.6276 10.755 23.4919 10.71 23.3613 10.6667C23.3458 10.6616 23.3303 10.6565 23.315 10.6516C22.8845 10.5149 22.4541 10.3805 22.0158 10.2685C20.4862 9.87774 18.9486 9.86793 17.4036 10.1522C17.2158 10.1867 17.0551 10.1608 16.9541 9.998C16.8718 9.86534 16.8896 9.71251 16.9924 9.59181C17.0952 9.47108 17.2474 9.44738 17.4153 9.42125L17.4305 9.41888ZM35.9825 20.4762C35.9128 19.9791 35.2362 19.6593 35.0174 20.1111C35.0008 20.1455 34.9848 20.1831 34.9695 20.2241C34.6481 21.0828 34.6035 21.9668 34.8095 22.8601C34.8578 23.0692 34.9699 23.2562 35.2022 23.2824C35.4261 23.3075 35.5544 23.1395 35.6552 22.9642C35.7144 22.8612 35.7713 22.7543 35.8102 22.6424C36.0561 21.936 36.0855 21.2102 35.9825 20.4762Z" fill="white"/>
<path d="M64.4202 22.0535C64.4202 22.7251 64.3048 23.3429 64.0741 23.9069C63.8434 24.4708 63.5229 24.9579 63.1128 25.368C62.7026 25.7782 62.2156 26.0986 61.6516 26.3293C61.0928 26.5549 60.4827 26.6677 59.8213 26.6677H57.1143C56.4529 26.6677 55.8402 26.5549 55.2762 26.3293C54.7123 26.0986 54.2252 25.7782 53.8151 25.368C53.4049 24.9579 53.0819 24.4708 52.8461 23.9069C52.6154 23.3429 52.5 22.7251 52.5 22.0535V19.9463C52.5 19.2798 52.6154 18.6646 52.8461 18.1006C53.0819 17.5315 53.4049 17.0444 53.8151 16.6394C54.2252 16.2292 54.7123 15.9088 55.2762 15.6781C55.8402 15.4474 56.4529 15.332 57.1143 15.332H59.8213C60.4827 15.332 61.0928 15.4474 61.6516 15.6781C62.2156 15.9088 62.7026 16.2292 63.1128 16.6394C63.5229 17.0444 63.8434 17.5315 64.0741 18.1006C64.3048 18.6646 64.4202 19.2798 64.4202 19.9463V22.0535ZM62.4207 19.9463C62.4207 19.5515 62.3566 19.1952 62.2284 18.8773C62.1053 18.5543 61.9285 18.28 61.6978 18.0544C61.4722 17.8237 61.1979 17.6469 60.8749 17.5238C60.557 17.3956 60.2058 17.3315 59.8213 17.3315H57.1143C56.7246 17.3315 56.3683 17.3956 56.0453 17.5238C55.7274 17.6469 55.4531 17.8237 55.2224 18.0544C54.9917 18.28 54.8123 18.5543 54.6841 18.8773C54.561 19.1952 54.4995 19.5515 54.4995 19.9463V22.0535C54.4995 22.4482 54.561 22.8071 54.6841 23.1301C54.8123 23.448 54.9917 23.7223 55.2224 23.953C55.4531 24.1786 55.7274 24.3555 56.0453 24.4836C56.3683 24.6067 56.7246 24.6682 57.1143 24.6682H59.8059C60.1956 24.6682 60.5493 24.6067 60.8672 24.4836C61.1902 24.3555 61.467 24.1786 61.6978 23.953C61.9285 23.7223 62.1053 23.448 62.2284 23.1301C62.3566 22.8071 62.4207 22.4482 62.4207 22.0535V19.9463Z" fill="white"/>
<path d="M76.2096 17.4854H71.803V26.5139H69.8035V17.4854H65.3892V15.4858H76.2096V17.4854Z" fill="white"/>
<path d="M87.653 17.4854H83.2463V26.5139H81.2468V17.4854H76.8325V15.4858H87.653V17.4854Z" fill="white"/>
<path d="M98.1965 22.0073H91.8827V19.9924H98.1965V22.0073ZM99.0963 26.5139H91.8827C91.6058 26.5139 91.3033 26.4652 90.9752 26.3678C90.6471 26.2704 90.342 26.1115 90.0601 25.891C89.7832 25.6654 89.5499 25.3757 89.3602 25.022C89.1757 24.6631 89.0834 24.2247 89.0834 23.7069V16.4933C89.0834 16.3549 89.109 16.2241 89.1603 16.1011C89.2115 15.978 89.2808 15.8704 89.3679 15.7781C89.4602 15.6858 89.5679 15.614 89.6909 15.5627C89.814 15.5115 89.9473 15.4858 90.0908 15.4858H99.0963V17.4854H91.0829V23.7069C91.0829 23.9684 91.1521 24.1683 91.2905 24.3068C91.429 24.4452 91.6315 24.5144 91.8981 24.5144H99.0963V26.5139Z" fill="white"/>
<path d="M112.055 19.1926C112.055 19.6489 111.998 20.0565 111.885 20.4154C111.773 20.7743 111.619 21.0922 111.424 21.369C111.234 21.6407 111.014 21.874 110.763 22.0688C110.511 22.2637 110.247 22.4252 109.971 22.5533C109.699 22.6764 109.422 22.7661 109.14 22.8225C108.863 22.8789 108.602 22.9071 108.356 22.9071L112.531 26.5139H109.44L105.272 22.9071H103.834V20.9076H108.356C108.607 20.8871 108.835 20.8358 109.04 20.7538C109.25 20.6666 109.43 20.5513 109.578 20.4077C109.732 20.2642 109.85 20.0924 109.932 19.8925C110.014 19.6874 110.055 19.4541 110.055 19.1926V17.9314C110.055 17.8186 110.04 17.734 110.009 17.6776C109.983 17.6161 109.948 17.5725 109.901 17.5469C109.86 17.5161 109.814 17.4982 109.763 17.493C109.717 17.4879 109.673 17.4854 109.632 17.4854H103.034V26.5139H101.034V16.4933C101.034 16.3549 101.06 16.2241 101.111 16.1011C101.162 15.978 101.232 15.8704 101.319 15.7781C101.411 15.6858 101.519 15.614 101.642 15.5627C101.765 15.5115 101.898 15.4858 102.042 15.4858H109.632C110.078 15.4858 110.455 15.5679 110.763 15.7319C111.07 15.8909 111.319 16.0934 111.509 16.3395C111.703 16.5804 111.842 16.8419 111.924 17.1239C112.011 17.4059 112.055 17.6699 112.055 17.916V19.1926Z" fill="white"/>
<path d="M129.689 23.2686C129.689 23.6633 129.638 24.0197 129.535 24.3375C129.438 24.6503 129.307 24.9271 129.143 25.1681C128.979 25.4091 128.786 25.6141 128.566 25.7833C128.346 25.9525 128.117 26.0909 127.882 26.1986C127.646 26.3063 127.405 26.3857 127.159 26.437C126.918 26.4883 126.69 26.5139 126.474 26.5139H118.761V24.5144H126.474C126.859 24.5144 127.156 24.4016 127.366 24.176C127.582 23.9504 127.689 23.6479 127.689 23.2686C127.689 23.084 127.661 22.9148 127.605 22.761C127.548 22.6072 127.466 22.4739 127.359 22.3611C127.256 22.2483 127.128 22.1611 126.974 22.0996C126.825 22.0381 126.659 22.0073 126.474 22.0073H121.875C121.552 22.0073 121.204 21.9509 120.829 21.8381C120.455 21.7202 120.107 21.5331 119.784 21.2767C119.466 21.0204 119.199 20.6846 118.984 20.2693C118.774 19.854 118.668 19.3464 118.668 18.7466C118.668 18.1467 118.774 17.6417 118.984 17.2316C119.199 16.8163 119.466 16.4805 119.784 16.2241C120.107 15.9626 120.455 15.7755 120.829 15.6627C121.204 15.5448 121.552 15.4858 121.875 15.4858H128.681V17.4854H121.875C121.496 17.4854 121.199 17.6007 120.983 17.8314C120.773 18.0621 120.668 18.3672 120.668 18.7466C120.668 19.1311 120.773 19.4362 120.983 19.6617C121.199 19.8822 121.496 19.9924 121.875 19.9924H126.49C126.705 19.9976 126.933 20.0283 127.174 20.0847C127.415 20.136 127.653 20.218 127.889 20.3308C128.13 20.4436 128.358 20.5872 128.574 20.7615C128.789 20.9307 128.979 21.1357 129.143 21.3767C129.312 21.6177 129.445 21.8945 129.543 22.2073C129.64 22.52 129.689 22.8738 129.689 23.2686Z" fill="white"/>
<path d="M142.34 20.1001C142.34 20.5564 142.283 20.964 142.17 21.3229C142.058 21.6818 141.904 21.9996 141.709 22.2765C141.519 22.5482 141.299 22.7815 141.048 22.9763C140.796 23.1711 140.532 23.3301 140.255 23.4531C139.984 23.5762 139.707 23.6659 139.425 23.7223C139.148 23.7787 138.887 23.8069 138.641 23.8069H134.119V21.8074H138.641C138.897 21.7869 139.128 21.7356 139.333 21.6536C139.543 21.5664 139.722 21.451 139.871 21.3075C140.02 21.1639 140.135 20.9922 140.217 20.7922C140.299 20.5872 140.34 20.3564 140.34 20.1001V19.1926C140.314 18.9414 140.261 18.7107 140.179 18.5005C140.097 18.2903 139.984 18.1108 139.84 17.9622C139.702 17.8135 139.533 17.6981 139.333 17.6161C139.133 17.5289 138.902 17.4854 138.641 17.4854H134.134C133.867 17.4854 133.665 17.5546 133.526 17.693C133.388 17.8314 133.319 18.0314 133.319 18.2928V26.5139H131.319V18.2928C131.319 17.7802 131.411 17.3444 131.596 16.9855C131.786 16.6266 132.019 16.3369 132.296 16.1165C132.578 15.896 132.883 15.7371 133.211 15.6396C133.539 15.5371 133.842 15.4858 134.119 15.4858H138.641C139.092 15.4858 139.497 15.5448 139.856 15.6627C140.214 15.7755 140.53 15.9293 140.802 16.1241C141.078 16.3138 141.312 16.5343 141.501 16.7855C141.696 17.0367 141.855 17.3008 141.978 17.5776C142.106 17.8494 142.199 18.1262 142.255 18.4082C142.311 18.6851 142.34 18.9465 142.34 19.1926V20.1001Z" fill="white"/>
<path d="M154.875 26.5139H152.875V23.8069H145.846V26.5139H143.847V20.9999C143.847 20.1949 143.985 19.4541 144.262 18.7773C144.539 18.1006 144.924 17.5187 145.416 17.0316C145.908 16.5446 146.49 16.1652 147.161 15.8934C147.833 15.6217 148.566 15.4858 149.361 15.4858H153.868C154.006 15.4858 154.137 15.5115 154.26 15.5627C154.383 15.614 154.49 15.6858 154.583 15.7781C154.675 15.8704 154.747 15.978 154.798 16.1011C154.849 16.2241 154.875 16.3549 154.875 16.4933V26.5139ZM145.846 21.8074H152.875V17.4854H149.361C149.299 17.4854 149.169 17.4956 148.969 17.5161C148.774 17.5315 148.546 17.5751 148.284 17.6469C148.028 17.7186 147.756 17.8289 147.469 17.9775C147.182 18.1262 146.918 18.3313 146.677 18.5928C146.436 18.8542 146.236 19.1824 146.077 19.5771C145.923 19.9668 145.846 20.441 145.846 20.9999V21.8074Z" fill="white"/>
<path d="M167.08 26.5139H159.866C159.682 26.5139 159.482 26.4934 159.266 26.4524C159.056 26.4062 158.846 26.337 158.636 26.2448C158.431 26.1525 158.233 26.0345 158.043 25.891C157.854 25.7423 157.685 25.5654 157.536 25.3604C157.392 25.1501 157.277 24.9092 157.19 24.6375C157.103 24.3606 157.059 24.0504 157.059 23.7069V18.2928C157.059 18.1083 157.08 17.9109 157.121 17.7007C157.167 17.4854 157.236 17.2751 157.328 17.0701C157.421 16.8599 157.541 16.6599 157.69 16.4702C157.838 16.2805 158.015 16.1139 158.22 15.9703C158.431 15.8217 158.672 15.7037 158.943 15.6166C159.215 15.5294 159.523 15.4858 159.866 15.4858H167.08V17.4854H159.866C159.605 17.4854 159.405 17.5546 159.266 17.693C159.128 17.8314 159.059 18.0365 159.059 18.3082V23.7069C159.059 23.9633 159.128 24.1632 159.266 24.3068C159.41 24.4452 159.61 24.5144 159.866 24.5144H167.08V26.5139Z" fill="white"/>
<path d="M178.039 22.0073H171.725V19.9924H178.039V22.0073ZM178.938 26.5139H171.725C171.448 26.5139 171.145 26.4652 170.817 26.3678C170.489 26.2704 170.184 26.1115 169.902 25.891C169.625 25.6654 169.392 25.3757 169.202 25.022C169.018 24.6631 168.925 24.2247 168.925 23.7069V16.4933C168.925 16.3549 168.951 16.2241 169.002 16.1011C169.054 15.978 169.123 15.8704 169.21 15.7781C169.302 15.6858 169.41 15.614 169.533 15.5627C169.656 15.5115 169.789 15.4858 169.933 15.4858H178.938V17.4854H170.925V23.7069C170.925 23.9684 170.994 24.1683 171.133 24.3068C171.271 24.4452 171.474 24.5144 171.74 24.5144H178.938V26.5139Z" fill="white"/>
</svg>
