<svg width="32" height="32" viewBox="0 0 32 32" fill="none" xmlns="http://www.w3.org/2000/svg">
<path d="M19.7221 7.12298C19.823 7.16148 19.9249 7.19705 20.0271 7.232C20.4856 7.39415 20.9058 7.60286 21.3321 7.836C21.3855 7.86508 21.439 7.89416 21.4941 7.92412C21.8003 8.09482 22.081 8.27948 22.3551 8.49826C22.4703 8.58853 22.4703 8.58853 22.6561 8.64C22.6983 8.68224 22.7405 8.72448 22.7841 8.768C22.7841 8.56924 22.7495 8.48943 22.6561 8.32C22.7194 8.32 22.7828 8.32 22.8481 8.32C22.8692 8.27776 22.8903 8.23552 22.9121 8.192C23.3977 7.95782 23.7707 7.97829 24.2761 8.148C24.4848 8.23298 24.6279 8.33094 24.7681 8.512C24.7681 8.55424 24.7681 8.59648 24.7681 8.64C24.809 8.65584 24.8499 8.67168 24.8921 8.688C25.0241 8.768 25.0241 8.768 25.0721 8.904C25.0773 8.9436 25.0826 8.9832 25.0881 9.024C25.1303 9.024 25.1725 9.024 25.2161 9.024C25.4926 9.69819 25.6195 10.3674 25.3441 11.064C25.303 11.1527 25.2609 11.2411 25.2161 11.328C25.1738 11.328 25.1316 11.328 25.0881 11.328C24.9859 11.0399 24.8929 10.7558 24.8321 10.456C24.7779 10.1941 24.6854 9.97147 24.5761 9.728C24.5761 9.68576 24.5761 9.64352 24.5761 9.6C24.5338 9.6 24.4916 9.6 24.4481 9.6C24.3926 9.52476 24.3926 9.52476 24.3361 9.448C24.1662 9.24985 24.063 9.19883 23.8081 9.152C23.6278 9.20047 23.6278 9.20047 23.4881 9.28C23.4881 9.4626 23.5737 9.51533 23.6961 9.648C24.2574 10.276 24.7245 11.1411 24.8081 11.988C24.844 12.2002 24.8795 12.2726 25.0398 12.421C25.1624 12.5073 25.2864 12.5915 25.4118 12.6737C26.2944 13.2656 26.8677 14.2812 27.1196 15.2952C27.2871 16.1616 27.2971 17.1667 26.8118 17.9382C26.771 17.9956 26.7301 18.0529 26.6881 18.112C26.663 18.1635 26.6379 18.215 26.6121 18.268C26.3379 18.6556 25.8824 18.9904 25.4081 19.072C24.5608 19.1013 23.87 18.694 23.2321 18.176C23.2321 18.1338 23.2321 18.0915 23.2321 18.048C23.1859 18.0322 23.1397 18.0163 23.0921 18C22.9121 17.92 22.9121 17.92 22.7601 17.788C22.5258 17.6151 22.3021 17.6 22.0161 17.6C22.0161 17.6422 22.0161 17.6845 22.0161 17.728C21.7354 17.92 21.7354 17.92 21.5681 17.92C21.5681 17.9622 21.5681 18.0045 21.5681 18.048C21.5309 18.0674 21.4938 18.0868 21.4556 18.1067C21.2175 18.2344 20.9918 18.3573 20.7881 18.536C20.606 18.6897 20.4389 18.7792 20.2241 18.88C20.129 18.9394 20.129 18.9394 20.0321 19C19.407 19.3585 18.686 19.5194 17.9841 19.648C17.8873 19.6659 17.8873 19.6659 17.7886 19.6842C17.0287 19.7961 16.2568 19.6902 15.5521 19.392C15.5521 19.3498 15.5521 19.3075 15.5521 19.264C15.6365 19.2429 15.721 19.2218 15.8081 19.2C15.8081 19.1578 15.8081 19.1155 15.8081 19.072C15.9576 18.9615 15.9576 18.9615 16.1521 18.84C16.2159 18.7996 16.2798 18.7591 16.3456 18.7175C16.5121 18.624 16.5121 18.624 16.6401 18.624C16.6612 18.5606 16.6823 18.4973 16.7041 18.432C16.7868 18.3442 16.8719 18.2584 16.9601 18.176C16.8967 18.0176 16.8967 18.0176 16.8321 17.856C16.5868 17.8503 16.3671 17.8638 16.1281 17.92C16.1281 17.9622 16.1281 18.0045 16.1281 18.048C15.9668 18.1562 15.9668 18.1562 15.7561 18.276C15.687 18.3157 15.6179 18.3554 15.5468 18.3962C15.3601 18.496 15.3601 18.496 15.1681 18.56C15.1681 18.6022 15.1681 18.6445 15.1681 18.688C14.8217 18.944 14.8217 18.944 14.6561 18.944C14.6561 18.9862 14.6561 19.0285 14.6561 19.072C14.5626 19.1545 14.5626 19.1545 14.4401 19.24C14.4 19.2685 14.3599 19.2971 14.3186 19.3265C14.2081 19.392 14.2081 19.392 14.0801 19.392C14.0643 19.4288 14.0484 19.4655 14.0322 19.5034C13.9393 19.671 13.8319 19.7806 13.6943 19.9137C13.6436 19.9635 13.5929 20.0132 13.5407 20.0644C13.4338 20.1679 13.327 20.2714 13.2202 20.3749C13.1694 20.4247 13.1186 20.4744 13.0663 20.5257C13.0199 20.5707 12.9734 20.6157 12.9256 20.662C12.7928 20.7986 12.7928 20.7986 12.6954 20.9771C12.6666 21.0243 12.6378 21.0714 12.6081 21.12C12.5658 21.12 12.5236 21.12 12.4801 21.12C12.4573 21.1861 12.4573 21.1861 12.4341 21.2535C12.336 21.4765 12.205 21.6668 12.0641 21.864C12.0127 21.9368 11.9614 22.0097 11.9101 22.0825C11.8658 22.145 11.8216 22.2076 11.7761 22.272C11.7338 22.3354 11.6916 22.3987 11.6481 22.464C11.6801 22.6667 11.6801 22.6667 11.7761 22.848C11.8928 22.9279 11.8928 22.9279 12.0321 22.912C12.1686 22.8229 12.1686 22.8229 12.2881 22.72C12.3303 22.72 12.3725 22.72 12.4161 22.72C12.4319 22.6751 12.4477 22.6302 12.4641 22.584C12.8089 21.7909 13.5307 21.0784 14.1441 20.48C14.2361 20.3881 14.3281 20.2961 14.4201 20.204C14.4987 20.1253 14.5774 20.0467 14.6561 19.968C14.7374 19.9945 14.8188 20.0212 14.9001 20.048C14.9529 20.0653 15.0058 20.0826 15.0603 20.1005C15.1739 20.1398 15.2865 20.1822 15.3978 20.2275C15.8566 20.4121 16.2753 20.467 16.7681 20.48C16.8322 20.4818 16.8963 20.4836 16.9623 20.4855C17.7355 20.4957 18.5476 20.4846 19.2603 20.1537C19.4333 20.0779 19.6105 20.0164 19.7881 19.952C20.1636 19.81 20.4951 19.6282 20.8346 19.4147C20.9921 19.328 20.9921 19.328 21.1841 19.328C21.1841 19.2858 21.1841 19.2435 21.1841 19.2C21.3108 19.1578 21.4375 19.1155 21.5681 19.072C21.5681 19.0298 21.5681 18.9875 21.5681 18.944C21.6948 18.9018 21.8215 18.8595 21.9521 18.816C21.9521 18.7738 21.9521 18.7315 21.9521 18.688C22.0801 18.584 22.0801 18.584 22.2081 18.496C22.3996 18.5857 22.5662 18.6902 22.7361 18.816C22.8039 18.8655 22.8039 18.8655 22.8731 18.916C22.907 18.9464 22.941 18.9767 22.9761 19.008C22.9761 19.0502 22.9761 19.0925 22.9761 19.136C23.0196 19.1518 23.0632 19.1677 23.1081 19.184C23.2961 19.264 23.2961 19.264 23.4881 19.38C23.8286 19.581 24.2061 19.7043 24.5761 19.84C24.5168 19.9152 24.4566 19.9898 24.3961 20.064C24.3626 20.1056 24.3292 20.1472 24.2948 20.19C24.1921 20.288 24.1921 20.288 24.0001 20.288C24.0001 20.3302 24.0001 20.3725 24.0001 20.416C23.9367 20.416 23.8733 20.416 23.8081 20.416C23.8081 20.4582 23.8081 20.5005 23.8081 20.544C23.6386 20.6375 23.5588 20.672 23.3601 20.672C23.3601 20.7142 23.3601 20.7565 23.3601 20.8C22.5228 21.223 21.7128 21.6012 20.8001 21.824C20.7289 21.8435 20.6577 21.8629 20.5843 21.883C19.7504 22.0994 18.9 22.086 18.0445 22.0911C17.9549 22.0917 17.8653 22.0924 17.7757 22.0934C17.0207 22.1002 16.3006 22.0312 15.5721 21.828C15.4922 21.8062 15.4123 21.7844 15.3301 21.762C15.0819 21.6895 14.8377 21.6082 14.5953 21.5182C14.4561 21.4902 14.4561 21.4902 14.3218 21.585C14.1804 21.723 14.1649 21.8227 14.1441 22.016C14.4273 22.2828 14.7293 22.3834 15.0921 22.5C15.1815 22.5292 15.1815 22.5292 15.2728 22.5589C17.9283 23.4006 20.7982 22.9326 23.2976 21.812C23.4241 21.76 23.4241 21.76 23.5521 21.76C23.5324 21.8179 23.5324 21.8179 23.5123 21.877C23.4864 21.9537 23.4864 21.9537 23.4601 22.032C23.443 22.0825 23.4259 22.133 23.4083 22.185C23.3652 22.3199 23.3286 22.4542 23.2961 22.592C23.2538 22.592 23.2116 22.592 23.1681 22.592C23.1588 22.6422 23.1496 22.6923 23.1401 22.744C23.1041 22.912 23.1041 22.912 23.0401 23.04C22.9978 23.04 22.9556 23.04 22.9121 23.04C22.8949 23.0862 22.8777 23.1324 22.8601 23.18C22.7841 23.3598 22.7025 23.519 22.5921 23.68C22.5498 23.68 22.5076 23.68 22.4641 23.68C22.4588 23.717 22.4535 23.7539 22.4481 23.792C22.3853 23.9801 22.2884 24.0554 22.1441 24.192C22.0439 24.3106 21.9453 24.4304 21.8476 24.551C21.8187 24.5804 21.7898 24.6097 21.7601 24.64C21.7178 24.64 21.6756 24.64 21.6321 24.64C21.6321 24.6822 21.6321 24.7245 21.6321 24.768C21.4983 24.8829 21.3646 24.9901 21.2241 25.096C21.1854 25.1259 21.1468 25.1559 21.1071 25.1867C20.8168 25.408 20.8168 25.408 20.6721 25.408C20.6721 25.4502 20.6721 25.4925 20.6721 25.536C18.7432 26.9527 15.9509 27.4892 13.6081 27.132C11.8641 26.8344 9.98041 26.2309 8.64005 25.024C8.64005 24.9818 8.64005 24.9395 8.64005 24.896C8.60573 24.8802 8.57141 24.8643 8.53605 24.848C8.34678 24.7484 8.17303 24.6378 8.00005 24.512C8.00005 24.4698 8.00005 24.4275 8.00005 24.384C7.94461 24.3602 7.94461 24.3602 7.88805 24.336C7.72297 24.2443 7.61214 24.1418 7.48805 24C7.48805 23.9578 7.48805 23.9155 7.48805 23.872C7.42469 23.8509 7.36133 23.8298 7.29605 23.808C7.20939 23.6809 7.12424 23.5528 7.04005 23.424C6.96679 23.3527 6.96679 23.3527 6.89205 23.28C6.69191 23.0752 6.53841 22.8539 6.37755 22.6177C6.27512 22.4642 6.27512 22.4642 6.16255 22.3282C6.08005 22.208 6.08005 22.208 6.08005 22.016C6.03781 22.016 5.99557 22.016 5.95205 22.016C5.82565 21.7484 5.69952 21.4808 5.57405 21.2127C5.49943 21.0535 5.42382 20.895 5.34605 20.7372C4.99842 20.0186 4.7819 19.2216 4.67205 18.432C4.6657 18.3875 4.65935 18.3431 4.6528 18.2972C4.63433 18.1503 4.62066 18.0036 4.60805 17.856C4.60137 17.7831 4.59469 17.7103 4.5878 17.6352C4.49751 16.4865 4.53589 15.348 4.99205 14.272C5.04395 14.2997 5.09584 14.3274 5.1493 14.356C5.75462 14.6604 6.20793 14.7706 6.86005 14.56C6.9418 14.5291 7.02332 14.4975 7.10405 14.464C7.10405 14.4218 7.10405 14.3795 7.10405 14.336C7.14629 14.3149 7.18853 14.2938 7.23205 14.272C7.17554 14.2703 7.11903 14.2687 7.0608 14.267C6.46752 14.239 5.94156 14.1583 5.44005 13.824C5.44005 13.7818 5.44005 13.7395 5.44005 13.696C5.37273 13.6782 5.37273 13.6782 5.30405 13.66C5.05341 13.5347 4.89389 13.35 4.73605 13.12C4.73605 13.0778 4.73605 13.0355 4.73605 12.992C4.69381 12.992 4.65157 12.992 4.60805 12.992C4.22741 12.2175 3.8998 11.4232 4.15555 10.5485C4.29953 10.1691 4.4658 9.8205 4.67205 9.472C4.71429 9.472 4.75653 9.472 4.80005 9.472C4.82117 9.40864 4.84229 9.34528 4.86405 9.28C5.02805 9.204 5.02805 9.204 5.18405 9.152C5.18405 9.10976 5.18405 9.06752 5.18405 9.024C6.02496 8.63801 6.64097 8.513 7.54755 8.81775C7.82044 8.92642 8.07182 9.05949 8.32005 9.216C8.32005 9.25824 8.32005 9.30048 8.32005 9.344C8.35437 9.35852 8.38869 9.37304 8.42405 9.388C8.62629 9.49976 8.78519 9.64098 8.96005 9.792C8.87489 9.4892 8.6918 9.29941 8.4838 9.07325C8.38405 8.96 8.38405 8.96 8.32005 8.832C8.62405 8.576 8.62405 8.576 8.76805 8.576C8.76805 8.53376 8.76805 8.49152 8.76805 8.448C8.83141 8.448 8.89477 8.448 8.96005 8.448C8.96005 8.40576 8.96005 8.36352 8.96005 8.32C9.07305 8.23925 9.07305 8.23925 9.23205 8.148C9.29055 8.11425 9.34904 8.08051 9.4093 8.04575C9.50373 7.99142 9.50373 7.99142 9.60005 7.936C9.66234 7.8978 9.72463 7.8596 9.7888 7.82025C10.1468 7.60262 10.4925 7.42693 10.8898 7.29375C11.0922 7.22517 11.2895 7.14699 11.4881 7.068C12.1676 6.8072 12.8502 6.66582 13.5661 6.54981C13.6784 6.53096 13.7903 6.50947 13.9021 6.4875C15.7942 6.14825 17.9341 6.43431 19.7221 7.12298ZM6.08005 10.368C6.08005 10.4102 6.08005 10.4525 6.08005 10.496C6.04309 10.5105 6.00613 10.525 5.96805 10.54C5.72356 10.6826 5.59964 10.8713 5.48805 11.128C5.38327 11.5646 5.42809 11.9544 5.63205 12.352C5.98356 12.8378 6.3724 13.1967 6.97605 13.312C7.12589 13.2945 7.27541 13.2737 7.42405 13.248C7.42071 13.1945 7.42071 13.1945 7.4173 13.14C7.40394 12.7632 7.46703 12.5057 7.61605 12.16C7.64773 12.065 7.64773 12.065 7.68005 11.968C7.74341 11.9469 7.80677 11.9258 7.87205 11.904C7.87205 11.8618 7.87205 11.8195 7.87205 11.776C7.93541 11.7549 7.99877 11.7338 8.06405 11.712C8.06405 11.6698 8.06405 11.6275 8.06405 11.584C8.14853 11.5629 8.23301 11.5418 8.32005 11.52C8.26995 11.4343 8.21916 11.3491 8.16805 11.264C8.13984 11.2165 8.11162 11.169 8.08255 11.12C8.05533 11.083 8.0281 11.0461 8.00005 11.008C7.95781 11.008 7.91557 11.008 7.87205 11.008C7.82981 10.9235 7.78757 10.839 7.74405 10.752C7.70181 10.752 7.65957 10.752 7.61605 10.752C7.61605 10.7098 7.61605 10.6675 7.61605 10.624C7.11397 10.2321 6.67666 10.1844 6.08005 10.368ZM23.2321 10.624C23.2321 10.6662 23.2321 10.7085 23.2321 10.752C23.1687 10.7837 23.1687 10.7837 23.1041 10.816C23.088 11.2185 23.1353 11.5028 23.3601 11.84C23.5254 11.856 23.5254 11.856 23.6801 11.84C23.7618 11.4146 23.7383 11.1452 23.5521 10.752C23.5098 10.7098 23.4676 10.6675 23.4241 10.624C23.3607 10.624 23.2973 10.624 23.2321 10.624ZM14.3361 11.584C14.0136 11.8943 13.8843 12.2843 13.8681 12.724C13.8735 13.0519 13.9575 13.33 14.0801 13.632C14.1223 13.632 14.1645 13.632 14.2081 13.632C14.2318 13.6914 14.2318 13.6914 14.2561 13.752C14.3527 13.9163 14.4181 13.9438 14.5921 14.016C14.7339 14.0494 14.7339 14.0494 14.8801 14.064C14.9523 14.0734 14.9523 14.0734 15.0261 14.083C15.1902 14.0795 15.284 14.0347 15.4241 13.952C15.4241 13.9098 15.4241 13.8675 15.4241 13.824C15.4632 13.8096 15.5024 13.7951 15.5428 13.7802C15.7719 13.6396 15.8099 13.427 15.8913 13.1805C15.9926 12.754 15.9006 12.3968 15.6903 12.0185C15.5229 11.7603 15.3667 11.6146 15.0841 11.492C14.8015 11.4489 14.5927 11.4519 14.3361 11.584ZM19.8481 13.42C19.6228 13.7028 19.4818 13.9716 19.4561 14.336C19.5435 15.0838 19.9698 15.5571 20.5323 16.0205C21.2149 16.535 22.0291 16.9497 22.9121 16.832C23.2419 16.7547 23.5611 16.6467 23.8721 16.512C23.8721 16.4698 23.8721 16.4275 23.8721 16.384C23.9117 16.3748 23.9513 16.3655 23.9921 16.356C24.1301 16.3244 24.1301 16.3244 24.2561 16.256C24.2561 16.2138 24.2561 16.1715 24.2561 16.128C24.2927 16.124 24.3293 16.1199 24.3671 16.1157C24.5722 16.0425 24.6518 15.9187 24.7841 15.748C24.8293 15.6907 24.8745 15.6333 24.9211 15.5742C25.0361 15.4368 25.0361 15.4368 25.0241 15.296C25.0663 15.296 25.1085 15.296 25.1521 15.296C25.4067 14.7617 25.5164 14.2979 25.3241 13.724C25.2884 13.6514 25.2528 13.5788 25.2161 13.504C25.1527 13.4829 25.0893 13.4618 25.0241 13.44C24.9924 13.345 24.9924 13.345 24.9601 13.248C24.9178 13.248 24.8756 13.248 24.8321 13.248C24.8004 13.153 24.8004 13.153 24.7681 13.056C24.2995 12.7817 23.8305 12.6457 23.2961 12.596C23.2477 12.5908 23.1994 12.5855 23.1496 12.5801C22.0295 12.4656 20.6738 12.5595 19.8481 13.42ZM15.4847 15.4077C15.3942 15.4132 15.3037 15.4185 15.2131 15.4237C14.7173 15.4518 14.2424 15.4925 13.7601 15.616C13.5869 15.6464 13.4135 15.6745 13.2398 15.7017C13.044 15.7468 12.8667 15.8134 12.6798 15.8859C12.4571 15.9681 12.2286 16.0285 12.0001 16.092C11.6744 16.185 11.3695 16.2775 11.0743 16.447C10.8924 16.5378 10.7011 16.5924 10.5081 16.656C10.2252 16.7588 10.2252 16.7588 10.0093 16.9572C9.92569 17.154 9.90797 17.3027 9.96805 17.508C10.1676 17.6355 10.3082 17.6065 10.5376 17.5777C10.7174 17.5279 10.8486 17.4407 11.0081 17.344C11.1495 17.2889 11.2924 17.2371 11.4361 17.188C11.6982 17.0974 11.9544 17.004 12.2081 16.892C12.6386 16.7156 13.0987 16.6356 13.5528 16.5422C13.6986 16.5115 13.8436 16.4782 13.9888 16.4447C14.7576 16.2732 15.6291 16.1581 16.4161 16.208C16.6503 16.2113 16.6503 16.2113 16.8361 16.048C16.9706 15.8898 16.9706 15.8898 16.9681 15.74C16.8654 15.5632 16.7465 15.471 16.5761 15.36C16.2114 15.36 15.8485 15.3851 15.4847 15.4077ZM15.0956 17.0635C15.0445 17.0862 14.9935 17.1089 14.9409 17.1322C14.8865 17.1572 14.8321 17.1822 14.7761 17.208C14.7195 17.2339 14.6629 17.2597 14.6045 17.2864C13.7726 17.6727 12.9886 18.094 12.2751 18.6735C12.0961 18.816 12.0961 18.816 11.8811 18.9545C11.8253 18.9933 11.7695 19.032 11.7121 19.072C11.7121 19.1142 11.7121 19.1565 11.7121 19.2C11.5853 19.2317 11.5853 19.2317 11.4561 19.264C11.4561 19.3062 11.4561 19.3485 11.4561 19.392C11.4191 19.4092 11.3821 19.4263 11.3441 19.444C11.1965 19.5219 11.0707 19.6034 10.9441 19.712C10.9441 19.7542 10.9441 19.7965 10.9441 19.84C10.9071 19.8572 10.8701 19.8743 10.8321 19.892C10.6845 19.9699 10.5587 20.0514 10.4321 20.16C10.4321 20.2022 10.4321 20.2445 10.4321 20.288C10.3898 20.288 10.3476 20.288 10.3041 20.288C10.3041 20.3302 10.3041 20.3725 10.3041 20.416C10.2618 20.416 10.2196 20.416 10.1761 20.416C10.1761 20.4582 10.1761 20.5005 10.1761 20.544C10.1338 20.544 10.0916 20.544 10.0481 20.544C10.0481 20.5862 10.0481 20.6285 10.0481 20.672C9.99113 20.6967 9.99113 20.6967 9.93305 20.722C9.78075 20.8062 9.69543 20.8912 9.58405 21.024C9.55072 21.0629 9.51739 21.1019 9.48305 21.142C9.39573 21.2438 9.39573 21.2438 9.40805 21.376C9.31301 21.4077 9.31301 21.4077 9.21605 21.44C9.19493 21.609 9.17381 21.7779 9.15205 21.952C9.37722 22.1021 9.46295 22.1171 9.72805 22.08C9.90138 21.9387 9.90138 21.9387 10.0481 21.76C10.1213 21.6907 10.1213 21.6907 10.1961 21.62C10.3186 21.5148 10.3186 21.5148 10.3041 21.376C10.3463 21.376 10.3885 21.376 10.4321 21.376C10.5707 21.2587 10.5707 21.2587 10.6881 21.12C10.6881 21.0778 10.6881 21.0355 10.6881 20.992C10.725 20.9748 10.762 20.9577 10.8001 20.94C10.9476 20.8621 11.0734 20.7806 11.2001 20.672C11.2001 20.6298 11.2001 20.5875 11.2001 20.544C11.2423 20.544 11.2845 20.544 11.3281 20.544C11.3281 20.5018 11.3281 20.4595 11.3281 20.416C11.3634 20.4005 11.3987 20.385 11.4351 20.369C11.6166 20.2703 11.7619 20.1489 11.9201 20.016C12.6716 19.3922 12.6716 19.3922 12.9281 19.264C12.9281 19.2218 12.9281 19.1795 12.9281 19.136C12.9716 19.1215 13.0152 19.107 13.0601 19.092C13.2482 19.0079 13.3981 18.9008 13.5633 18.779C13.8285 18.5972 14.1154 18.4526 14.4001 18.304C14.4545 18.2755 14.509 18.2469 14.5651 18.2175C14.8338 18.0798 15.1014 17.9584 15.3841 17.852C15.6184 17.7617 15.7773 17.6741 15.9361 17.472C15.8548 17.1632 15.8548 17.1632 15.6161 16.96C15.3813 16.96 15.2985 16.9729 15.0956 17.0635Z" fill="#F6F6F6"/>
<path d="M22.208 18.496C22.3995 18.5857 22.5661 18.6902 22.736 18.816C22.7812 18.849 22.8264 18.882 22.873 18.916C22.924 18.9615 22.924 18.9615 22.976 19.008C22.976 19.0502 22.976 19.0925 22.976 19.136C23.0195 19.1518 23.0631 19.1677 23.108 19.184C23.296 19.264 23.296 19.264 23.488 19.38C23.8285 19.581 24.206 19.7043 24.576 19.84C24.5167 19.9152 24.4565 19.9898 24.396 20.064C24.3626 20.1056 24.3291 20.1472 24.2947 20.19C24.192 20.288 24.192 20.288 24 20.288C24 20.3302 24 20.3725 24 20.416C23.9366 20.416 23.8732 20.416 23.808 20.416C23.808 20.4582 23.808 20.5005 23.808 20.544C23.6385 20.6375 23.5587 20.672 23.36 20.672C23.36 20.7142 23.36 20.7565 23.36 20.8C22.5227 21.223 21.7128 21.6012 20.8 21.824C20.7288 21.8435 20.6576 21.8629 20.5842 21.883C19.7503 22.0994 18.8999 22.086 18.0444 22.0912C17.9548 22.0917 17.8652 22.0924 17.7756 22.0934C17.0206 22.1002 16.3006 22.0312 15.572 21.828C15.4921 21.8062 15.4122 21.7844 15.33 21.762C15.0818 21.6895 14.8376 21.6083 14.5952 21.5183C14.456 21.4902 14.456 21.4902 14.3217 21.585C14.1803 21.723 14.1649 21.8227 14.144 22.016C14.4272 22.2828 14.7292 22.3834 15.092 22.5C15.1814 22.5292 15.1814 22.5292 15.2727 22.5589C17.7053 23.3299 20.1494 22.948 22.5032 22.1302C22.6387 22.0857 22.7732 22.0484 22.912 22.016C22.8402 22.2314 22.7837 22.276 22.612 22.416C22.4369 22.5637 22.2839 22.7099 22.14 22.888C21.9529 23.1151 21.7524 23.2664 21.504 23.424C21.4617 23.424 21.4195 23.424 21.376 23.424C21.3548 23.4874 21.3337 23.5507 21.312 23.616C21.2221 23.6992 21.2221 23.6992 21.106 23.7825C21.0627 23.8136 21.0194 23.8447 20.9748 23.8767C20.9277 23.9095 20.8805 23.9423 20.832 23.976C20.759 24.0269 20.759 24.0269 20.6847 24.0789C19.0153 25.2219 17.0825 25.8722 15.0583 25.508C14.491 25.389 13.9221 25.1534 13.44 24.832C13.44 24.7898 13.44 24.7475 13.44 24.704C13.3824 24.6881 13.3248 24.6722 13.2655 24.6558C12.6972 24.4394 12.2826 23.794 11.968 23.296C11.9224 23.1906 11.8787 23.0842 11.84 22.976C12.0309 22.8784 12.2123 22.7879 12.416 22.72C12.4612 22.6144 12.5034 22.5075 12.544 22.4C12.963 21.696 13.5589 21.0508 14.144 20.48C14.2361 20.3881 14.328 20.2961 14.42 20.204C14.4986 20.1253 14.5773 20.0467 14.656 19.968C14.7373 19.9945 14.8187 20.0212 14.9 20.048C14.9528 20.0653 15.0057 20.0827 15.0602 20.1005C15.1738 20.1398 15.2864 20.1822 15.3977 20.2275C15.8565 20.4121 16.2752 20.467 16.768 20.48C16.8321 20.4818 16.8962 20.4836 16.9622 20.4855C17.7354 20.4957 18.5475 20.4846 19.2602 20.1538C19.4332 20.0779 19.6104 20.0164 19.788 19.952C20.1636 19.81 20.495 19.6282 20.8345 19.4148C20.992 19.328 20.992 19.328 21.184 19.328C21.184 19.2858 21.184 19.2435 21.184 19.2C21.3107 19.1578 21.4374 19.1155 21.568 19.072C21.568 19.0298 21.568 18.9875 21.568 18.944C21.6947 18.9018 21.8214 18.8595 21.952 18.816C21.952 18.7738 21.952 18.7315 21.952 18.688C22.08 18.584 22.08 18.584 22.208 18.496Z" fill="#CFCFCF"/>
<path d="M22.208 18.496C22.3995 18.5857 22.5661 18.6902 22.736 18.816C22.7812 18.849 22.8264 18.882 22.873 18.916C22.924 18.9615 22.924 18.9615 22.976 19.008C22.976 19.0502 22.976 19.0925 22.976 19.136C23.0196 19.1518 23.0631 19.1677 23.108 19.184C23.296 19.264 23.296 19.264 23.488 19.38C23.8285 19.581 24.2061 19.7043 24.576 19.84C24.5167 19.9152 24.4565 19.9898 24.396 20.064C24.3626 20.1056 24.3292 20.1472 24.2948 20.19C24.192 20.288 24.192 20.288 24 20.288C24 20.3302 24 20.3725 24 20.416C23.9366 20.416 23.8733 20.416 23.808 20.416C23.808 20.4582 23.808 20.5005 23.808 20.544C23.6386 20.6375 23.5588 20.672 23.36 20.672C23.36 20.7142 23.36 20.7565 23.36 20.8C23.0769 20.9571 22.8309 21.0315 22.5115 21.0808C22.4672 21.0876 22.4228 21.0945 22.3772 21.1015C22.2329 21.1233 22.0885 21.1438 21.944 21.164C21.8945 21.1711 21.845 21.1781 21.794 21.1854C20.027 21.4331 17.5659 21.588 16 20.544C16.0803 20.545 16.0803 20.545 16.1623 20.546C16.3631 20.5482 16.564 20.5498 16.7648 20.551C16.8937 20.552 17.0225 20.5536 17.1513 20.5553C17.5818 20.5574 17.9568 20.5451 18.368 20.416C18.4652 20.3955 18.5625 20.3754 18.66 20.356C18.8721 20.3092 19.0625 20.2456 19.2603 20.1538C19.4332 20.0779 19.6105 20.0164 19.788 19.952C20.1636 19.81 20.495 19.6282 20.8345 19.4148C20.992 19.328 20.992 19.328 21.184 19.328C21.184 19.2858 21.184 19.2435 21.184 19.2C21.3107 19.1578 21.4374 19.1155 21.568 19.072C21.568 19.0298 21.568 18.9875 21.568 18.944C21.6947 18.9018 21.8214 18.8595 21.952 18.816C21.952 18.7738 21.952 18.7315 21.952 18.688C22.08 18.584 22.08 18.584 22.208 18.496Z" fill="#F4F4F4"/>
<path d="M15.296 17.792C15.4363 17.8221 15.5496 17.8547 15.676 17.924C15.8348 17.9962 15.9554 17.9936 16.128 17.984C15.9473 18.1213 15.7639 18.2528 15.576 18.38C15.5263 18.4139 15.4767 18.4478 15.4255 18.4827C15.296 18.56 15.296 18.56 15.168 18.56C15.168 18.6022 15.168 18.6445 15.168 18.688C14.8216 18.944 14.8216 18.944 14.656 18.944C14.656 18.9862 14.656 19.0285 14.656 19.072C14.5625 19.1545 14.5625 19.1545 14.44 19.24C14.3999 19.2685 14.3598 19.2971 14.3185 19.3265C14.208 19.392 14.208 19.392 14.08 19.392C14.0642 19.4288 14.0484 19.4655 14.0321 19.5034C13.9393 19.671 13.8318 19.7806 13.6942 19.9137C13.6435 19.9635 13.5928 20.0132 13.5406 20.0644C13.4338 20.1679 13.3269 20.2714 13.2201 20.3749C13.1693 20.4247 13.1186 20.4745 13.0662 20.5257C13.0198 20.5707 12.9733 20.6157 12.9255 20.662C12.7927 20.7986 12.7927 20.7986 12.6953 20.9771C12.6665 21.0243 12.6377 21.0714 12.608 21.12C12.5657 21.12 12.5235 21.12 12.48 21.12C12.4649 21.164 12.4498 21.2079 12.4342 21.2532C12.3353 21.478 12.2023 21.6694 12.06 21.868C11.8721 22.1254 11.8721 22.1254 11.712 22.4C11.6697 22.3789 11.6275 22.3578 11.584 22.336C11.6038 22.0707 11.6239 21.8053 11.644 21.54C11.6496 21.4655 11.6551 21.3909 11.6609 21.3141C11.672 21.1675 11.6837 21.0209 11.6959 20.8743C11.7058 20.7497 11.7142 20.6249 11.72 20.5C11.7359 20.2473 11.7511 20.1285 11.9087 19.9227C11.9639 19.8783 12.0191 19.8338 12.076 19.788C12.1337 19.7408 12.1913 19.6936 12.2507 19.645C12.7544 19.264 12.7544 19.264 12.928 19.264C12.928 19.2218 12.928 19.1795 12.928 19.136C13.3826 18.7838 13.8906 18.504 14.4 18.24C14.4585 18.2087 14.517 18.1775 14.5772 18.1452C14.6336 18.1158 14.6899 18.0863 14.748 18.056C14.7981 18.0298 14.8481 18.0035 14.8997 17.9765C15.04 17.92 15.04 17.92 15.296 17.92C15.296 17.8778 15.296 17.8355 15.296 17.792Z" fill="#C7C6C7"/>
<path d="M26.172 20.82C26.3867 20.8682 26.4872 20.9326 26.6182 21.11C26.7389 21.3488 26.7837 21.6022 26.8355 21.8632C26.877 22.0658 26.9315 22.2585 26.992 22.456C27.0686 22.7357 27.1022 22.9493 27.008 23.232C26.8273 23.3972 26.7324 23.4249 26.488 23.42C26.2699 23.3489 26.2308 23.2954 26.112 23.104C26.058 22.9425 26.058 22.9425 26.016 22.76C25.9926 22.6593 25.9926 22.6593 25.9687 22.5565C25.9526 22.4837 25.9365 22.411 25.92 22.336C25.8929 22.217 25.8929 22.217 25.8652 22.0955C25.6804 21.2644 25.6804 21.2644 25.832 21.008C25.984 20.864 25.984 20.864 26.172 20.82Z" fill="#E7E6E6"/>
<path d="M28.608 16C28.792 16.088 28.792 16.088 28.928 16.192C28.928 16.2342 28.928 16.2765 28.928 16.32C28.997 16.33 28.997 16.33 29.0675 16.3402C29.2665 16.3885 29.4028 16.4637 29.576 16.572C29.6303 16.6056 29.6845 16.6392 29.7405 16.6737C29.8545 16.7466 29.9674 16.821 30.08 16.896C30.08 16.9382 30.08 16.9805 30.08 17.024C30.1222 17.024 30.1645 17.024 30.208 17.024C30.256 17.16 30.256 17.16 30.272 17.344C30.1663 17.5553 30.0888 17.6906 29.876 17.8C29.5954 17.7875 29.3676 17.6617 29.12 17.536C29.12 17.4938 29.12 17.4515 29.12 17.408C29.083 17.4001 29.0461 17.3922 29.008 17.384C28.8625 17.3436 28.7408 17.2871 28.608 17.216C28.608 17.1738 28.608 17.1315 28.608 17.088C28.5446 17.088 28.4813 17.088 28.416 17.088C28.416 17.0458 28.416 17.0035 28.416 16.96C28.3407 16.9323 28.3407 16.9323 28.264 16.904C28.096 16.832 28.096 16.832 27.968 16.704C27.9403 16.4549 27.931 16.3115 28.072 16.1C28.2698 15.9699 28.3748 15.9667 28.608 16Z" fill="#E2E2E2"/>
<path d="M27.776 18.624C27.8182 18.6451 27.8605 18.6662 27.904 18.688C27.904 18.7302 27.904 18.7725 27.904 18.816C27.9462 18.816 27.9885 18.816 28.032 18.816C28.1406 18.9512 28.2411 19.0859 28.34 19.228C28.3686 19.2688 28.3972 19.3096 28.4267 19.3516C29.0055 20.1857 29.0055 20.1857 28.9742 20.4227C28.9078 20.5969 28.8164 20.6837 28.672 20.8C28.516 20.868 28.516 20.868 28.352 20.864C28.151 20.6965 27.9835 20.507 27.84 20.288C27.84 20.2458 27.84 20.2035 27.84 20.16C27.7977 20.16 27.7555 20.16 27.712 20.16C27.6196 20.0242 27.5348 19.8895 27.452 19.748C27.3127 19.4916 27.3127 19.4916 27.136 19.264C27.1107 19.036 27.1087 18.9199 27.24 18.728C27.4328 18.5961 27.5468 18.5991 27.776 18.624Z" fill="#E5E4E5"/>
<path d="M4.992 14.272C5.04537 14.2997 5.09875 14.3274 5.15375 14.356C5.59997 14.5768 5.90453 14.6885 6.4 14.656C6.44224 14.6982 6.48448 14.7405 6.528 14.784C6.50688 14.8262 6.48576 14.8685 6.464 14.912C6.52604 14.9199 6.58808 14.9278 6.652 14.936C6.71668 14.9492 6.78136 14.9624 6.848 14.976C6.87968 15.0394 6.87968 15.0394 6.912 15.104C6.58581 15.3007 6.33357 15.3265 5.964 15.32C5.9131 15.3196 5.86221 15.3193 5.80978 15.3189C5.44083 15.3107 5.13977 15.255 4.8 15.104C4.8 15.1885 4.8 15.273 4.8 15.36C4.75776 15.3389 4.71552 15.3178 4.672 15.296C4.71318 15.1493 4.75453 15.0026 4.796 14.856C4.80767 14.8143 4.81934 14.7727 4.83137 14.7298C4.92075 14.4145 4.92075 14.4145 4.992 14.272Z" fill="#C4C4C4"/>
<path d="M15.2959 17.792C15.4362 17.8221 15.5496 17.8547 15.6759 17.924C15.8348 17.9962 15.9554 17.9936 16.1279 17.984C15.9473 18.1213 15.7638 18.2528 15.5759 18.38C15.5263 18.4139 15.4766 18.4478 15.4254 18.4827C15.2959 18.56 15.2959 18.56 15.1679 18.56C15.1679 18.6022 15.1679 18.6445 15.1679 18.688C14.6999 19.0206 14.6999 19.0206 14.4464 18.991C14.2393 18.9125 14.0726 18.8111 13.8879 18.688C13.9753 18.4261 14.1471 18.3603 14.3759 18.232C14.434 18.1975 14.434 18.1975 14.4932 18.1622C14.7634 18.0084 14.9861 17.9463 15.2959 17.92C15.2959 17.8778 15.2959 17.8355 15.2959 17.792Z" fill="#DCDBDC"/>
<path d="M24.3245 13.2057C24.4352 13.301 24.5394 13.3983 24.64 13.504C24.512 13.7915 24.3398 13.8781 24.064 14.016C23.727 14.0133 23.4396 13.9721 23.168 13.76C23.104 13.632 23.104 13.632 23.156 13.472C23.232 13.312 23.232 13.312 23.36 13.184C23.6767 13.0909 24.0367 13.0195 24.3245 13.2057Z" fill="#E1E1E1"/>
<path d="M11.6479 17.664C12.0349 17.6945 12.3356 17.8698 12.6719 18.048C12.7572 18.0909 12.8425 18.1337 12.9279 18.176C12.6549 18.4666 12.3496 18.7038 12.0319 18.944C11.9897 18.9229 11.9475 18.9018 11.9039 18.88C11.9092 18.8193 11.9145 18.7586 11.9199 18.696C11.9223 18.4123 11.8169 18.185 11.7039 17.9288C11.6479 17.792 11.6479 17.792 11.6479 17.664Z" fill="#CDCCCC"/>
<path d="M10.1119 7.616C10.1542 7.63712 10.1964 7.65824 10.2399 7.68C9.96688 7.96866 9.69511 8.14441 9.34394 8.32C9.3017 8.27776 9.25946 8.23552 9.21594 8.192C9.93991 7.70462 9.93991 7.70462 10.1119 7.616Z" fill="#A09F9F"/>
<path d="M15.808 19.072C15.8502 19.072 15.8925 19.072 15.936 19.072C15.9545 19.1235 15.973 19.175 15.992 19.228C16.0469 19.4005 16.0469 19.4005 16.192 19.456C16.192 19.4982 16.192 19.5405 16.192 19.584C15.9808 19.5206 15.7696 19.4573 15.552 19.392C15.552 19.3498 15.552 19.3075 15.552 19.264C15.6365 19.2429 15.721 19.2218 15.808 19.2C15.808 19.1578 15.808 19.1155 15.808 19.072Z" fill="#ACAAAB"/>
<path d="M23.552 21.76C23.4886 21.9501 23.4252 22.1402 23.36 22.336C23.3388 22.2726 23.3177 22.2093 23.296 22.144C23.1357 22.066 23.1357 22.066 22.976 22.016C23.36 21.76 23.36 21.76 23.552 21.76Z" fill="#B5B3B5"/>
<path d="M14.6561 19.968C14.8461 20.0314 15.0362 20.0947 15.2321 20.16C14.8481 20.288 14.8481 20.288 14.6561 20.288C14.6772 20.2458 14.6983 20.2035 14.7201 20.16C14.6356 20.2234 14.5511 20.2867 14.4641 20.352C14.4218 20.3309 14.3796 20.3098 14.3361 20.288C14.4417 20.1824 14.5473 20.0768 14.6561 19.968Z" fill="#8C8B8C"/>
<path d="M22.848 20.992C22.6851 21.12 22.5302 21.2368 22.336 21.312C22.2727 21.2909 22.2093 21.2698 22.144 21.248C22.3387 20.956 22.5186 20.9847 22.848 20.992Z" fill="#929192"/>
<path d="M12.608 22.272C12.6291 22.272 12.6502 22.272 12.672 22.272C12.7 22.408 12.7 22.408 12.672 22.592C12.5412 22.7453 12.3995 22.876 12.224 22.976C12.1606 22.9549 12.0973 22.9338 12.032 22.912C12.272 22.72 12.272 22.72 12.416 22.72C12.4358 22.6698 12.4556 22.6197 12.476 22.568C12.544 22.4 12.544 22.4 12.608 22.272Z" fill="#858485"/>
<path d="M23.36 13.184C23.496 13.208 23.496 13.208 23.616 13.248C23.5335 13.336 23.4479 13.4213 23.36 13.504C23.3178 13.504 23.2755 13.504 23.232 13.504C23.2109 13.5885 23.1898 13.673 23.168 13.76C23.104 13.632 23.104 13.632 23.156 13.472C23.232 13.312 23.232 13.312 23.36 13.184Z" fill="#C9C8C8"/>
<path d="M11.52 7.04C11.5411 7.08224 11.5622 7.12448 11.584 7.168C11.5206 7.168 11.4572 7.168 11.392 7.168C11.3497 7.2736 11.3075 7.3792 11.264 7.488C11.2428 7.44576 11.2217 7.40352 11.2 7.36C11.0521 7.38112 10.9043 7.40224 10.752 7.424C10.816 7.296 10.816 7.296 10.992 7.232C11.0606 7.21088 11.1292 7.18976 11.2 7.168C11.3069 7.12614 11.4137 7.08374 11.52 7.04Z" fill="#929191"/>
<path d="M22.052 21.116C22.1292 21.118 22.1292 21.118 22.208 21.12C22.1869 21.2045 22.1657 21.289 22.144 21.376C22.0595 21.3971 21.975 21.4182 21.888 21.44C21.852 21.316 21.852 21.316 21.824 21.184C21.888 21.12 21.888 21.12 22.052 21.116Z" fill="#BCBCBC"/>
<path d="M12.6079 18.048C12.7663 18.1114 12.7663 18.1114 12.9279 18.176C12.8226 18.284 12.7159 18.3907 12.6079 18.496C12.5868 18.496 12.5657 18.496 12.5439 18.496C12.5651 18.3482 12.5862 18.2003 12.6079 18.048Z" fill="#A9A9A9"/>
<path d="M22.912 22.08C22.8064 22.2067 22.7008 22.3334 22.592 22.464C22.5709 22.4006 22.5497 22.3373 22.528 22.272C22.399 22.2251 22.399 22.2251 22.272 22.208C22.3544 22.1741 22.4371 22.1409 22.52 22.108C22.566 22.0894 22.612 22.0709 22.6595 22.0518C22.784 22.016 22.784 22.016 22.912 22.08Z" fill="#9E9E9E"/>
<path d="M12.48 19.584C12.5434 19.6051 12.6068 19.6262 12.672 19.648C12.577 19.8064 12.577 19.8064 12.48 19.968C12.4589 19.9258 12.4378 19.8835 12.416 19.84C12.3316 19.8611 12.2471 19.8822 12.16 19.904C12.2656 19.7984 12.3712 19.6928 12.48 19.584Z" fill="#D9D7D8"/>
<path d="M25.6639 12.928C25.7392 12.9873 25.8137 13.0475 25.8879 13.108C25.9295 13.1414 25.9711 13.1748 26.0139 13.2093C26.1119 13.312 26.1119 13.312 26.1119 13.504C25.9519 13.416 25.9519 13.416 25.7919 13.312C25.7919 13.2698 25.7919 13.2275 25.7919 13.184C25.7497 13.1629 25.7075 13.1418 25.6639 13.12C25.6639 13.0566 25.6639 12.9933 25.6639 12.928Z" fill="#A8A6A7"/>
<path d="M23.68 11.392C23.7011 11.392 23.7222 11.392 23.744 11.392C23.7651 11.561 23.7862 11.7299 23.808 11.904C23.7446 11.9462 23.6813 11.9885 23.616 12.032C23.5315 11.9898 23.447 11.9475 23.36 11.904C23.36 11.8829 23.36 11.8618 23.36 11.84C23.4656 11.84 23.5712 11.84 23.68 11.84C23.68 11.6922 23.68 11.5443 23.68 11.392Z" fill="#7F7F7F"/>
<path d="M8.51195 8.704C8.61195 8.816 8.61195 8.816 8.70395 8.96C8.68395 9.104 8.68395 9.104 8.63995 9.216C8.53435 9.08928 8.42875 8.96256 8.31995 8.832C8.38331 8.78976 8.44667 8.74752 8.51195 8.704Z" fill="#BBBABB"/>
<path d="M11.5201 22.464C11.5623 22.464 11.6045 22.464 11.6481 22.464C11.7761 22.824 11.7761 22.824 11.7761 23.04C11.6121 22.896 11.6121 22.896 11.4561 22.72C11.4681 22.572 11.4681 22.572 11.5201 22.464Z" fill="#9E9C9C"/>
<path d="M13.44 21.184C13.4823 21.2051 13.5245 21.2262 13.568 21.248C13.312 21.6686 13.312 21.6686 13.056 21.76C13.184 21.568 13.312 21.376 13.44 21.184Z" fill="#8E8D8E"/>
<path d="M14.272 11.584C14.272 11.8131 14.2206 11.859 14.08 12.032C14.0378 12.0954 13.9955 12.1587 13.952 12.224C13.932 12.012 13.932 12.012 13.952 11.776C14.112 11.652 14.112 11.652 14.272 11.584Z" fill="#827F81"/>
<path d="M9.72794 7.936C9.72794 7.99936 9.72794 8.06272 9.72794 8.128C9.59994 8.192 9.47194 8.256 9.34394 8.32C9.3017 8.27776 9.25946 8.23552 9.21594 8.192C9.38713 8.08558 9.53591 8.00001 9.72794 7.936Z" fill="#CAC8CA"/>
<path d="M20.928 7.68C21.1494 7.75995 21.3214 7.85122 21.504 8C21.312 8.064 21.312 8.064 21.144 7.984C20.992 7.872 20.992 7.872 20.928 7.68Z" fill="#989898"/>
<path d="M10.496 21.184C10.5383 21.2051 10.5805 21.2262 10.624 21.248C10.5395 21.417 10.4551 21.5859 10.368 21.76C10.3469 21.7178 10.3258 21.6755 10.304 21.632C10.2618 21.6109 10.2195 21.5898 10.176 21.568C10.2183 21.5046 10.2605 21.4413 10.304 21.376C10.3463 21.376 10.3885 21.376 10.432 21.376C10.4531 21.3126 10.4743 21.2493 10.496 21.184Z" fill="#9B9A9C"/>
</svg>
