<svg width="221" height="221" viewBox="0 0 221 221" fill="none" xmlns="http://www.w3.org/2000/svg">
<g opacity="0.15">
<path fill-rule="evenodd" clip-rule="evenodd" d="M220.5 110.5C220.5 49.7487 171.251 0.5 110.5 0.5C49.7487 0.5 0.5 49.7487 0.5 110.5C0.5 171.251 49.7487 220.5 110.5 220.5C171.251 220.5 220.5 171.251 220.5 110.5ZM14.5311 77.7779C12.6905 83.3446 11.3641 89.0295 10.6171 94.9682C10.0622 98.6646 9.74858 102.27 9.62662 105.88C9.39519 112.729 9.89317 119.551 10.9756 126.311C11.9302 132.272 13.3024 138.15 15.4025 143.83C15.9918 145.424 16.0709 145.481 17.4411 144.663C19.5064 143.431 21.2783 143.618 23.0074 145.325C24.5991 146.897 26.5353 147.055 28.6209 146.381C29.5256 146.089 30.246 145.546 30.9725 144.999C31.1324 144.878 31.2929 144.757 31.4555 144.639C33.5659 143.103 35.578 143.52 36.8337 145.781C38.2504 148.331 39.8386 150.76 41.7294 152.984C42.2 153.538 42.6876 154.077 43.1707 154.611C43.5553 155.036 43.6087 155.717 43.0877 155.956C42.9108 156.037 42.7302 156.092 42.5553 156.146L42.4958 156.164C39.9868 156.934 37.7703 156.556 35.8544 154.6C34.0454 152.753 33.6295 152.776 31.5266 154.268C31.4885 154.295 31.4511 154.323 31.4138 154.352C31.3798 154.377 31.3458 154.403 31.3111 154.428C28.3719 156.537 25.5989 156.608 22.609 154.655C22.5371 154.608 22.4657 154.559 22.3941 154.509C22.1687 154.352 21.9415 154.194 21.6909 154.115C21.1726 153.951 20.584 153.904 20.1855 154.345C19.8562 154.71 20.0945 155.077 20.3052 155.402C20.3408 155.457 20.3757 155.511 20.4069 155.563C21.0347 156.617 21.6789 157.66 22.3231 158.704C22.6186 159.182 22.9147 159.662 23.2085 160.142C24.059 161.529 25.0749 162.771 26.4326 163.692C28.9222 165.382 31.3223 165.246 33.5455 163.31C35.8244 161.326 36.8485 161.3 39.2963 163.165C42.1171 165.314 44.7368 165.225 47.42 162.872L47.5534 162.754C47.9467 162.406 48.3383 162.059 48.8431 161.885C49.7115 161.587 50.6443 162.043 50.6561 162.866C50.6882 165.09 50.6831 167.315 50.6779 169.622C50.6748 170.96 49.2932 171.849 48.0379 172.314C47.6013 172.476 47.1876 172.723 46.7862 173.05C43.8228 175.462 41.666 175.461 38.6098 173.135C37.005 171.914 36.3172 171.861 34.5949 172.875C34.1392 173.143 33.6954 173.432 33.2146 173.744C32.8332 173.992 32.7515 174.52 33.0429 174.87C33.1925 175.049 33.34 175.226 33.4859 175.401C34.1538 176.204 34.7888 176.967 35.4402 177.713C53.8021 198.762 76.9164 210.373 104.763 212.47C113.508 213.129 122.183 212.24 130.749 210.464C140.632 208.416 149.909 204.739 158.692 199.77C169.522 193.641 178.817 185.682 186.894 176.261C188.339 174.576 188.291 174.537 186.616 173.137L186.516 173.055C186.119 172.722 185.703 172.41 185.284 172.095C184.65 171.619 184.008 171.137 183.406 170.569C182.997 170.184 183.097 169.532 183.576 169.238C184.205 168.853 184.796 168.491 185.361 168.094C186.746 167.12 188.093 167.219 189.501 168.044C191.783 169.379 191.798 169.365 193.422 167.159C194.347 165.903 195.26 164.638 196.045 163.298C196.346 162.785 196.137 162.129 195.563 162.281C195.473 162.305 195.383 162.329 195.293 162.343C193.322 162.634 191.49 162.413 189.833 161.138C187.489 159.334 187.341 159.356 185.027 161.277C183.332 162.684 181.455 163.429 179.219 163.22C177.347 163.044 174.771 161.196 174.704 159.757C174.636 158.303 174.662 156.843 174.688 155.385C174.696 154.964 174.703 154.542 174.709 154.121C174.712 153.847 174.765 153.544 175.14 153.414C175.216 153.388 175.3 153.408 175.365 153.455L175.493 153.546C175.676 153.676 175.875 153.817 176.062 153.973C179.148 156.546 181.856 156.582 185.021 154.084C187.24 152.333 187.85 152.294 190.311 153.745C193.525 155.64 195.425 155.475 198.216 153.046C199.041 152.328 199.888 151.675 201.077 151.821C201.712 151.899 202.08 151.59 202.321 151.037C202.671 150.233 203.027 149.43 203.383 148.628C203.608 148.122 203.832 147.617 204.055 147.111C204.202 146.777 204.317 146.454 204.012 146.121C202.72 144.711 199.756 144.577 198.435 145.935C196.033 148.404 191.768 148.651 189.45 146.392C188.108 145.084 187.481 145.181 185.928 146.329C185.769 146.446 185.615 146.571 185.461 146.697C185.233 146.883 185.004 147.069 184.759 147.229C182.455 148.739 181.095 145.921 182.563 143.591C182.608 143.52 182.653 143.449 182.698 143.377C183.321 142.388 183.939 141.406 184.609 140.461C186.073 138.397 188.159 138.202 189.897 139.404C193.385 141.814 195.083 141.709 198.174 138.865C199.068 138.043 200.057 137.676 201.243 138.105C201.571 138.223 201.895 138.355 202.219 138.486C202.765 138.708 203.314 138.93 203.877 139.09C204.472 139.259 204.941 139.425 205.317 139.558C205.961 139.786 206.333 139.918 206.599 139.803C206.962 139.647 207.128 139.031 207.519 137.573L207.644 137.109C209.48 130.323 210.444 123.406 211.003 116.396C211.545 109.585 211.369 102.811 210.574 96.063C209.646 88.1898 207.666 80.5383 204.881 73.1129C201.226 63.3692 196.129 54.428 189.828 46.1484C183.377 37.672 175.823 30.3611 167.014 24.3808C159.014 18.9506 150.43 14.6948 141.221 11.6802C132.116 8.69997 122.775 7.15064 113.233 6.72084C109.479 6.55176 105.736 6.83462 101.992 7.1494C95.8821 7.66306 89.8365 8.60135 83.9616 10.3132C66.8289 15.3053 51.9103 24.0493 39.4072 36.8704C27.9629 48.6058 19.6727 62.2267 14.5311 77.7779ZM77.5568 145.522C77.512 146.003 76.9984 146.263 76.6 145.991C75.0406 144.926 73.9787 143.512 72.9567 142.056C72.2613 140.885 71.6582 139.869 70.9414 138.66L70.8835 138.563C70.8724 138.544 70.8445 138.547 70.8368 138.567C70.503 139.455 70.4366 140.266 70.368 141.104C70.3188 141.705 69.6255 141.924 69.2626 141.443C68.1361 139.947 67.4364 138.312 66.7436 136.692C66.7177 136.632 66.6917 136.571 66.6658 136.51C66.3836 135.851 65.6192 135.666 65.4646 136.366C65.358 136.849 64.8146 136.862 64.5659 136.434C63.7479 135.03 63.1646 133.557 62.6638 131.929C62.4841 131.344 63.032 130.807 63.6182 130.981C64.4734 131.234 65.2315 131.459 65.9907 131.68C68.988 132.552 72.0291 132.238 75.0486 131.917C78.1824 131.583 81.0815 132.365 83.9167 133.52C87.7337 135.076 91.5795 136.495 95.7199 136.942C99.9701 137.401 104.003 136.695 107.837 134.823C107.957 134.764 108.062 134.675 108.206 134.553C108.344 134.437 108.332 134.216 108.173 134.13C107.322 133.669 106.445 133.48 105.592 133.295C105.352 133.243 105.114 133.192 104.879 133.135C103.236 132.737 101.567 132.476 99.8971 132.215C97.8664 131.898 95.8342 131.58 93.8481 131.015C90.204 129.979 86.775 128.523 83.6948 126.279C81.3792 124.593 80.0143 122.487 80.102 119.494C80.1674 117.265 81.0993 115.708 83.1247 114.878C83.8136 114.595 84.5272 114.372 85.2405 114.149C86.0214 113.905 86.802 113.661 87.5498 113.339C91.1739 111.781 92.55 108.506 91.1069 105.132C90.5715 103.88 89.6508 102.96 88.4884 102.347C84.1905 100.082 79.6367 99.2309 74.8818 100.446C72.0915 101.158 69.774 102.647 68.9331 105.678C68.2064 108.298 69.0968 110.598 71.3811 112.068C71.5807 112.197 71.7841 112.32 71.9875 112.443C72.3588 112.668 72.73 112.893 73.0779 113.15C76.6181 115.761 76.8587 117.977 76.2835 121.974C75.967 124.174 74.1718 125.216 72.3179 125.995C68.325 127.672 64.2989 127.479 60.3061 125.967C60.0949 125.887 59.8756 125.821 59.655 125.755C59.4732 125.701 59.2905 125.646 59.1108 125.583C58.3964 125.332 58.2971 124.495 58.9351 124.087C59.1123 123.974 59.2876 123.862 59.4433 123.727C60.0914 123.166 60.3957 122.543 59.8407 121.743C59.3126 120.981 58.616 120.887 57.8416 121.285C55.7197 122.378 54.1371 124.072 52.7315 125.951C51.1291 128.092 50.1121 130.517 49.3474 133.059C49.3356 133.098 49.3255 133.138 49.3154 133.178C49.2137 133.578 48.7517 133.428 48.6336 133.032C48.1961 131.564 48.4365 130.07 48.7774 128.623C49.968 123.568 53.0342 120.164 57.9917 118.512C58.0633 118.489 58.1353 118.465 58.2073 118.442C58.4765 118.356 58.7467 118.269 58.9976 118.145C59.5467 117.873 60.0118 117.493 59.8272 116.79C59.6395 116.075 59.1972 115.595 58.388 115.652C57.0744 115.744 55.8666 116.218 54.6744 116.734C51.8631 117.951 49.6188 119.915 47.5697 122.135C47.0317 122.718 46.4952 123.302 45.8944 123.956L45.8714 123.981C45.5724 124.307 45.0531 124.063 45.145 123.631C45.7573 120.75 47.1841 118.64 49.1107 116.97C50.8003 115.506 50.4634 113.576 48.3481 114.3C47.6411 114.543 46.963 113.955 47.2051 113.248C47.692 111.827 48.5215 110.621 49.3793 109.373C49.3833 109.367 49.3807 109.359 49.3742 109.357C48.798 109.131 48.3301 109.324 47.8815 109.509C47.7799 109.551 47.6792 109.593 47.5786 109.629C47.2151 109.76 46.9029 109.407 47.0415 109.046C47.2557 108.489 47.8025 108.06 49.9147 106.401C49.9147 106.401 49.9147 106.401 49.9147 106.401C49.3426 104.98 50.1073 103.894 50.8545 102.833L50.9674 102.672C52.7812 100.082 55.3629 98.5212 58.2446 97.3883C58.307 97.3637 58.3732 97.3474 58.4404 97.3308C58.8515 97.2292 58.9558 96.7012 58.6255 96.4363C58.4144 96.2669 58.1421 96.1741 57.8695 96.0812C57.5067 95.9576 57.1434 95.8337 56.9232 95.5289C56.8812 95.4708 56.8717 95.3961 56.8823 95.3251C56.8937 95.2486 56.9042 95.1778 56.9266 95.1738C58.4738 94.897 58.6836 93.7856 58.8972 92.6544C58.9499 92.3748 59.0029 92.094 59.0764 91.8244C60.8915 85.1623 64.4512 79.5694 69.6129 75.0113C72.9453 72.0686 76.6976 69.875 81.1287 69.0097C82.7602 68.691 84.3947 68.8364 86.1173 68.9895C86.1384 68.9914 86.158 68.9779 86.1635 68.9574C86.3933 68.0982 86.1789 67.2884 85.9584 66.4556C85.6783 65.3976 86.713 64.7359 87.4297 65.563C88.1471 66.391 88.6062 67.4336 89.1016 68.5589C89.1023 68.5605 89.1042 68.5611 89.1057 68.5603C94.8481 65.3476 100.841 64.2179 107.119 65.37C108.208 65.5698 108.434 66.9323 107.504 67.5322C106.804 67.984 106.097 68.4401 105.383 68.925C104.59 69.4642 103.93 68.9151 104.638 68.2681C105.073 67.8711 104.866 67.2519 104.284 67.3435C102.898 67.5618 101.098 68.6085 99.1737 70.3054C97.8615 71.4623 96.876 72.8701 95.8828 74.2888C95.5492 74.7653 94.9055 74.517 95.0547 73.9549C95.26 73.1813 95.5562 72.4457 95.9224 71.7365C96.4776 70.6615 95.6387 69.4361 94.6066 70.0675C93.4264 70.7894 92.4163 71.7535 91.5063 72.8813C90.8785 73.6593 89.7717 73.626 89.5578 72.6494C89.474 72.2665 89.3927 71.8953 89.2398 71.5507C89.1909 71.4406 89.1488 71.3199 89.1062 71.1976C88.9485 70.7449 88.7838 70.2725 88.243 70.2524C87.6708 70.2312 87.5246 70.7097 87.3869 71.1599C87.3478 71.288 87.3093 71.4138 87.262 71.5251C87.0177 72.0995 86.9137 72.7136 86.8051 73.3544C86.6261 74.411 85.4069 74.45 84.7695 73.5885C83.7747 72.2443 82.4846 71.3373 80.608 71.1594C80.1646 71.1173 79.8889 71.5921 80.1019 71.9833C80.4362 72.5972 80.7416 73.1581 81.0343 73.7228C81.2811 74.1988 81.5264 74.6814 81.7094 75.1839C82.5841 77.5863 82.3712 77.942 79.8833 78.2098C77.8736 78.4262 78.225 80.7027 79.4527 82.3085C80.2712 83.3791 80.6626 84.7337 80.6028 86.3848C80.5163 88.7761 79.5945 90.8098 77.8547 92.4325C77.4352 92.8238 76.7486 92.6305 77.0244 92.1275C77.0548 92.0722 77.0846 92.0178 77.1088 91.9628C78.1626 89.5673 77.0881 87.1866 74.5985 86.4119C71.37 85.4072 67.8957 86.8804 66.0214 90.0519C65.3667 91.1597 64.9146 92.3522 64.4691 93.5274C64.375 93.7756 64.2811 94.0232 64.1858 94.2689C64.024 94.6857 64.0585 95.2465 64.4998 95.1747C64.9154 95.1072 65.084 95.5694 65.1654 95.9825C65.3755 97.0496 65.8539 98.0922 66.6073 98.9999C67.0526 99.5364 66.8749 99.9296 66.5814 100.434C65.9688 101.486 65.2599 102.445 64.4488 103.312C63.5686 104.252 64.056 105.371 64.9767 104.47C65.4208 104.036 65.8593 103.595 66.2978 103.155C67.0908 102.358 67.8837 101.561 68.7097 100.8C73.5229 96.3675 79.2534 95.9312 85.2992 97.1516C91.3601 98.375 95.9488 102.028 100.104 106.353C103.78 110.179 108.234 112.404 113.539 112.92C115.288 113.089 117.032 113.301 118.776 113.513C119.601 113.613 120.425 113.713 121.25 113.809C121.308 113.815 121.366 113.827 121.425 113.839C121.915 113.935 122.118 113.305 121.693 113.043C121.612 112.994 121.526 112.949 121.44 112.905C121.33 112.848 121.22 112.792 121.122 112.724C116.761 109.71 112.522 106.552 109.681 101.946C107.228 97.9691 107.029 93.8192 109.324 89.7259C111.576 85.7107 115.215 83.9714 119.731 84.1156C125.442 84.2979 129.262 87.5135 132.075 92.1659C133.936 95.2434 134.789 98.6809 135.225 102.203C135.361 103.303 135.775 103.65 136.765 103.759C137.534 103.843 138.267 104.045 138.984 104.347C139.726 104.66 139.744 105.569 138.996 105.867C138.06 106.241 138.316 107.316 139.284 107.594C144.454 109.08 148.62 111.836 151.549 116.236C152.1 117.065 151.363 117.955 150.446 117.568C149.387 117.12 148.626 118.233 149.274 119.183C150.006 120.257 150.664 121.346 151.21 122.474C152.273 124.672 149.724 125.929 147.757 124.483C147.145 124.033 146.516 123.611 145.866 123.22C143.809 121.983 142.107 124.466 143.08 126.66C143.336 127.238 143.566 127.83 143.769 128.439C144.325 130.109 142.258 130.96 140.932 129.803C139.474 128.529 138.107 130.234 139.063 131.917C141.064 135.439 142.365 139.222 142.185 143.581C142.171 143.913 141.739 143.985 141.607 143.679C141.254 142.859 140.9 142.039 140.538 141.223C138.232 136.021 135.352 131.215 130.994 127.432C130.012 126.58 129.004 125.753 127.851 125.15L127.759 125.101L127.68 125.059C126.991 124.69 126.209 124.272 125.591 125.19C124.933 126.169 125.559 126.845 126.321 127.444C127.07 128.032 127.802 128.642 128.535 129.251L128.916 129.568C130.761 131.1 132.189 132.992 133.51 134.968C134.309 136.164 134.164 136.662 132.767 136.872C131.482 137.066 131.471 137.658 131.67 138.711C132.187 141.455 132.281 144.217 131.496 146.944C131.387 147.319 131.256 147.688 131.088 148.158L131.087 148.163C131.009 148.381 130.689 148.351 130.657 148.121C130.552 147.368 130.459 146.633 130.368 145.913C130.093 143.729 129.835 141.679 129.301 139.669C127.285 132.079 122.652 126.745 115.552 123.491C114.692 123.097 113.841 122.99 113.359 123.974C112.834 125.044 113.533 125.608 114.414 126.062C119.124 128.491 122.775 132.009 125.216 136.729C125.264 136.822 125.316 136.915 125.368 137.009C125.775 137.741 126.21 138.526 124.937 139.182C124.464 139.426 124.623 139.938 124.767 140.4C124.81 140.539 124.852 140.674 124.875 140.795C125.442 143.836 125.295 146.837 124.514 149.816C124.472 149.977 124.402 150.13 124.306 150.336C124.23 150.5 124 150.51 123.927 150.345C123.575 149.541 123.53 148.744 123.487 147.977C123.469 147.652 123.451 147.332 123.409 147.02C122.77 142.166 121.483 137.576 118.541 133.561C117.18 131.704 115.634 130.046 113.731 128.739C112.988 128.228 112.188 127.865 111.474 128.732C110.763 129.594 111.384 130.26 111.984 130.806C114.322 132.93 116.344 135.3 117.841 138.094L117.943 138.285C118.601 139.502 117.847 140.833 116.49 141.104C115.768 141.249 115.045 141.35 114.322 141.415C113.156 141.519 112.921 141.892 113.107 143.013C113.47 145.204 113.214 147.286 112.313 149.388C111.993 150.134 111.007 149.932 110.926 149.124C110.878 148.644 110.83 148.17 110.776 147.703C110.456 144.926 107.307 143.51 104.573 142.932C104.44 142.904 104.308 142.876 104.175 142.849C103.282 142.664 102.666 143.501 103.103 144.302C104.046 146.031 102.699 147.797 100.797 147.287C99.4317 146.921 98.1446 146.299 96.847 145.671C95.7848 145.158 94.6817 145.922 95.0205 147.052C95.079 147.247 95.1403 147.442 95.2015 147.636C95.7273 149.303 94.2573 150.588 92.6401 149.924C90.1298 148.894 87.9579 147.246 85.7078 145.539C85.3125 145.239 84.7556 145.493 84.7906 145.988C84.8635 147.017 85.1379 147.972 85.4146 148.935C85.6768 149.848 84.7678 150.521 83.9901 149.976C82.1595 148.693 80.6759 147.13 79.4454 145.268C78.8491 144.366 77.6571 144.445 77.5568 145.522ZM112.262 39.9571C111.575 39.8788 110.889 39.8006 110.204 39.7114C101.71 39.077 93.6178 39.9941 85.7287 42.3989C74.5707 45.8003 64.814 51.5504 56.6676 59.9946C51.0011 65.8682 46.1783 72.3345 42.4636 79.5911C39.4328 85.5119 37.342 91.7594 36.4261 98.3832C34.8982 109.433 36.6979 119.996 40.9253 130.226C40.9473 130.279 40.9774 130.331 41.0083 130.385C41.167 130.66 40.8518 130.748 40.6597 130.495C38.0624 127.072 36.4489 123.223 35.3168 119.158C32.5051 109.064 32.9149 99.0089 36.0914 89.0887C39.3426 78.9349 43.8251 69.3539 50.1927 60.741C56.8896 51.6829 64.9374 44.0936 74.6737 38.3348C83.3447 33.2061 92.6854 30.0372 102.666 28.919C109.39 28.1658 116.13 28.3559 122.828 29.5594C135.862 31.9013 147.585 37.1292 157.856 45.4851C171.498 56.5843 180.76 70.5499 185.075 87.6855C185.168 88.0552 185.257 88.4259 185.261 88.8324C185.267 89.3591 184.672 89.5968 184.198 89.3683C182.907 88.747 181.73 88.1803 181.183 86.319C177.964 75.3625 172.302 65.7553 164.391 57.4991C159.81 52.7177 154.693 48.6366 148.771 45.6057C145.148 43.7512 141.315 42.6233 137.287 42.1257C137.124 42.1055 136.955 42.1231 136.753 42.1444C136.578 42.1627 136.461 42.342 136.552 42.4931C136.803 42.9123 137.187 43.1302 137.55 43.3362C137.668 43.4034 137.785 43.4693 137.893 43.5405C144.015 47.5528 149.767 52.0155 154.697 57.4574C161.028 64.4462 164.716 72.7159 166.392 81.9372C166.423 82.1095 166.425 82.2876 166.427 82.4649C166.428 82.5122 166.428 82.5596 166.429 82.6066C166.433 82.785 166.432 82.9634 166.431 83.1706C166.431 83.337 166.28 83.4664 166.125 83.4061C165.736 83.255 165.518 82.9616 165.306 82.6781C165.258 82.6134 165.21 82.5489 165.161 82.4871C162.413 79.0464 159.311 75.9601 155.887 73.1958C155.643 72.9993 155.394 72.8069 155.13 72.6394C154.349 72.143 153.587 72.1889 152.931 72.8449C152.3 73.4769 152.286 74.2467 152.807 74.9183C153.31 75.5669 153.844 76.1907 154.379 76.8146C154.804 77.31 155.23 77.8075 155.639 78.3155C156.729 79.6701 157.784 81.0501 158.588 82.5059C158.791 82.873 158.361 83.1848 158.05 82.9036C157.085 82.0313 156.091 81.1334 155.157 80.1775C146.16 70.9697 135.433 64.6159 123.287 60.4677C114.08 57.3238 104.617 56.2936 95.0065 56.9246C84.8368 57.5924 75.1368 60.1329 66.6594 66.1017C61.6408 69.6352 57.5795 74.1573 54.0578 79.1843C50.2151 84.6693 47.5762 90.7 45.6471 97.0754C45.4795 97.6292 45.2828 98.1833 45.022 98.6978C44.5612 99.6068 43.8194 100.256 42.7671 99.9711C41.6431 99.6662 41.0907 98.7279 41.2257 97.5944C41.3564 96.4968 41.6667 95.4133 41.9726 94.3448L41.9748 94.3372C45.5088 81.9945 52.2944 72.0101 63.3003 65.132C66.3023 63.2559 69.4973 61.7441 72.8395 60.5557L73.0711 60.4743C73.5866 60.2941 74.111 60.1107 74.5592 59.8197C75.7465 59.049 75.6141 57.5142 74.3349 56.9333C73.6289 56.6127 72.8874 56.4996 72.1133 56.7395C70.5446 57.2256 69.7713 55.7131 71.1757 54.8619C71.3135 54.7784 71.4515 54.6954 71.5896 54.6128C79.5201 49.8697 88.0431 46.7491 97.2626 45.81C114.932 44.0102 130.591 48.9344 144.282 60.1908C145.17 60.9211 146.025 61.693 146.879 62.4649C147.751 63.2531 148.623 64.0412 149.531 64.7851C151.233 66.1784 153.387 65.3566 153.869 63.2326C154.069 62.3547 153.709 61.6584 153.222 60.9976C151.534 58.7111 149.411 56.8377 147.275 55.0119C138.405 47.4295 128.128 42.7625 116.705 40.5769C115.238 40.2962 113.75 40.1266 112.262 39.9571ZM108.133 191.876C108.974 191.933 108.641 192.759 107.855 193.063C103.187 194.867 98.4092 195.621 93.5438 195.973C93.2471 195.995 92.9502 196.015 92.6533 196.035C91.6128 196.106 90.5721 196.177 89.538 196.302C88.5599 196.42 87.6353 196.799 87.5405 197.942C87.4462 199.079 88.2939 199.649 89.2299 199.901C91.7402 200.58 94.333 200.778 96.9132 200.964C104.091 201.478 111.197 200.726 118.262 199.541C125.053 198.402 131.727 196.74 138.35 194.868C139.85 194.444 140.938 194.755 141.379 195.734C141.827 196.726 141.357 197.754 139.923 198.524C133.585 201.925 126.963 204.519 119.808 205.644C112.505 206.792 105.219 206.529 97.9075 205.707C87.6444 204.554 78.0129 201.422 68.9487 196.559C62.9377 193.334 57.3501 189.481 52.54 184.575C51.6945 183.712 51.5483 183.031 52.3021 182.062C53.4546 180.581 54.5394 179.045 55.6193 177.509C56.1226 176.793 56.5904 176.797 57.2798 177.288C66.8822 184.129 77.7583 187.707 89.2406 189.734C95.4949 190.839 101.802 191.451 108.133 191.876ZM115.908 177.889C116.078 177.887 116.249 177.885 116.42 177.881C125.453 177.057 134.129 175.653 142.568 173.026C151.026 170.393 159.057 166.845 166.292 161.647C166.388 161.578 166.483 161.505 166.578 161.432C167.436 160.772 168.437 161.489 168.406 162.571C168.369 163.864 167.996 165.072 167.027 166.193C164.037 169.653 160.211 171.983 156.27 174.097C146.431 179.376 135.85 182.299 124.839 183.932C117.009 185.094 109.147 185.232 101.293 184.907C88.4817 184.377 76.1218 181.82 64.7749 175.492C62.6228 174.292 60.5457 172.964 58.7954 171.203C57.6518 170.053 56.8251 168.775 56.7545 167.206C56.714 166.304 57.5218 165.679 58.288 166.156C58.3913 166.221 58.4936 166.285 58.5965 166.342C68.1148 171.631 78.2841 175.035 89.0162 176.74C97.5623 178.097 106.164 178.558 114.809 177.925C115.174 177.898 115.541 177.894 115.908 177.889ZM100.999 168.841C97.1118 168.801 93.237 168.485 89.3746 168.036C83.4232 167.21 77.7787 166.093 72.2846 164.307C63.2322 161.363 54.9652 157.076 48.2279 150.183C46.9465 148.872 48.9204 147.278 50.4247 148.326C50.8073 148.592 51.1937 148.854 51.5839 149.111C59.9462 154.629 69.1694 158.051 78.9094 160.144C86.7204 161.823 94.642 162.449 102.624 162.282C109.342 162.141 115.984 161.368 122.525 159.781C125.126 159.151 126.876 159.74 127.971 161.509C129.25 163.572 128.435 166.17 126.184 167.095C124.491 167.791 122.693 167.968 120.901 168.143C120.43 168.19 119.958 168.236 119.489 168.292C113.696 168.98 107.873 168.916 102.055 168.853L100.999 168.841ZM149.144 158.692C158.09 153.498 166.119 147.248 172.143 138.693C172.205 138.598 172.245 138.541 172.271 138.503C172.3 138.461 172.313 138.441 172.323 138.421C173.071 136.842 174.092 136.031 175.964 136.781C176.634 137.05 177.353 136.902 178.134 136.742C178.609 136.644 178.971 137.1 178.764 137.538C178.012 139.138 177.026 140.513 176.049 141.876L176.031 141.902C170.329 149.856 162.951 155.798 154.131 159.982C148.78 162.521 143.198 164.393 137.427 165.713C137.341 165.733 137.256 165.757 137.171 165.782C137.041 165.819 136.911 165.856 136.778 165.877C135.317 166.104 135.059 165.874 135.432 164.458C136.024 162.215 135.464 160.222 134.284 158.329C133.859 157.647 134.144 156.747 134.877 156.419C146.486 151.217 155.781 143.463 162.606 132.81C163.857 130.857 166.634 130.693 167.681 132.763C167.916 133.229 167.638 133.604 167.377 133.957C167.313 134.044 167.249 134.13 167.195 134.215C163.409 140.139 158.842 145.379 153.393 149.831C151.854 151.087 150.287 152.309 148.72 153.531C148.064 154.041 147.409 154.552 146.756 155.065C145.856 155.773 145.226 156.606 145.584 157.827C145.879 158.834 146.999 159.426 148.03 159.142C148.414 159.036 148.801 158.892 149.144 158.692ZM177.992 127.807C176.494 125.506 175.987 122.872 175.73 120.183C175.072 113.267 175.896 106.844 179 100.816C179.619 99.6148 180.388 98.5205 181.398 97.6086C183.186 95.9943 185.376 96.0645 186.976 97.8661C188.791 99.9101 189.629 102.436 190.028 105.056C190.948 111.081 190.399 116.985 188.174 122.697C187.388 124.713 186.349 126.593 184.938 128.232C182.604 130.944 179.934 130.789 177.992 127.807ZM35.6261 77.014C35.7766 77.1322 35.8989 77.3001 35.8883 77.4911C35.8631 77.9458 35.5177 78.1096 35.2142 78.2534C35.1551 78.2814 35.0977 78.3086 35.0445 78.3371C31.5023 80.2335 29.6269 83.2643 28.8567 87.1192C28.8401 87.2023 28.8241 87.2862 28.8081 87.3706C28.6198 88.3584 27.5675 88.1988 27.2916 87.2318C26.268 83.6444 24.6391 80.4791 21.2358 78.4814C20.4669 78.03 20.3448 76.9177 21.0945 76.4351C22.7523 75.3679 24.3455 74.3424 25.3645 72.628C26.2851 71.0792 26.7645 69.3655 27.244 67.6516C27.4217 67.0165 27.5993 66.3813 27.7995 65.7545C27.8377 65.6349 27.959 65.5628 28.0826 65.5854C28.1791 65.6029 28.2566 65.6751 28.281 65.7701C28.3704 66.1188 28.4591 66.4677 28.5478 66.8165L28.5487 66.8199L28.5496 66.8232C28.7729 67.7013 28.9962 68.5793 29.2305 69.4545C30.108 72.7318 31.8399 75.3155 35.0949 76.6677C35.2868 76.7474 35.4565 76.8807 35.6261 77.014ZM169.595 126.449C169.392 126.363 169.212 126.227 169.088 126.046C167.863 124.262 167.526 122.306 167.244 120.404C166.267 113.799 166.739 107.302 169.278 101.054C170.31 98.514 171.6 96.106 173.583 94.163C174.693 93.0752 175.974 92.2619 177.656 92.6146L177.673 92.6181C177.936 92.6732 178.226 92.7338 178.373 93.0659C178.404 93.1358 178.394 93.2161 178.363 93.2861C178.32 93.3832 178.269 93.4979 178.186 93.5807C173.436 98.3457 171.859 104.453 171.029 110.82C170.39 115.721 170.59 120.619 171.709 125.459C172.037 126.878 171.705 127.152 170.277 126.712C170.045 126.64 169.82 126.545 169.595 126.449ZM189.341 63.6394C188.019 64.611 184.605 64.7538 183.324 63.7287C182.676 63.21 181.94 62.7838 181.107 62.4565C180.748 62.3155 180.204 62.1237 180.306 61.7518C180.353 61.5812 180.592 61.5101 180.767 61.4587C183.695 60.5967 185.441 58.6539 186.122 55.7063C186.139 55.6346 186.191 55.5712 186.268 55.4796C186.339 55.3937 186.479 55.4076 186.525 55.5093C186.722 55.9421 186.886 56.3835 187.049 56.8205C187.424 57.8266 187.79 58.8091 188.518 59.6078C189.163 60.3142 189.997 60.7095 190.897 61.1363C191.629 61.4832 191.488 62.4863 190.75 62.821C190.236 63.0541 189.767 63.3262 189.341 63.6394ZM167.888 37.6155C166.954 38.0415 166.114 38.4248 165.596 39.2815C165.335 39.7237 165.143 40.167 164.949 40.613C164.557 41.5183 163.397 41.3437 162.918 40.481C162.481 39.6949 161.94 39.0204 161.291 38.4514C160.352 37.6288 160.328 35.5211 161.289 34.7242C162.327 33.8638 165.541 33.9229 166.575 34.7874C166.928 35.0824 167.316 35.3476 167.741 35.5826C168.597 36.056 168.778 37.2092 167.888 37.6155ZM25.9758 123.06C25.9912 123.113 26.0064 123.166 26.0237 123.217C26.5901 125.554 28.3328 126.478 30.2555 127.499C30.2563 127.499 30.2563 127.498 30.2555 127.499C29.2878 127.844 28.4627 128.308 27.7721 128.893C26.8452 129.679 24.125 129.691 23.1862 128.92C22.3333 128.219 22.2731 126.513 23.1187 125.803C23.8829 125.162 24.4759 124.38 24.8404 123.404C25.0733 122.781 25.7916 122.42 25.9758 123.06ZM54.7118 34.3506C54.8219 34.2862 54.9368 34.2277 55.0576 34.1869C56.971 33.5409 57.8073 32.0405 58.6963 30.4456L58.6992 30.4403C58.823 30.2181 59.1452 30.2334 59.251 30.4647C59.6341 31.3021 60.0391 32.1078 60.5753 32.8057C61.2773 33.7195 61.3024 35.9667 60.5703 36.8565C59.8509 37.7309 58.094 37.7029 57.3397 36.8585C56.7539 36.2028 56.0473 35.6942 55.1953 35.364C54.6879 35.1675 54.2421 34.6253 54.7118 34.3506ZM54.2953 138.551L54.2633 138.45C52.9752 134.251 53.4065 130.498 55.9029 127.066L55.9731 126.969C56.2455 126.592 56.5208 126.211 56.9317 125.941C57.0955 125.833 57.3003 125.93 57.3413 126.122C57.3953 126.374 57.4472 126.616 57.5965 126.752C59.0393 128.057 58.3741 129.168 57.6149 130.437L57.4734 130.674C55.917 133.303 55.577 136.302 55.2725 139.283C55.2661 139.347 55.269 139.413 55.272 139.48C55.2884 139.849 54.8574 139.872 54.6809 139.547C54.5109 139.234 54.403 138.893 54.2953 138.551ZM19.7512 105.77C20.5796 105.329 21.3523 104.918 21.7839 104.062C22.2103 103.194 23.6002 103.32 24.1379 104.124C24.3538 104.447 24.5947 104.743 24.862 105.013C25.6625 105.823 25.7415 107.486 24.887 108.238C23.9908 109.027 21.8499 109.144 20.9491 108.36C20.6268 108.08 20.2777 107.829 19.9004 107.606C19.1597 107.17 18.9924 106.174 19.7512 105.77ZM86.567 21.2027C86.6818 21.4544 86.7717 21.7222 86.7685 21.9989C86.7552 23.1451 86.1621 23.8437 85.2428 24.3142C84.3751 24.7582 83.5825 24.4447 82.8713 23.9146C82.1536 23.3797 81.6927 22.6614 81.8607 21.7382C82.0605 20.6398 82.7157 19.8984 83.8368 19.6169C84.7767 19.3809 85.5021 19.8013 86.1047 20.4253C86.3085 20.6363 86.4378 20.9196 86.567 21.2027ZM135.614 22.895C133.733 24.3727 130.817 20.9389 132.505 19.2447C132.716 19.0328 132.956 18.8698 133.199 18.7727C134.544 18.2371 135.885 18.8471 136.427 20.296C136.828 21.3669 136.457 22.2324 135.614 22.895ZM119.554 71.3926C117.508 72.4172 116.349 71.3612 118.353 70.2579C119.528 69.6114 120.84 69.1117 122.148 68.8493C122.356 68.8209 122.559 68.7878 122.759 68.7553C123.884 68.5721 123.892 69.6235 122.818 70.0044C121.687 70.4061 120.602 70.8678 119.554 71.3926ZM73.3286 102.542C73.3978 102.495 73.4671 102.447 73.5357 102.399C73.6569 102.314 73.7969 102.233 73.9347 102.179C75.6443 101.504 75.7307 103.568 74.0899 104.396C73.7178 104.584 73.3515 104.781 72.9892 104.99C72.7454 105.13 72.4851 105.158 72.2564 104.923C71.9782 104.637 71.9247 104.324 72.0505 103.942C72.2729 103.266 72.8003 102.904 73.3286 102.542ZM46.4777 43.806C46.4942 43.7849 46.5109 43.7642 46.5277 43.7439C47.5703 42.4875 50.3242 43.7072 49.7292 45.2275C49.4423 45.9606 48.953 46.5505 48.0996 46.6333C47.2384 46.7168 46.6911 46.231 46.2695 45.5327C45.8812 44.8896 46.0724 44.3236 46.4777 43.806ZM35.846 56.2055C36.305 55.5594 37.2524 55.4373 37.9587 55.7967C38.5264 56.0856 38.8386 56.5823 38.8334 57.3414C38.828 58.1118 38.3495 58.7075 37.6148 58.9383C36.9265 59.1545 36.2742 58.9416 35.8472 58.3219C35.3716 57.6316 35.3493 56.9047 35.846 56.2055ZM196.424 98.833C196.109 97.0925 199.513 96.3895 199.711 98.1473C199.738 98.3842 199.693 98.6413 199.574 98.9112C199.249 99.6505 198.733 100.199 197.821 100.074C197.089 99.9739 196.56 99.5818 196.424 98.833ZM69.8815 92.3356C68.5575 92.8135 68.0461 89.9319 69.4496 89.8236C69.5043 89.8194 69.561 89.8177 69.6198 89.8185C70.2739 89.8277 70.6855 90.2501 70.798 90.8911C70.9276 91.6288 70.5126 92.1078 69.8815 92.3356ZM199.642 85.5497C199.357 86.2841 198.255 86.4885 197.69 85.9393C197.53 85.7832 197.414 85.5867 197.328 85.361C197.102 84.7672 197.449 84.3176 197.87 83.9863C198.353 83.6059 198.88 83.7457 199.325 84.1082C199.796 84.4926 199.85 85.0148 199.642 85.5497ZM108.555 16.5758C108.938 15.9763 109.944 15.9803 110.352 16.5634C110.361 16.5755 110.369 16.5879 110.377 16.6006C110.738 17.1669 110.72 17.7296 110.215 18.1744C109.719 18.6112 109.123 18.6265 108.636 18.1658C108.141 17.6968 108.208 17.1177 108.555 16.5758ZM202.694 114.506C202.454 114.627 202.228 114.662 202.026 114.623C200.807 114.383 201.547 111.954 202.685 112.454C203.101 112.637 203.442 112.979 203.438 113.472C203.434 113.959 203.103 114.301 202.694 114.506ZM196.1 125.834C196.075 125.808 196.05 125.781 196.026 125.756C195.979 125.708 195.945 125.647 195.937 125.58C195.807 124.51 196.207 123.966 197.154 124.079C197.783 124.154 198.223 124.651 198.022 125.339C197.799 126.105 197.212 126.386 196.442 126.109C196.312 126.062 196.206 125.948 196.1 125.834ZM193.933 75.6566C194.602 76.7038 192.409 77.7462 192.008 76.57C191.993 76.5248 191.979 76.4784 191.966 76.431C191.818 75.8837 192.185 75.4971 192.656 75.2662C193.183 75.0075 193.645 75.2056 193.933 75.6566ZM146.098 25.1414C146.973 24.5634 147.871 26.1929 147.19 26.9899C146.973 27.2437 146.655 27.2839 146.267 27.1006C145.87 26.9127 145.436 26.6613 145.466 26.1271C145.489 25.7065 145.755 25.3681 146.098 25.1414ZM177.7 50.8764C178.9 50.8741 178.789 53.3514 177.654 52.9602C177.572 52.9319 177.485 52.8907 177.392 52.8353C176.953 52.5742 176.694 52.1477 176.857 51.5987C176.979 51.1876 177.26 50.8772 177.7 50.8764ZM72.7092 25.3748C73.1678 26.4194 70.7922 27.0063 70.8131 25.8657C70.8133 25.8568 70.8135 25.8479 70.8138 25.8389C70.8316 25.3194 71.0413 24.8446 71.5641 24.6841C72.1417 24.5068 72.5109 24.923 72.7092 25.3748ZM118.406 89.3128C121.709 89.442 124.175 90.8509 125.805 93.5913C126.639 94.9933 127.209 96.5102 127.783 98.0384C127.991 98.5912 128.2 99.1484 128.422 99.6992C128.797 100.633 128.342 101.651 127.395 101.311C127.228 101.251 127.063 101.192 126.898 101.151C125.84 100.888 125.111 101.003 124.479 102.118C123.089 104.572 120.618 105.166 118.045 105.24C114.133 105.352 110.891 102.713 110.016 98.8671C108.989 94.3478 112.453 89.686 117.089 89.3543C117.423 89.3304 117.758 89.3244 118.157 89.3173L118.406 89.3128ZM113.398 95.5877C114.596 96.1617 115.57 93.5837 114.341 93.0775C113.804 92.8564 113.273 93.0006 112.915 93.5037C112.541 94.028 112.472 94.6111 112.873 95.1262C113.054 95.3582 113.228 95.5066 113.398 95.5877ZM123.6 119.16C122.618 118.875 121.627 118.631 120.609 118.441C118.702 118.084 116.763 117.802 114.823 117.819C114.505 117.822 114.188 117.825 113.872 117.818C112.914 117.795 111.976 117.949 111.923 119.13C111.87 120.329 112.873 120.588 113.773 120.606C116.903 120.672 119.973 121.141 123.027 121.773C123.92 121.958 124.687 121.73 124.939 120.787C125.224 119.721 124.4 119.393 123.6 119.16ZM53.178 108.417C54.0274 108.27 54.8982 108.355 55.7348 108.563C57.2877 108.949 58.749 109.436 60.1079 110.213C60.7147 110.559 61.2668 110.971 60.8781 111.802C60.5221 112.564 59.8701 112.872 59.1098 112.609C57.1314 111.922 55.1457 111.278 53.0941 110.84C52.4761 110.708 52.0331 110.304 52.1028 109.61C52.1658 108.983 52.5121 108.532 53.178 108.417ZM103.451 129.047C104.897 129.291 105.594 126.685 104.281 126.032C104.034 125.91 103.75 125.876 103.444 125.947C102.429 126.185 102.158 126.975 102.295 127.907C102.387 128.539 102.819 128.94 103.451 129.047ZM101.487 122.007C101.849 123.354 99.478 124.225 98.7399 123.041C98.6961 122.971 98.6552 122.896 98.6171 122.818C98.3728 122.314 98.4522 121.782 98.8108 121.304C99.2193 120.759 99.7633 120.686 100.367 120.797C101.034 120.919 101.336 121.446 101.487 122.007ZM96.2603 125.728C96.2332 125.73 96.2062 125.736 96.1807 125.746C95.2179 126.106 94.8589 126.763 95.1152 127.641C95.3366 128.399 95.9551 128.8 96.7527 128.717C97.5665 128.632 98.0336 128.063 98.0767 127.29C98.1312 126.312 97.435 125.91 96.5863 125.72C96.5079 125.703 96.4236 125.711 96.2603 125.728ZM105.625 119.339C107.165 120.131 105.205 122.927 103.97 121.713C103.387 121.14 103.47 120.428 103.883 119.765C104.277 119.134 104.906 119.01 105.511 119.284C105.55 119.301 105.588 119.32 105.625 119.339ZM85.3105 119.843C85.1175 120.578 85.3372 121.149 86.1376 121.538C87.0781 121.874 87.5857 121.367 87.9976 120.769C88.2962 120.336 88.2546 119.838 87.9322 119.402C87.5676 118.909 87.0959 118.607 86.4552 118.7C85.7976 118.795 85.4667 119.248 85.3105 119.843ZM93.7387 120.251C95.2113 120.418 94.8913 123.323 93.4136 123.209C92.7642 123.159 92.2274 122.725 92.0945 122.044C91.9344 121.224 92.1184 120.46 93.0697 120.285C93.3145 120.24 93.5381 120.228 93.7387 120.251ZM69.9834 122.116C69.6778 121.815 69.366 121.677 69.0644 121.7C67.6081 121.811 67.6823 124.666 69.1428 124.664C69.7057 124.663 70.2244 124.385 70.4238 123.841C70.6559 123.208 70.465 122.592 69.9834 122.116ZM63.9048 118.304C63.8929 118.223 63.8937 118.141 63.9085 118.061C63.9472 117.848 63.9746 117.697 64.0436 117.568C64.4355 116.839 65.0818 116.614 65.8426 116.801C66.511 116.965 66.91 117.46 66.9198 118.148C66.9297 118.853 66.4553 119.316 65.8461 119.522C65.0879 119.778 64.456 119.472 64.0317 118.795C63.9599 118.681 63.9385 118.534 63.9095 118.336C63.908 118.326 63.9064 118.315 63.9048 118.304ZM90.2056 127.029C91.5694 126.5 90.9054 124.002 89.4495 124.143C89.1384 124.173 88.8534 124.353 88.6159 124.684C88.2176 125.239 88.1474 125.835 88.591 126.404C88.9989 126.928 89.5381 127.288 90.2056 127.029ZM64.3312 121.83C65.1026 121.807 65.8305 122.387 65.9119 123.154C65.9475 123.49 65.8577 123.822 65.6312 124.151C65.2265 124.738 64.5921 124.863 63.9718 124.611C63.2916 124.334 62.9461 123.756 63.0962 123.004C63.2269 122.349 63.5765 121.853 64.3312 121.83ZM71.8205 119.494C71.2314 119.469 71.0059 118.577 71.5852 118.468C71.6505 118.455 71.7219 118.45 71.7996 118.451C71.9685 118.454 72.1306 118.513 72.2746 118.601C72.4774 118.725 72.6531 118.833 72.8506 118.689C73.11 118.501 73.0224 118.212 72.8874 117.967C72.561 117.374 72.0173 117.258 71.403 117.308C70.759 117.36 70.4583 117.797 70.3642 118.354C70.2297 119.151 70.5937 119.742 71.3029 120.099C71.5059 120.201 71.7087 120.28 71.8988 120.295C72.4557 120.337 72.3785 119.517 71.8205 119.494ZM91.8028 49.837C98.057 48.6542 104.216 48.46 110.431 49.2502C115.205 49.8571 119.781 51.1089 124.237 52.8712C125.121 53.2208 125.81 53.7639 125.933 54.7624C126.028 55.5284 125.508 56.0295 124.944 56.3946C124.264 56.8358 123.553 56.6001 122.869 56.3733C122.787 56.3464 122.707 56.3196 122.626 56.294C120.371 55.578 118.117 54.8739 115.821 54.2874C107.809 52.2405 99.7545 52.1892 91.6617 53.678C90.6781 53.859 89.8361 53.7235 89.3071 52.8705C88.8762 52.1756 88.9692 51.3751 89.5077 50.7428C90.0462 50.1104 90.8437 49.9863 91.7229 49.8494L91.8028 49.837ZM188.98 107.756C188.615 105.152 185.071 103.477 183.925 105.844C183.837 106.024 183.754 106.221 183.673 106.436C181.99 110.934 181.756 115.564 182.836 120.244C183.088 121.339 183.676 122.318 184.892 122.455C186.065 122.587 186.737 121.707 187.265 120.789C187.576 120.249 187.874 119.689 188.077 119.103C189.365 115.403 189.52 111.601 188.98 107.756Z" fill="white"/>
</g>
</svg>
