<svg width="42" height="42" viewBox="0 0 42 42" fill="none" xmlns="http://www.w3.org/2000/svg">
<path d="M0.217795 18.001C0.373312 16.7903 0.649445 15.6314 1.03261 14.4965C2.10302 11.3261 3.8289 8.54926 6.21143 6.15681C8.81438 3.54302 11.9202 1.7604 15.4869 0.742677C16.71 0.393696 17.9686 0.202409 19.2406 0.0976916C20.02 0.0335189 20.7993 -0.0241485 21.5808 0.0103213C23.5673 0.0979448 25.5119 0.413801 27.4074 1.02137C29.3247 1.63594 31.1117 2.50356 32.777 3.6106C34.6111 4.82978 36.1836 6.32023 37.5266 8.04827C38.8384 9.73622 39.8995 11.559 40.6604 13.5454C41.2402 15.0592 41.6524 16.6191 41.8456 18.2242C42.0112 19.6 42.0479 20.981 41.9349 22.3694C41.8186 23.7986 41.6178 25.2087 41.2357 26.5921C41.0283 27.343 41.1062 27.1781 40.4514 26.996C40.2643 26.9439 40.0866 26.8601 39.9031 26.7951C39.6561 26.7077 39.4502 26.7825 39.2642 26.9501C38.6207 27.5299 38.2672 27.5514 37.541 27.06C37.1791 26.815 36.745 26.8546 36.4402 27.2754C36.0565 27.8053 35.7543 28.3922 35.2879 28.9125C35.7744 29.0333 36.1308 28.8738 36.4713 28.6553C36.5567 28.6005 36.6324 28.5313 36.7148 28.4717C37.038 28.2377 37.1685 28.218 37.4479 28.4846C37.9306 28.945 38.8184 28.8948 39.3184 28.3914C39.5935 28.1145 40.2105 28.1418 40.4796 28.4294C40.5431 28.4972 40.519 28.5631 40.4884 28.6311C40.3684 28.898 40.2464 29.1642 40.1274 29.4316C40.0773 29.5443 40.0006 29.6072 39.8684 29.5913C39.621 29.5616 39.4446 29.6947 39.2729 29.8411C38.6918 30.3363 38.2963 30.37 37.6272 29.9837C37.1148 29.6878 36.988 29.6958 36.5259 30.0528C35.867 30.5619 35.3033 30.5547 34.6609 30.0301C34.6049 29.9844 34.5435 29.9448 34.4943 29.9094C34.393 29.9302 34.3798 29.9988 34.3791 30.0603C34.3741 30.4433 34.3597 30.8272 34.378 31.2094C34.392 31.5026 34.9282 31.8794 35.318 31.9152C35.7835 31.9579 36.1744 31.8059 36.5272 31.5191C37.0089 31.1275 37.0397 31.1231 37.5276 31.4908C37.8726 31.7508 38.254 31.7958 38.6644 31.7364C38.7447 31.7247 38.8234 31.6742 38.9258 31.7467C38.7417 32.0896 38.5102 32.4053 38.2749 32.7182C37.9367 33.168 37.9337 33.1709 37.4586 32.8987C37.1654 32.7306 36.8851 32.7103 36.5968 32.9088C36.424 33.0278 36.2399 33.131 36.0362 33.2565C36.2789 33.5342 36.5768 33.7071 36.8372 33.9202C37.2063 34.2222 37.2225 34.2238 36.9159 34.574C35.2344 36.4945 33.2994 38.117 31.0445 39.3665C29.2162 40.3797 27.2848 41.1292 25.2274 41.5468C23.444 41.9088 21.6381 42.09 19.8174 41.9557C14.0203 41.5282 9.20822 39.1611 5.38557 34.87C5.18458 34.6444 4.99149 34.412 4.77173 34.156C4.93426 34.0545 5.06921 33.9645 5.20959 33.8836C5.56813 33.6769 5.71132 33.6877 6.04542 33.9366C6.68167 34.4107 7.1307 34.411 7.74762 33.9192C7.9812 33.733 8.23462 33.6734 8.55696 33.7677C8.55696 33.0967 8.56249 32.4698 8.55328 31.8431C8.55082 31.6753 8.35662 31.5823 8.17584 31.6431C8.05889 31.6825 7.97111 31.7657 7.87956 31.8443C7.32098 32.3239 6.77559 32.3421 6.18835 31.904C5.67875 31.5238 5.46555 31.5291 4.99112 31.9337C4.52829 32.3284 4.02862 32.3561 3.51032 32.0115C3.22766 31.8236 3.01617 31.5706 2.83913 31.2877C2.6445 30.9767 2.44656 30.6676 2.25586 30.3543C2.21101 30.2806 2.12962 30.1929 2.20979 30.106C2.29274 30.016 2.41528 30.0257 2.52319 30.0591C2.59191 30.0803 2.65224 30.1295 2.71431 30.1692C3.33676 30.5673 3.91405 30.5528 4.52595 30.1229C4.54109 30.1122 4.55563 30.1008 4.57082 30.0902C5.0086 29.7861 5.0952 29.7815 5.47178 30.1579C5.87065 30.5567 6.3321 30.6337 6.85443 30.4767C6.94854 30.4485 7.05221 30.4216 7.13085 30.3079C6.9872 30.1504 6.8373 29.9926 6.69487 29.8285C6.30123 29.3751 5.9706 28.8799 5.67567 28.36C5.41425 27.8991 4.99536 27.814 4.55601 28.1272C4.36843 28.2609 4.19573 28.4097 3.96589 28.4824C3.53171 28.6197 3.12861 28.5876 2.79725 28.2671C2.43729 27.919 2.0684 27.881 1.63843 28.1322C1.35318 28.2988 1.33673 28.2873 1.21403 27.9623C0.776835 26.8043 0.491161 25.606 0.292425 24.3907C0.06708 23.0126 -0.0365914 21.6218 0.0115884 20.2255C0.0369792 19.4896 0.102262 18.7546 0.217795 18.001ZM13.1959 27.6006C13.445 27.9481 13.7055 28.2839 14.1303 28.5076C14.1694 28.2577 14.1498 28.0387 14.2789 27.8008C14.6546 28.5308 15.1633 29.0772 15.9033 29.4604C15.8304 29.019 15.6186 28.6416 15.6613 28.1705C16.3842 28.7027 17.0423 29.2423 17.9427 29.3862C17.9781 28.9373 17.6944 28.5794 17.7071 28.1295C18.3637 28.3954 18.9504 28.8161 19.7085 28.7204C19.6945 28.3258 19.4279 28.0532 19.2968 27.7033C19.8153 27.7355 20.302 28.0002 20.815 27.7483C21.0764 28.29 21.0661 28.8837 21.1565 29.5268C21.5267 28.9475 21.6555 28.3916 21.5545 27.7957C21.5158 27.5673 21.5648 27.4912 21.8075 27.4699C22.1178 27.4427 22.4287 27.3837 22.7362 27.2814C22.7124 27.0931 22.6225 26.9437 22.54 26.793C22.2284 26.2234 21.8074 25.7402 21.3208 25.3071C21.1959 25.1959 21.0667 25.0601 21.2146 24.8843C21.3633 24.7075 21.5297 24.7816 21.6846 24.8857C22.0807 25.1522 22.4025 25.4903 22.6857 25.8688C23.2983 26.6874 23.5663 27.6231 23.6994 28.6127C23.7314 28.8506 23.6963 29.1104 23.8485 29.3706C23.8877 29.2808 23.9158 29.2336 23.9294 29.1827C24.0919 28.5752 24.1225 27.9635 24.0044 27.3436C23.9841 27.2371 23.8891 27.0795 24.0173 27.0147C24.3166 26.8636 24.1624 26.6793 24.0755 26.5147C23.5673 25.5524 22.8072 24.8351 21.8266 24.34C21.6432 24.2475 21.4978 24.1325 21.607 23.9144C21.7074 23.7136 21.8846 23.7355 22.0636 23.8158C23.5417 24.4793 24.5063 25.5667 24.9259 27.114C25.0881 27.712 25.1281 28.3274 25.2352 29.0194C25.3023 28.8287 25.3482 28.7145 25.3828 28.5971C25.5463 28.0412 25.5267 27.4782 25.419 26.9187C25.3777 26.7041 25.3799 26.5833 25.6474 26.5439C25.9383 26.501 25.9685 26.3994 25.8021 26.1557C25.5271 25.7529 25.2299 25.3671 24.8458 25.0547C24.6667 24.9091 24.4884 24.7625 24.3055 24.6216C24.1469 24.4996 24.0166 24.3618 24.1536 24.1623C24.2929 23.9593 24.4724 24.0766 24.6239 24.1541C24.8641 24.2769 25.0739 24.4456 25.2783 24.6194C26.1856 25.3905 26.7852 26.3703 27.2653 27.4308C27.3753 27.6739 27.4816 27.9185 27.5896 28.1623C27.7514 26.6313 26.9991 25.4488 26.1059 24.3096C26.9012 24.6498 27.5173 25.2111 28.1417 25.8723C28.0757 24.8059 27.6331 23.9859 26.9921 23.239C28.1707 23.4562 29.0392 24.1387 29.829 24.9616C29.8143 23.9613 29.3031 23.1827 28.6738 22.3922C29.1214 22.4777 29.4454 22.6941 29.8248 22.7833C29.141 21.4825 28.0119 20.7645 26.5433 20.4634C26.7619 20.2292 27.0366 20.2372 27.2437 20.067C26.9974 19.9186 26.7491 19.822 26.4797 19.7931C26.2736 19.771 26.1874 19.7002 26.1591 19.4759C26.0685 18.7579 25.8909 18.0571 25.5035 17.4297C24.9178 16.4812 24.1226 15.8257 22.9336 15.7885C21.9934 15.7591 21.2358 16.1137 20.767 16.9323C20.2891 17.7668 20.3307 18.6128 20.8413 19.4235C21.4328 20.3626 22.3153 21.0064 23.2232 21.6208C23.3015 21.6738 23.4166 21.6936 23.4332 21.8106C23.377 21.8816 23.3111 21.8489 23.2499 21.842C22.7148 21.7812 22.1806 21.7117 21.6446 21.6607C20.5401 21.5556 19.6128 21.1019 18.8476 20.322C17.9825 19.4403 17.0272 18.6955 15.7654 18.4461C14.5068 18.1973 13.3138 18.2863 12.3117 19.19C12.0447 19.4309 11.7943 19.6894 11.5346 19.9382C11.3381 20.1265 11.1086 20.23 10.8222 20.1966C11.2622 19.9137 11.6075 19.5548 11.8687 19.1153C11.9298 19.0125 11.9668 18.9323 11.8741 18.8229C11.6862 18.6013 11.5805 18.3402 11.5545 18.0783C11.4821 17.9763 11.3727 18.1181 11.316 17.9909C11.4533 17.6644 11.5614 17.3147 11.7521 16.9987C12.1423 16.3522 12.8656 16.0518 13.5377 16.2567C14.056 16.4146 14.2797 16.8999 14.0603 17.3883C14.0323 17.4505 13.9686 17.5083 14.0472 17.6227C14.5185 17.272 14.7671 16.8093 14.7877 16.2511C14.8136 15.5517 14.4339 15.1133 13.6938 14.913C14.0064 14.6735 14.317 14.6184 14.6379 14.5845C15.1559 14.5299 15.2002 14.4574 15.0181 13.9677C14.98 13.8652 14.9289 13.7668 14.8775 13.6698C14.7896 13.5037 14.6967 13.3401 14.5872 13.1416C15.3059 13.1184 15.6596 13.5332 15.927 14.1123C16.0935 13.7946 16.0587 13.4873 16.174 13.2217C16.2185 13.1192 16.2253 12.9567 16.3783 12.9623C16.5213 12.9675 16.5379 13.1214 16.5858 13.227C16.6692 13.4111 16.6502 13.6325 16.807 13.8366C17.2011 13.2514 17.6681 12.8007 18.3795 12.6722C18.0288 13.1037 17.7647 13.556 17.7325 14.1079C18.0316 13.7177 18.2786 13.2971 18.6539 12.9731C19.1845 12.5149 19.6694 12.2893 19.9695 12.3805C19.8053 12.5844 19.5364 12.7014 19.4427 13.053C19.9319 12.6705 20.4098 12.4074 20.8708 12.0959C19.3577 11.6749 17.9234 11.869 16.5573 12.6176C16.3878 12.2406 16.2389 11.9091 15.8383 11.7423C15.8083 12.0906 16.0367 12.3804 15.9433 12.7055C15.5819 12.674 15.2392 12.6435 14.8972 12.7089C13.9747 12.8853 13.1935 13.3325 12.4998 13.9325C11.4252 14.8617 10.6841 16.0019 10.3062 17.3601C10.2291 17.6375 10.2604 17.9726 9.8587 18.0429C9.85174 18.0441 9.85029 18.0756 9.84551 18.0962C9.94155 18.2643 10.2282 18.1965 10.2847 18.4117C10.2457 18.4806 10.1834 18.475 10.1331 18.4944C9.53316 18.7254 8.99568 19.0435 8.61807 19.5716C8.45579 19.7985 8.27386 20.0274 8.39899 20.3317C7.8056 20.788 7.8056 20.788 7.76844 21.0114C7.93841 21.0322 8.07928 20.8529 8.28908 20.9354C8.04894 21.2774 7.81907 21.6039 7.75856 22.042C8.27061 21.8972 8.72785 21.6417 9.27995 21.8448C8.29034 22.3081 7.49979 22.9145 7.35941 24.1266C7.57377 23.8983 7.7419 23.7185 7.91073 23.5394C8.33732 23.0869 8.80455 22.6864 9.38981 22.4383C9.63803 22.3331 9.88946 22.2365 10.1629 22.2177C10.3314 22.2061 10.4235 22.3039 10.4626 22.4497C10.501 22.5931 10.4042 22.6705 10.2898 22.7259C10.2236 22.758 10.151 22.7779 10.0804 22.8009C9.04836 23.1376 8.41002 23.8316 8.16216 24.862C8.08022 25.2027 8.02619 25.5558 8.18495 25.8992C8.2636 25.875 8.26505 25.8178 8.28082 25.7664C8.44002 25.2482 8.65175 24.7539 8.98534 24.3173C9.27797 23.9343 9.60742 23.5889 10.0492 23.3662C10.2104 23.285 10.3554 23.3042 10.4654 23.4594C10.5809 23.6226 10.5176 23.7496 10.3826 23.864C10.2865 23.9455 10.1546 23.9862 10.0828 24.1134C10.2195 24.2407 10.402 24.2612 10.5623 24.3206C11.3935 24.6289 12.2316 24.6682 13.0629 24.3263C13.4489 24.1675 13.8226 23.9551 13.8885 23.5067C14.0082 22.6917 13.9581 22.2401 13.2211 21.7076C13.109 21.6266 12.9853 21.5611 12.8679 21.4871C12.3923 21.1873 12.207 20.7185 12.3583 20.1844C12.5333 19.5664 13.0158 19.263 13.5967 19.1176C14.5866 18.87 15.5346 19.0435 16.4294 19.5053C16.6713 19.6302 16.863 19.8178 16.9745 20.073C17.2749 20.7608 16.9884 21.4285 16.2339 21.7462C15.9361 21.8717 15.6131 21.9393 15.3127 22.0599C14.8911 22.2291 14.6971 22.5466 14.6834 23.001C14.6652 23.6111 14.9493 24.0405 15.4314 24.3843C16.0726 24.8416 16.7865 25.1386 17.5452 25.3498C18.2987 25.5596 19.0837 25.6021 19.8417 25.782C20.0863 25.84 20.347 25.87 20.594 26.0231C20.5279 26.0736 20.4965 26.1074 20.4574 26.126C19.6592 26.5077 18.8197 26.6517 17.9348 26.5581C17.0729 26.4669 16.2722 26.1776 15.4776 25.8605C14.8874 25.625 14.2838 25.4655 13.6314 25.5335C13.0028 25.5991 12.3697 25.6631 11.7457 25.4853C11.51 25.4182 11.2748 25.3493 10.9723 25.2617C11.1155 25.7771 11.2774 26.2131 11.5588 26.627C11.6743 26.487 11.5984 26.3111 11.777 26.2254C12.0086 26.7265 12.1845 27.2567 12.623 27.7007C12.6737 27.4116 12.6457 27.1654 12.7586 26.8791C12.9157 27.1384 13.0454 27.3525 13.1959 27.6006ZM20.9502 6.73599C21.4016 6.79356 21.8573 6.82882 22.3036 6.91244C24.6816 7.35801 26.8212 8.30946 28.6677 9.85526C29.1124 10.2275 29.5545 10.6094 29.9058 11.0755C30.0073 11.2102 30.0821 11.3522 30.0406 11.5312C29.9402 11.9642 29.4918 12.1317 29.1375 11.8477C28.7632 11.5475 28.4185 11.212 28.0447 10.9111C25.1944 8.61624 21.9344 7.61236 18.256 7.97929C16.3367 8.17075 14.5623 8.80693 12.9113 9.77389C12.5347 9.99447 12.1621 10.2286 11.844 10.5354C12.2437 10.4392 12.6326 10.3251 13.0203 10.2075C13.1815 10.1585 13.3358 10.1816 13.4828 10.247C13.7491 10.3654 13.7767 10.6783 13.5295 10.8354C13.4222 10.9036 13.2939 10.9428 13.1715 10.9855C12.4757 11.2277 11.8106 11.5359 11.1856 11.9184C8.89434 13.3206 7.48168 15.3561 6.74596 17.8724C6.68212 18.0907 6.6173 18.3121 6.59001 18.5364C6.5619 18.7675 6.67691 18.9588 6.91091 19.0209C7.12997 19.0791 7.28442 18.9467 7.38034 18.7614C7.43465 18.6564 7.47559 18.5435 7.51048 18.4306C7.91209 17.1309 8.46147 15.9014 9.26144 14.7832C9.99462 13.7584 10.8401 12.8364 11.8849 12.1161C13.6498 10.8993 15.6691 10.3813 17.7863 10.2452C19.7872 10.1165 21.7572 10.3266 23.6738 10.9675C26.2026 11.8132 28.4356 13.1085 30.3087 14.9857C30.5913 15.2689 30.9001 15.5271 31.1788 15.7807C31.0094 15.3627 30.7161 14.9797 30.4091 14.6061C30.2166 14.3719 30.0073 14.1509 29.8194 13.9135C29.711 13.7766 29.7139 13.6196 29.8454 13.4908C29.9819 13.3571 30.1405 13.3477 30.3031 13.4489C30.358 13.4831 30.4099 13.5223 30.4606 13.5624C31.1736 14.1259 31.8193 14.7551 32.3913 15.4565C32.4573 15.5374 32.51 15.6379 32.6557 15.6604C32.6557 15.5881 32.6566 15.5345 32.6554 15.4809C32.6543 15.4353 32.6559 15.3889 32.6477 15.3444C32.2987 13.4645 31.5309 11.7786 30.2129 10.3538C29.1866 9.24438 27.9892 8.33458 26.7147 7.51662C26.6069 7.44748 26.4636 7.4029 26.4045 7.23837C26.4825 7.23353 26.5366 7.22191 26.5885 7.22819C27.4271 7.32963 28.2249 7.55958 28.9793 7.93764C30.2122 8.55554 31.2774 9.38755 32.2312 10.3623C33.878 12.0455 35.0567 14.0041 35.727 16.2377C35.8669 16.7042 36.2052 16.7718 36.5417 16.9516C36.6021 16.7805 36.571 16.6481 36.5371 16.5163C35.6388 13.0229 33.7106 10.1758 30.8705 7.91305C28.7324 6.20957 26.2917 5.14378 23.5783 4.66633C22.184 4.42098 20.7807 4.38223 19.3809 4.53579C17.3031 4.76374 15.3585 5.40977 13.5533 6.45535C11.5264 7.62937 9.85098 9.17657 8.45681 11.0232C7.13117 12.7791 6.19799 14.7324 5.52113 16.8024C4.85984 18.8248 4.77452 20.8747 5.35987 22.9326C5.60831 23.806 5.96809 24.6307 6.56173 25.3561C6.59686 25.2771 6.54696 25.235 6.52747 25.1888C5.64739 23.1033 5.27273 20.9498 5.59081 18.6972C5.78149 17.3468 6.21675 16.0732 6.84772 14.8661C7.62107 13.3867 8.62511 12.0685 9.80477 10.8711C11.5007 9.14958 13.5319 7.97731 15.8548 7.28389C17.4972 6.79362 19.1818 6.60667 20.9502 6.73599ZM20.7355 37.8894C20.7208 37.7767 20.7116 37.77 20.519 37.7573C19.2011 37.6707 17.888 37.5458 16.5859 37.3206C14.1955 36.9073 11.9313 36.178 9.93223 34.7832C9.78871 34.6831 9.69131 34.6823 9.58654 34.8283C9.36171 35.1415 9.13588 35.4545 8.89594 35.7566C8.73901 35.9541 8.76944 36.0929 8.94547 36.2687C9.94685 37.269 11.1101 38.0544 12.3615 38.7119C14.2485 39.7033 16.2537 40.3419 18.3903 40.577C19.9123 40.7445 21.4292 40.7982 22.9496 40.5641C24.4391 40.3348 25.8178 39.806 27.1372 39.1125C27.4358 38.9556 27.5335 38.746 27.4404 38.5438C27.3485 38.3442 27.122 38.2809 26.8097 38.3673C25.4309 38.7488 24.0414 39.0876 22.6278 39.3198C21.157 39.5615 19.6776 39.7149 18.1833 39.6099C17.6461 39.5722 17.1063 39.5316 16.5837 39.3934C16.3889 39.3418 16.2124 39.2256 16.232 38.9939C16.2517 38.761 16.4442 38.6836 16.6479 38.6595C16.9246 38.6268 17.2036 38.6123 17.4818 38.5925C18.5902 38.514 19.6768 38.3373 20.7355 37.8894ZM22.2442 34.9041C22.1324 34.9068 22.0203 34.9051 21.909 34.9131C20.1092 35.0421 18.3184 34.9483 16.5392 34.6715C14.305 34.324 12.1879 33.6299 10.2063 32.5517C10.0997 32.4937 9.9962 32.4025 9.85366 32.4269C9.74134 32.891 9.93912 33.2388 10.2478 33.5428C10.6121 33.9017 11.0446 34.1725 11.4926 34.4172C13.8548 35.7073 16.428 36.2285 19.095 36.3365C20.7301 36.4027 22.3669 36.3745 23.9969 36.1378C26.2892 35.8049 28.4921 35.2088 30.5404 34.1328C31.3609 33.7017 32.1574 33.2268 32.7798 32.5214C33.076 32.1859 33.1047 31.8124 33.0375 31.4017C32.8527 31.4016 32.7442 31.5119 32.6268 31.5946C31.1205 32.6543 29.4488 33.3775 27.6879 33.9144C25.931 34.4499 24.1248 34.7362 22.2442 34.9041ZM16.6139 32.8971C17.4179 32.9887 18.2246 33.053 19.0339 33.0613C20.3183 33.0744 21.6042 33.0979 22.8832 32.9492C23.3516 32.8947 23.8316 32.8845 24.2771 32.7052C24.7457 32.5166 24.9152 31.9869 24.6491 31.5664C24.4209 31.2058 24.0566 31.0857 23.5153 31.2143C22.1536 31.5378 20.7708 31.6953 19.3721 31.724C17.7104 31.7581 16.0613 31.6305 14.4351 31.2882C12.4075 30.8614 10.4873 30.1639 8.74643 29.039C7.87424 28.4754 7.09274 27.8112 6.41034 26.926C6.83999 27.8493 7.38484 28.5932 8.04776 29.2574C9.45035 30.6627 11.1714 31.5367 13.056 32.1368C14.1998 32.501 15.3749 32.7288 16.6139 32.8971ZM33.845 26.915C32.5908 28.659 30.9192 29.9333 29.0569 30.9922C28.9854 31.0329 28.9049 31.0623 28.8249 31.0838C28.6103 31.1417 28.3771 31.0211 28.3157 30.8158C28.2412 30.567 28.3725 30.397 28.5598 30.2528C29.021 29.8979 29.4872 29.549 29.9414 29.1856C31.0758 28.2782 32.0267 27.2098 32.8148 26.002C32.8723 25.914 32.9769 25.8243 32.9159 25.7061C32.771 25.4253 32.6162 25.149 32.3812 24.8496C30.876 27.5659 28.6634 29.4628 25.7947 30.6534C25.8759 30.7809 25.9196 30.8495 25.9632 30.9181C26.2089 31.3041 26.3255 31.7103 26.2023 32.1676C26.1245 32.4563 26.1784 32.5031 26.4825 32.4568C26.5282 32.4499 26.5724 32.4337 26.6176 32.4236C27.8189 32.1543 28.9811 31.7728 30.0952 31.2552C31.9312 30.4022 33.4673 29.1907 34.6542 27.5693C34.8991 27.2347 35.1471 26.897 35.3103 26.4801C35.0611 26.508 34.84 26.6036 34.6404 26.5253C34.2507 26.3723 34.0381 26.5377 33.8824 26.8595C33.8785 26.8676 33.872 26.8745 33.845 26.915ZM34.5916 23.1415C34.6452 23.6897 34.7507 24.2266 35.0626 24.6956C35.4669 25.3037 36.0226 25.3352 36.5087 24.7823C36.8023 24.4483 37.0186 24.065 37.1822 23.6539C37.6456 22.4896 37.7597 21.2858 37.5684 20.0576C37.4851 19.5234 37.3108 19.0085 36.9329 18.5918C36.5997 18.2245 36.1438 18.2102 35.7716 18.5393C35.5614 18.7252 35.4012 18.9483 35.2725 19.1932C34.6263 20.4222 34.4548 21.7315 34.5916 23.1415ZM5.47394 14.3775C5.42075 14.3412 5.37218 14.2939 5.31367 14.2701C4.63604 13.9945 4.27548 13.4677 4.0928 12.7996C4.02163 12.5393 3.95532 12.2777 3.8868 12.0167C3.86085 12.0121 3.8349 12.0074 3.80895 12.0028C3.64604 12.4881 3.55853 13.0008 3.28796 13.4466C3.00274 13.9165 2.50146 14.1325 2.04191 14.4567C3.20312 14.9048 3.57808 15.8581 3.81308 16.9129C3.96089 16.739 3.98175 16.5638 4.01499 16.4009C4.17532 15.615 4.56575 14.9971 5.30318 14.6105C5.38214 14.5691 5.50613 14.5406 5.47394 14.3775ZM33.2497 24.3926C33.3185 24.4195 33.3859 24.4512 33.4565 24.4725C33.7538 24.5623 33.8229 24.5064 33.7546 24.2171C33.5217 23.2303 33.4799 22.2317 33.6129 21.2327C33.7857 19.9345 34.1142 18.6896 35.103 17.7181C35.1273 17.6943 35.1384 17.6575 35.1504 17.6361C35.1234 17.5464 35.0541 17.5338 34.9927 17.5212C34.6425 17.4493 34.3758 17.6151 34.1447 17.8369C33.7319 18.233 33.4633 18.7239 33.2484 19.2417C32.7199 20.5155 32.6217 21.8399 32.8251 23.1864C32.8867 23.5942 32.9612 24.0142 33.2497 24.3926ZM35.596 11.3326C36.2191 11.5306 36.5979 11.9673 36.8245 12.5894C36.9817 11.8777 37.4126 11.4746 38.1405 11.3106C37.8145 11.0968 37.4788 11.0336 37.254 10.7922C37.025 10.5465 36.9681 10.2153 36.8172 9.91112C36.7847 9.95493 36.7606 9.97376 36.7551 9.99683C36.6133 10.5977 36.2498 10.9938 35.6402 11.1695C35.5793 11.1871 35.4805 11.216 35.596 11.3326ZM32.4819 6.64836C32.6668 6.34864 33.0495 6.33316 33.3893 6.07005C32.6816 5.88976 32.3078 5.46428 32.1404 4.81539C31.975 5.50993 31.5102 5.87595 30.8556 6.10716C31.5194 6.29272 31.9265 6.69004 32.1073 7.34369C32.2984 7.107 32.3442 6.87691 32.4819 6.64836ZM3.42519 23.7601C3.39955 23.6851 3.39564 23.5964 3.24503 23.5477C3.15553 24.106 2.76208 24.4086 2.23227 24.6111C2.79079 24.7949 3.1651 25.1134 3.30692 25.6882C3.45981 25.1597 3.78276 24.816 4.30661 24.6331C3.90616 24.425 3.54316 24.2365 3.42519 23.7601ZM9.43126 5.62165C9.38418 5.65877 9.30411 5.66751 9.31647 5.79605C9.81619 5.90508 10.1114 6.26026 10.2854 6.75817C10.4608 6.28379 10.7135 5.92532 11.2259 5.73334C10.6809 5.58078 10.487 5.16845 10.2902 4.73699C10.0723 5.11161 9.9033 5.48375 9.43126 5.62165ZM9.30423 26.8655C9.34255 26.9836 9.37725 27.1036 9.47184 27.1967C9.5338 27.1441 9.50906 27.0861 9.51434 27.0354C9.57773 26.4275 9.6485 25.8162 9.97253 25.2802C10.1412 25.0011 10.3171 24.7631 9.99816 24.4806C9.95232 24.44 9.95056 24.3516 9.92658 24.2799C9.79309 24.3368 9.72087 24.4432 9.64557 24.5446C9.12585 25.2444 9.03607 26.0095 9.30423 26.8655ZM2.54254 19.855C2.393 20.1452 2.04672 20.1847 1.77773 20.4186C2.26693 20.5673 2.59259 20.8596 2.79317 21.3239C2.94023 20.8219 3.29794 20.5729 3.73454 20.3791C3.23047 20.2026 2.93881 19.8754 2.80526 19.3355C2.69804 19.5466 2.62894 19.6827 2.54254 19.855ZM16.0673 3.03962C16.0236 2.96017 15.9947 2.86669 15.9331 2.8042C15.8076 2.67699 15.6566 2.59128 15.461 2.6394C15.2276 2.69679 15.0912 2.84794 15.0496 3.07187C15.0146 3.26007 15.1106 3.40651 15.26 3.51555C15.408 3.62361 15.573 3.68754 15.7537 3.59701C15.9673 3.48992 16.0964 3.32488 16.0673 3.03962ZM25.5592 3.22943C25.8203 3.43006 26.0412 3.4608 26.2401 3.3077C26.4157 3.17261 26.4929 2.99617 26.4094 2.77785C26.2965 2.48246 26.0174 2.3581 25.7375 2.4673C25.5102 2.55599 25.3007 2.9146 25.5592 3.22943ZM23.4367 12.6762C22.6449 12.8318 21.8465 13.3963 21.7626 13.9167C22.4994 13.3307 23.2937 12.9419 24.2495 12.7171C23.9346 12.5658 23.7089 12.6401 23.4367 12.6762ZM13.3541 19.4892C13.2216 19.5863 13.065 19.6585 13.0072 19.8304C12.9811 19.9084 12.9922 19.9722 13.0501 20.0305C13.0977 20.0784 13.1519 20.0726 13.2027 20.044C13.635 19.8009 14.0951 19.6255 14.6501 19.5219C14.1851 19.3336 13.7911 19.307 13.3541 19.4892ZM8.15394 7.44857C7.96608 7.37478 7.80655 7.41674 7.68339 7.57075C7.59901 7.67627 7.55922 7.79165 7.64005 7.92277C7.72782 8.06513 7.84177 8.16416 8.02105 8.14713C8.19871 8.13026 8.30059 8.01 8.36031 7.86055C8.43131 7.68289 8.31856 7.57007 8.15394 7.44857ZM5.66842 9.95465C5.58819 9.984 5.51931 10.0307 5.47005 10.0986C5.36663 10.2411 5.37128 10.3893 5.4703 10.5301C5.55918 10.6564 5.69499 10.6998 5.83829 10.6557C5.99123 10.6087 6.09086 10.4872 6.09197 10.3302C6.09366 10.0902 5.93641 9.97883 5.66842 9.95465ZM39.1539 18.3677C38.9378 18.4321 38.8616 18.582 38.8999 18.7889C38.9281 18.9416 39.0383 19.0215 39.1906 19.0419C39.3806 19.0673 39.4879 18.9556 39.5557 18.8048C39.6545 18.5851 39.5064 18.4067 39.1539 18.3677ZM12.2265 17.2642C12.2841 17.4137 12.3717 17.5293 12.5557 17.4643C12.6871 17.4179 12.7735 17.3202 12.7465 17.1698C12.7231 17.0391 12.6374 16.953 12.5012 16.9512C12.3226 16.9487 12.2358 17.0561 12.2265 17.2642ZM39.3917 16.24C39.4717 16.2091 39.5387 16.1594 39.5698 16.0809C39.613 15.9718 39.6018 15.8654 39.5037 15.787C39.4111 15.7131 39.3014 15.6846 39.2008 15.7622C39.1131 15.8297 39.041 15.9214 39.088 16.0424C39.1331 16.1585 39.2178 16.2368 39.3917 16.24ZM20.7908 1.91064C20.7099 1.91502 20.6486 1.95552 20.6069 2.01942C20.5347 2.12989 20.5206 2.24795 20.6238 2.34356C20.7252 2.43748 20.8492 2.43438 20.9525 2.34531C21.0576 2.25464 21.0615 2.13993 20.9863 2.02447C20.9493 1.96764 20.8921 1.93806 20.7908 1.91064ZM39.8755 21.6968C39.8947 21.947 40.0321 22.0692 40.2051 21.9842C40.2903 21.9424 40.3592 21.8726 40.36 21.7734C40.3608 21.6728 40.29 21.603 40.2032 21.5657C40.0778 21.5118 39.9675 21.5406 39.8755 21.6968ZM38.8013 24.2628C38.8351 24.2925 38.864 24.3357 38.9036 24.3496C39.0639 24.406 39.1861 24.3487 39.2325 24.1926C39.2743 24.0523 39.1828 23.9511 39.0517 23.9358C38.8483 23.912 38.7661 24.0308 38.8013 24.2628ZM38.2921 14.3894C38.4164 14.3056 38.4676 14.1964 38.3813 14.064C38.3213 13.9721 38.2251 13.9317 38.1153 13.9844C38.0174 14.0315 37.9409 14.1103 37.9717 14.2219C38.0084 14.3546 38.0928 14.4487 38.2921 14.3894ZM28.715 3.82675C28.6346 3.72782 28.5371 3.69169 28.4228 3.76565C28.3513 3.81187 28.2961 3.88087 28.2911 3.96661C28.2849 4.07551 28.3753 4.12677 28.458 4.16508C28.6254 4.24265 28.7304 4.12385 28.715 3.82675ZM35.2661 9.22973C35.2451 9.07911 35.1461 9.01189 35.0018 9.01216C34.9102 9.01233 34.8516 9.0756 34.8262 9.15942C34.7923 9.27133 34.8463 9.3583 34.9376 9.41151C35.1086 9.51116 35.1839 9.38446 35.2661 9.22973ZM12.998 4.09067C13.1119 4.03067 13.2069 3.95259 13.1444 3.81324C13.1031 3.72113 13.0262 3.63629 12.906 3.67244C12.7971 3.70516 12.7535 3.80194 12.7498 3.90785C12.7449 4.04679 12.8272 4.10206 12.998 4.09067Z" fill="black"/>
<path d="M22.6576 16.8484C23.3453 16.8748 23.8585 17.162 24.1979 17.7207C24.4984 18.2152 24.6341 18.7798 24.8948 19.3053C24.7096 19.395 24.5691 19.2969 24.4254 19.2619C24.2051 19.2082 24.0535 19.2316 23.922 19.459C23.6325 19.9592 23.1181 20.0804 22.5824 20.0954C21.768 20.1183 21.093 19.5803 20.911 18.7962C20.6971 17.8749 21.4183 16.9245 22.3834 16.8569C22.4669 16.851 22.5507 16.8505 22.6576 16.8484ZM21.9594 17.951C22.0123 17.7959 21.9614 17.6765 21.8113 17.6159C21.6995 17.5708 21.589 17.6003 21.5143 17.7028C21.4365 17.8097 21.4222 17.9286 21.5058 18.0336C21.6712 18.2413 21.8084 18.1203 21.9594 17.951Z" fill="black"/>
<path d="M22.5151 22.7089C22.9486 22.7412 23.3472 22.8218 23.7394 22.9333C23.906 22.9807 24.0774 23.0476 24.0181 23.2649C23.9656 23.4572 23.8061 23.5037 23.6201 23.466C22.9843 23.337 22.3451 23.2415 21.6935 23.2281C21.5062 23.2243 21.2974 23.1717 21.3085 22.927C21.3193 22.6864 21.5147 22.6549 21.7142 22.6596C21.9733 22.6657 22.2347 22.6385 22.5151 22.7089Z" fill="black"/>
<path d="M9.34692 20.7134C9.76946 20.8026 10.1623 20.9085 10.5209 21.1091C10.6473 21.1797 10.7622 21.2637 10.6813 21.4332C10.6072 21.5884 10.4714 21.6514 10.3132 21.5975C9.90128 21.4575 9.48788 21.3263 9.06077 21.237C8.93213 21.2102 8.83989 21.1278 8.8544 20.9863C8.86751 20.8585 8.93961 20.7664 9.07824 20.743C9.15985 20.7292 9.2423 20.7203 9.34692 20.7134Z" fill="black"/>
<path d="M19.9075 24.7255C19.8236 24.8844 19.7168 24.9771 19.5442 24.9486C19.4127 24.9269 19.3228 24.8451 19.3036 24.7163C19.2752 24.5263 19.3315 24.3652 19.5429 24.3168C19.7462 24.2701 19.9041 24.4431 19.9075 24.7255Z" fill="black"/>
<path d="M18.9438 23.8622C18.7419 23.9103 18.6133 23.8317 18.5377 23.6789C18.4868 23.5762 18.5033 23.4679 18.578 23.3703C18.663 23.2592 18.7763 23.2443 18.9021 23.2669C19.0409 23.2918 19.1037 23.3992 19.1351 23.5136C19.1769 23.666 19.0906 23.7734 18.9438 23.8622Z" fill="black"/>
<path d="M18.0389 24.2729C18.0785 24.269 18.0976 24.2667 18.1152 24.2706C18.2919 24.3093 18.4368 24.3912 18.4255 24.5907C18.4165 24.7481 18.3193 24.8643 18.1499 24.8815C17.9838 24.8985 17.855 24.8167 17.809 24.6621C17.7549 24.4808 17.8324 24.3456 18.0389 24.2729Z" fill="black"/>
<path d="M20.1233 23.4247C19.9623 23.5973 19.7998 23.5955 19.6522 23.4535C19.5309 23.3367 19.548 23.1914 19.6341 23.0563C19.7161 22.9276 19.8471 22.9024 19.973 22.9582C20.1742 23.0474 20.2221 23.2092 20.1233 23.4247Z" fill="black"/>
<path d="M15.9401 23.4178C15.7735 23.3386 15.7277 23.2221 15.7679 23.0723C15.8004 22.9511 15.8693 22.8586 16.0062 22.8393C16.1396 22.8204 16.2378 22.882 16.3137 22.9825C16.3808 23.0714 16.3895 23.1729 16.3273 23.2612C16.2416 23.383 16.1359 23.4864 15.9401 23.4178Z" fill="black"/>
<path d="M17.7712 23.4876C17.7285 23.6687 17.6224 23.7711 17.4545 23.7584C17.3193 23.7481 17.2076 23.6597 17.1799 23.5208C17.1466 23.3537 17.1849 23.1979 17.3829 23.1622C17.6183 23.1198 17.7592 23.223 17.7712 23.4876Z" fill="black"/>
<path d="M12.0925 23.7754C12.2163 23.4509 12.4015 23.3662 12.5769 23.5358C12.6772 23.6327 12.717 23.7583 12.6686 23.8874C12.6271 23.9983 12.5191 24.055 12.4019 24.0552C12.232 24.0554 12.128 23.9607 12.0925 23.7754Z" fill="black"/>
<path d="M11.3074 22.7338C11.3184 22.6768 11.3233 22.6396 11.3402 22.6087C11.4218 22.4599 11.5564 22.414 11.7147 22.4522C11.8539 22.4857 11.937 22.5865 11.939 22.7268C11.9411 22.8706 11.8423 22.9648 11.7155 23.0069C11.5576 23.0592 11.4261 22.9968 11.3377 22.8587C11.3192 22.8297 11.3168 22.7907 11.3074 22.7338Z" fill="black"/>
<path d="M16.9932 24.1925C17.0492 24.395 16.9293 24.4835 16.7869 24.5376C16.648 24.5903 16.5357 24.517 16.4508 24.4102C16.3585 24.2941 16.3731 24.1725 16.456 24.0594C16.5914 23.8747 16.8012 23.9212 16.9932 24.1925Z" fill="black"/>
<path d="M11.6283 23.5357C11.7453 23.6782 11.7657 23.8155 11.6707 23.9506C11.5865 24.0703 11.4544 24.0958 11.3253 24.0444C11.1837 23.988 11.1118 23.87 11.143 23.7168C11.1702 23.5833 11.243 23.4821 11.4001 23.4775C11.4736 23.4753 11.5484 23.4744 11.6283 23.5357Z" fill="black"/>
<path d="M13.0075 22.7939C12.8811 22.7734 12.8142 22.8149 12.8017 22.924C12.8652 23.0657 13.042 22.9392 13.1209 23.0712C13.0562 23.1987 12.9538 23.1752 12.8514 23.1247C12.7037 23.0519 12.6279 22.9315 12.6559 22.7692C12.6755 22.6556 12.7381 22.5664 12.8722 22.5558C13.0001 22.5456 13.1133 22.5693 13.1812 22.6902C13.2093 22.7402 13.2276 22.7989 13.1736 22.8374C13.1183 22.8768 13.0712 22.8235 13.0075 22.7939Z" fill="black"/>
<path d="M17.1192 8.80035C18.4212 8.55923 19.7033 8.51964 20.9973 8.68072C21.9911 8.80444 22.9437 9.05965 23.8714 9.41892C24.0555 9.4902 24.1989 9.60093 24.2246 9.80449C24.2444 9.96064 24.136 10.0628 24.0187 10.1372C23.8602 10.2379 23.6937 10.1657 23.5361 10.1167C23.0667 9.97076 22.5973 9.82721 22.1194 9.70765C20.4513 9.29035 18.7746 9.27988 17.0898 9.5834C16.885 9.6203 16.7097 9.59268 16.5996 9.41878C16.5099 9.27711 16.5293 9.11392 16.6414 8.98502C16.7569 8.8522 16.9296 8.82935 17.1192 8.80035Z" fill="black"/>
<path d="M36.9814 19.91C37.2458 20.0874 37.312 20.3447 37.3498 20.6084C37.4622 21.3923 37.4301 22.1673 37.162 22.9217C37.1195 23.0411 37.0575 23.1553 36.9929 23.2654C36.8829 23.4526 36.7431 23.632 36.4988 23.6051C36.2456 23.5772 36.1233 23.3774 36.0707 23.1542C35.846 22.2002 35.8946 21.2563 36.2451 20.3393C36.3977 19.94 36.6043 19.8392 36.9814 19.91Z" fill="black"/>
</svg>
